<?xml version="1.0" encoding="UTF-8" standalone="no"?>
<!DOCTYPE svg  PUBLIC '-//W3C//DTD SVG 1.1//EN'  'http://www.w3.org/Graphics/SVG/1.1/DTD/svg11.dtd'>
<svg xmlns="http://www.w3.org/2000/svg" version="1.1">
<defs>
<font id="CorporateSW10MdItalic" horiz-adv-x="527">
<font-face ascent="741" unicode-range="U+0020-2122" font-style="italic" bbox="-112 -202 922 859" underline-position="-176" descent="-259" cap-height="667" x-height="473" units-per-em="1000" font-weight="500" panose-1="0 0 6 0 0 0 0 0 0 0" underline-thickness="77" font-family="Corporate S W10 Md Italic" slope="-14"/>
<missing-glyph horiz-adv-x="0"/>
<glyph glyph-name=".notdef" horiz-adv-x="0"/>
<glyph glyph-name="glyph1" horiz-adv-x="0"/>
<glyph glyph-name="glyph2" horiz-adv-x="0"/>
<glyph glyph-name="space" horiz-adv-x="250" unicode=" "/>
<glyph d="M93 113q22 0 36 -14.5t14 -36.5q0 -29 -21.5 -51t-49.5 -22q-22 0 -37 14t-15 35q0 15 6 28.5t16 24t23 16.5t28 6zM273 653l-126 -459h-64l106 459h84z" glyph-name="exclam" horiz-adv-x="252" unicode="!"/>
<glyph d="M277 399l53 268h84l-81 -268h-56zM134 399l53 268h84l-81 -268h-56z" glyph-name="quotedbl" horiz-adv-x="381" unicode='&quot;'/>
<glyph d="M266 409l-22 -139h143l22 139h-143zM563 209h-115l-33 -209h-70l33 209h-143l-33 -209h-70l33 209h-114l10 61h114l22 139h-114l9 61h114l31 197h70l-31 -197h143l31 197h70l-31 -197h115l-9 -61h-116l-22 -139h116z" glyph-name="numbersign" horiz-adv-x="600" unicode="#"/>
<glyph d="M250 60q60 4 95.5 38.5t35.5 89.5q0 32 -17.5 56t-62.5 53zM319 606q-48 -3 -78.5 -31t-30.5 -70q0 -29 15.5 -50t52.5 -43zM349 745h48l-15 -69q71 -11 107.5 -51t36.5 -107l-1 -28h-80v17q0 81 -78 98l-47 -218q35 -20 56 -33.5t36 -26.5q29 -26 43 -56t14 -69 q0 -54 -25.5 -102.5t-68.5 -76.5q-55 -35 -140 -36l-16 -74h-48l17 78q-78 14 -118 58t-40 116q0 10 1 19.5t3 24.5h80q-2 -12 -2.5 -19.5t-0.5 -15.5q0 -48 22 -74t70 -36l55 258l-13 9q-21 13 -34 21t-22 15t-15.5 13t-13.5 14q-35 41 -35 99q0 40 15 74t43 58.5 t66.5 38.5t85.5 15z" glyph-name="dollar" unicode="$"/>
<glyph d="M500 262q-20 0 -37.5 -12t-30.5 -32t-21 -46.5t-8 -55.5q0 -67 50 -67q19 0 36.5 12t30.5 32.5t21 47t8 56.5q0 65 -49 65zM506 316q49 0 77 -32t28 -87q0 -41 -13 -77.5t-35.5 -64.5t-52.5 -44t-63 -16q-49 0 -77.5 31t-28.5 85q0 42 13.5 79t36 65t52.5 44.5t63 16.5z M645 667l-524 -667h-70l524 667h70zM247 618q-19 0 -36.5 -12t-30.5 -32.5t-21 -47t-8 -55.5q0 -66 50 -66q19 0 36.5 12t30.5 32t21 47t8 56q0 66 -50 66zM254 672q49 0 77 -32t28 -87q0 -41 -13 -77.5t-35.5 -64.5t-52.5 -44t-63 -16q-49 0 -77.5 31t-28.5 85q0 42 13 79 t35.5 65t52.5 44.5t64 16.5z" glyph-name="percent" horiz-adv-x="648" unicode="%"/>
<glyph d="M224 313q-71 -39 -101 -76.5t-30 -86.5q0 -42 27 -66t72 -24q34 0 62.5 12t60.5 38zM265 410q57 36 81.5 67t24.5 66q0 23 -15.5 37.5t-41.5 14.5q-35 0 -57.5 -24t-22.5 -60q0 -20 7.5 -45.5t23.5 -55.5zM497 312q-7 -34 -15.5 -61.5t-20 -52t-26.5 -46.5t-34 -44 l50 -108h-86l-24 55q-38 -33 -74 -47.5t-83 -14.5q-79 0 -123.5 39.5t-44.5 109.5q0 97 86 167q16 14 36 27.5t58 36.5q-12 27 -19.5 45t-11.5 32t-5.5 25.5t-1.5 25.5q0 35 12 64t33 50t50.5 32.5t64.5 11.5q57 0 90.5 -29.5t33.5 -78.5q0 -73 -60 -130q-6 -6 -13.5 -12.5 t-18 -14t-25.5 -17.5t-37 -25l83 -181q23 28 35.5 59.5t22.5 81.5h68z" glyph-name="ampersand" horiz-adv-x="557" unicode="&amp;"/>
<glyph d="M140 399l53 268h84l-81 -268h-56z" glyph-name="quotesingle" horiz-adv-x="250" unicode="&apos;"/>
<glyph d="M377 669q-54 -51 -95 -108.5t-76 -130.5q-91 -192 -91 -386q0 -31 1.5 -57t5 -53.5t10 -59t16.5 -72.5h-55q-14 37 -23 69.5t-15 63t-8.5 60.5t-2.5 64q0 87 19 174.5t54 167t84.5 148.5t110.5 120h65z" glyph-name="parenleft" horiz-adv-x="286" unicode="("/>
<glyph d="M-86 -198q30 30 54 57.5t44.5 56.5t38 59.5t34.5 66.5q91 194 91 386q0 30 -1.5 57t-5.5 55t-10.5 59t-15.5 70h55q13 -35 22.5 -66.5t15.5 -62.5t8.5 -62t2.5 -65q0 -97 -23.5 -192.5t-69.5 -188.5q-18 -36 -36.5 -66t-39.5 -58t-45.5 -53.5t-54.5 -52.5h-64z" glyph-name="parenright" horiz-adv-x="286" unicode=")"/>
<glyph d="M330 677l48 -12l-28 -113l115 8l4 -50l-116 -9l43 -108l-46 -19l-43 108l-89 -75l-32 39l89 75l-98 61l27 44l97 -62z" glyph-name="asterisk" horiz-adv-x="500" unicode="*"/>
<glyph d="M509 365v-60h-187v-194h-63v194h-187v60h187v194h63v-194h187z" glyph-name="plus" unicode="+"/>
<glyph d="M-42 -150q39 32 69 72t43 78q-4 -1 -11 -1q-18 0 -30.5 12.5t-12.5 31.5q0 28 21.5 49.5t50.5 21.5q24 0 39.5 -16.5t15.5 -42.5q0 -45 -34.5 -100.5t-91.5 -104.5h-59z" glyph-name="comma" horiz-adv-x="251" unicode=","/>
<glyph d="M277 283l-16 -62h-263l15 62h264z" glyph-name="hyphen" horiz-adv-x="263" unicode="-"/>
<glyph d="M93 113q22 0 36 -14.5t14 -36.5q0 -29 -21.5 -51t-49.5 -22q-22 0 -37 14t-15 35q0 15 6 28.5t16 24t23 16.5t28 6z" glyph-name="period" horiz-adv-x="251" unicode="."/>
<glyph d="M542 667h81l-580 -825h-81z" glyph-name="slash" horiz-adv-x="571" unicode="/"/>
<glyph d="M350 591q-44 0 -78 -29.5t-66 -95.5q-15 -30 -27 -65.5t-21 -72.5t-14 -74t-5 -70q0 -59 23 -90.5t67 -31.5q45 0 79.5 31.5t66.5 100.5q14 30 25.5 65t19.5 71t12.5 71.5t4.5 67.5q0 60 -22.5 91t-64.5 31zM357 662q79 0 121.5 -52.5t42.5 -152.5q0 -42 -6.5 -87 t-19 -89t-30 -84.5t-38.5 -74.5q-42 -68 -91.5 -99.5t-112.5 -31.5q-81 0 -124.5 52.5t-43.5 150.5q0 44 7.5 91t21 93t32.5 88t42 77q42 62 89.5 90.5t109.5 28.5z" glyph-name="zero" unicode="0"/>
<glyph d="M209 550q62 2 101 26.5t62 77.5h56l-163 -654h-80l125 505l-114 -6z" glyph-name="one" unicode="1"/>
<glyph d="M144 463q17 97 72 148t143 51q36 0 65.5 -10t51 -28t33 -43t11.5 -55q0 -24 -6 -46t-22 -47.5t-43.5 -57t-70.5 -74.5l-13 -13t-14.5 -15t-22 -22.5t-36.5 -36t-57.5 -56t-83.5 -82.5h271l-19 -76h-378l16 66l143 140q61 60 96.5 95t55.5 55.5t30.5 32t21.5 24.5 q27 32 38 55t11 47q0 33 -24.5 53.5t-63.5 20.5q-101 0 -132 -126h-73z" glyph-name="two" unicode="2"/>
<glyph d="M143 482q21 89 72.5 134.5t131.5 45.5q75 0 120 -40.5t45 -109.5q0 -62 -35 -105.5t-101 -63.5q83 -36 83 -128q0 -47 -18 -88t-50 -71t-75 -47.5t-92 -17.5q-83 0 -132.5 44t-49.5 118v14t2 20h76v-16q0 -52 28 -80t79 -28q31 0 58 12t47 32t31.5 47.5t11.5 59.5 q0 29 -13 50.5t-37 32.5q-14 7 -30.5 9.5t-48.5 3.5h-17l18 71q9 -1 16.5 -1.5t12.5 -0.5q32 0 60 9.5t48.5 26.5t32 39.5t11.5 49.5q0 38 -25 61.5t-66 23.5q-88 0 -119 -107h-75z" glyph-name="three" unicode="3"/>
<glyph d="M400 580l-279 -353h187zM491 227l-18 -70h-103l-40 -160h-83l40 159h-267l16 64l357 438h100l-107 -431h105z" glyph-name="four" unicode="4"/>
<glyph d="M535 650l-27 -74h-225l-68 -172q28 20 52.5 28t56.5 8q69 0 108.5 -43t39.5 -118q0 -54 -19 -106.5t-53 -94.5q-35 -42 -82 -64.5t-101 -22.5q-75 0 -119.5 40t-44.5 107l1 25h78q0 -21 1 -28t4 -18q8 -25 31.5 -39.5t55.5 -14.5q33 0 62.5 17t52 45.5t36 65.5t13.5 78 q0 47 -25 74t-69 27q-33 0 -61.5 -16t-57.5 -50l-67 9l129 337h298z" glyph-name="five" unicode="5"/>
<glyph d="M303 373q-30 0 -58 -17.5t-49.5 -46.5t-34.5 -66.5t-13 -78.5q0 -47 23.5 -74.5t64.5 -27.5q30 0 58 17.5t49.5 46t34.5 66t13 77.5q0 47 -24 75.5t-64 28.5zM511 664q-35 -28 -70 -59.5t-67 -63.5t-60 -62.5t-48 -56.5q19 10 33.5 14t32.5 4q31 0 57.5 -12t45.5 -34 t29.5 -52.5t10.5 -67.5q0 -54 -20 -107t-55 -95q-70 -81 -168 -81q-78 0 -123 47t-45 127q0 76 38.5 153t123.5 169q40 44 91 91t101 86h93z" glyph-name="six" unicode="6"/>
<glyph d="M593 650l-15 -65l-426 -585h-93l422 573l-306 -2l18 79h400z" glyph-name="seven" unicode="7"/>
<glyph d="M276 306q-29 0 -54.5 -12t-44.5 -33t-30.5 -48.5t-11.5 -57.5q0 -43 26.5 -69t70.5 -26q29 0 54.5 12t44.5 33t30 48.5t11 59.5q0 42 -26.5 67.5t-69.5 25.5zM346 593q-25 0 -47 -10.5t-38.5 -29t-26 -43t-9.5 -52.5q0 -37 23.5 -60.5t60.5 -23.5q24 0 46 10.5t38 29 t25.5 43t9.5 51.5q0 38 -22.5 61.5t-59.5 23.5zM196 347q-29 25 -42 51.5t-13 63.5q0 41 16.5 77.5t44.5 63.5t66 43t81 16q36 0 66 -10.5t51.5 -30t33.5 -46.5t12 -60q0 -38 -13.5 -73t-36.5 -59q-14 -14 -29.5 -23.5t-42.5 -20.5q35 -23 50.5 -51.5t15.5 -72.5 q0 -47 -17.5 -88t-48 -71t-71.5 -47.5t-89 -17.5q-40 0 -73 11.5t-56.5 32.5t-36.5 50.5t-13 65.5q0 69 37 119.5t108 76.5z" glyph-name="eight" unicode="8"/>
<glyph d="M339 591q-30 0 -58.5 -17.5t-50 -46t-34.5 -66t-13 -77.5q0 -47 24.5 -75.5t64.5 -28.5q66 0 112 69q20 30 32 67.5t12 72.5q0 47 -24 74.5t-65 27.5zM65 -11q30 23 64.5 54t68.5 64t63 65t49 58q-18 -9 -33 -13t-34 -4q-32 0 -58 12t-45 34t-29.5 52.5t-10.5 67.5 q0 54 20 107t55 95q69 81 169 81q77 0 122.5 -47t45.5 -127q0 -38 -9.5 -76t-29 -77t-50.5 -81t-73 -88q-20 -22 -44.5 -46.5t-50.5 -48t-51 -45t-46 -37.5h-93z" glyph-name="nine" unicode="9"/>
<glyph d="M93 113q22 0 36 -14.5t14 -36.5q0 -29 -21.5 -51t-49.5 -22q-22 0 -37 14t-15 35q0 15 6 28.5t16 24t23 16.5t28 6zM186 484q22 0 36 -14t14 -37q0 -29 -21.5 -50.5t-49.5 -21.5q-22 0 -37 14t-15 35q0 30 22 52t51 22z" glyph-name="colon" horiz-adv-x="251" unicode=":"/>
<glyph d="M183 484q22 0 36 -14.5t14 -36.5q0 -29 -21.5 -50.5t-49.5 -21.5q-22 0 -37 14t-15 35q0 15 6 28t16 23.5t23 16.5t28 6zM-42 -150q39 32 69 72t43 78q-4 -1 -11 -1q-18 0 -30.5 12.5t-12.5 31.5q0 28 21.5 49.5t50.5 21.5q24 0 39.5 -16.5t15.5 -42.5 q0 -45 -34.5 -100.5t-91.5 -104.5h-59z" glyph-name="semicolon" horiz-adv-x="251" unicode=";"/>
<glyph d="M476 496l-343 -159l343 -159v-83l-433 206v73l433 206v-84z" glyph-name="less" horiz-adv-x="500" unicode="&lt;"/>
<glyph d="M509 296v-62h-437v62h437zM509 436v-62h-437v62h437z" glyph-name="equal" unicode="="/>
<glyph d="M43 178l344 159l-344 159v84l433 -207v-72l-433 -206v83z" glyph-name="greater" horiz-adv-x="500" unicode="&gt;"/>
<glyph d="M171 113q22 0 36 -14.5t14 -36.5q0 -29 -21.5 -51t-49.5 -22q-22 0 -37 14t-15 35q0 15 6 28.5t16 24t23 16.5t28 6zM144 194q9 48 17 77.5t22.5 53t39.5 47.5t68 60q62 55 62 99q0 25 -18.5 39.5t-49.5 14.5q-40 0 -64.5 -22t-38.5 -70h-71q17 82 65 125t124 43 q65 0 103.5 -32.5t38.5 -87.5q0 -21 -5 -39t-17 -36t-32.5 -38.5t-51.5 -47.5q-34 -28 -53.5 -46t-31 -36.5t-18 -42t-13.5 -61.5h-76z" glyph-name="question" horiz-adv-x="404" unicode="?"/>
<glyph d="M410 447q-24 0 -44.5 -11.5t-36 -31t-24.5 -45.5t-9 -56q0 -49 23.5 -77t63.5 -28q24 0 44 11.5t34.5 32t22.5 48t8 60.5q0 46 -22 71.5t-60 25.5zM583 494l-41 -208q-2 -14 -4 -27.5t-2 -19.5q0 -21 9.5 -34t25.5 -13q20 0 39 16t34 42t24 60.5t9 70.5q0 55 -19 100 t-53.5 77t-83 50t-106.5 18q-63 0 -116 -22t-91.5 -61.5t-60.5 -94t-22 -118.5q0 -60 20 -113.5t58 -93.5q79 -82 222 -82q57 0 105 10.5t99 33.5l15 -53q-100 -44 -219 -44q-163 0 -260 94q-48 47 -74 112.5t-26 137.5q0 75 26.5 138.5t73.5 110t111 72.5t139 26 q69 0 127.5 -22t100.5 -61.5t65.5 -94t23.5 -118.5q0 -48 -13.5 -91.5t-36 -76.5t-52 -52.5t-62.5 -19.5q-30 0 -49.5 18t-24.5 50q-47 -69 -123 -69q-32 0 -58 12t-45 33.5t-29.5 51t-10.5 65.5q0 42 14 78.5t37.5 64t55.5 43.5t68 16q41 0 67 -17.5t42 -54.5l12 60h59z " glyph-name="at" horiz-adv-x="733" unicode="@"/>
<glyph d="M376 378q-1 24 -1.5 40.5t-1.5 36.5t-2 48t-2 75q-24 -51 -50 -103q-14 -26 -26 -48.5t-27 -50.5l-78 -135h196zM431 670l52 -670h-86l-10 169h-238l-96 -169h-90l389 670h79z" glyph-name="A" horiz-adv-x="559" unicode="A"/>
<glyph d="M193 72q28 0 48.5 1t36 3t28 5.5t24.5 8.5q38 17 60 53t22 81q0 62 -57 82q-15 5 -40 7.5t-57 2.5h-69l-61 -244h65zM270 386q45 0 73 4.5t48 15.5q31 17 49.5 47.5t18.5 64.5q0 54 -48 69q-14 5 -36 6.5t-62 1.5h-55l-52 -209h64zM318 667q56 0 90.5 -4t57.5 -13 q78 -32 78 -121q0 -66 -38.5 -112t-110.5 -66q56 -18 80.5 -48.5t24.5 -80.5q0 -63 -33 -114.5t-90 -77.5q-18 -9 -38 -14.5t-45 -9t-56 -5t-73 -1.5h-137l166 667h124z" glyph-name="B" horiz-adv-x="552" unicode="B"/>
<glyph d="M522 476q0 130 -120 130q-107 0 -181 -122q-32 -52 -50.5 -118.5t-18.5 -127.5q0 -84 37.5 -130.5t106.5 -46.5q67 0 117 44.5t74 125.5h83q-31 -119 -102 -181.5t-176 -62.5q-109 0 -168.5 65t-59.5 185q0 92 31 180.5t86 153.5q93 109 226 109q95 0 145.5 -50 t50.5 -144v-10h-81z" glyph-name="C" horiz-adv-x="611" unicode="C"/>
<glyph d="M204 74q43 0 76 4t60 14t49 26t42 39q22 25 39.5 56.5t30 67t19 73t6.5 75.5q0 49 -17.5 86.5t-49.5 55.5q-21 11 -53.5 16.5t-82.5 5.5h-64l-130 -519h75zM321 667q75 0 122 -9t79 -29q92 -58 92 -201q0 -103 -36.5 -193t-101.5 -149q-28 -25 -56.5 -41.5t-64.5 -26.5 t-82 -14t-110 -4h-135l166 667h127z" glyph-name="D" horiz-adv-x="625" unicode="D"/>
<glyph d="M470 382l-18 -74h-264l-59 -234h298l-18 -74h-381l166 667h363l-18 -74h-280l-53 -211h264z" glyph-name="E" horiz-adv-x="505" unicode="E"/>
<glyph d="M467 382l-18 -74h-261l-77 -308h-83l166 667h365l-19 -74h-281l-53 -211h261z" glyph-name="F" horiz-adv-x="482" unicode="F"/>
<glyph d="M587 330l-70 -281q-97 -62 -214 -62q-118 0 -178.5 62.5t-60.5 183.5q0 95 30.5 183t85.5 153q48 57 104.5 84t125.5 27q94 0 145.5 -49t51.5 -138v-17h-80q-1 130 -121 130q-105 0 -178 -112q-18 -27 -32 -58.5t-23.5 -65.5t-15 -68t-5.5 -67q0 -174 161 -174 q34 0 71 9.5t66 26.5l42 165h-129l17 68h207z" glyph-name="G" horiz-adv-x="624" unicode="G"/>
<glyph d="M501 384l70 283h83l-166 -667h-83l78 313h-294l-78 -313h-83l166 667h83l-71 -283h295z" glyph-name="H" horiz-adv-x="629" unicode="H"/>
<glyph d="M28 0l166 667h85l-167 -667h-84z" glyph-name="I" horiz-adv-x="253" unicode="I"/>
<glyph d="M315 667l-132 -532q-10 -40 -17.5 -66.5t-14.5 -44.5t-14.5 -30.5t-17.5 -24.5q-55 -66 -177 -66h-10.5t-15.5 1l18 73q4 -1 7 -1h5q69 0 102 33q8 9 14 19t12.5 27t13.5 42.5t17 64.5l126 505h84z" glyph-name="J" horiz-adv-x="288" unicode="J"/>
<glyph d="M277 667l-166 -667h-83l166 667h83zM633 667l-337 -322l192 -345h-104l-184 350l330 317h103z" glyph-name="K" horiz-adv-x="577" unicode="K"/>
<glyph d="M280 667l-148 -593h277l-18 -74h-363l166 667h86z" glyph-name="L" horiz-adv-x="471" unicode="L"/>
<glyph d="M319 667l39 -580l325 580h129l-166 -667h-78l149 590l-333 -590h-90l-43 590l-145 -590h-78l166 667h125z" glyph-name="M" horiz-adv-x="786" unicode="M"/>
<glyph d="M284 667l170 -552l135 552h80l-166 -667h-88l-172 551l-135 -551h-80l166 667h90z" glyph-name="N" horiz-adv-x="643" unicode="N"/>
<glyph d="M404 606q-102 0 -173 -108q-18 -28 -33 -60.5t-25.5 -67.5t-16 -70.5t-5.5 -68.5q0 -80 36.5 -125t101.5 -45q107 0 181 124q16 27 29 58t22 63.5t14 64.5t5 62q0 81 -36 127t-100 46zM411 680q103 0 160 -65.5t57 -182.5q0 -91 -30.5 -178.5t-84.5 -153.5 q-95 -113 -229 -113q-105 0 -163 64.5t-58 182.5q0 45 8 91t23 90t36.5 83t48.5 71q93 111 232 111z" glyph-name="O" horiz-adv-x="639" unicode="O"/>
<glyph d="M263 341q58 0 89 5t54 19q32 19 50 54.5t18 77.5q0 53 -31 74.5t-108 21.5h-76l-63 -252h67zM327 667q64 0 105 -7.5t66 -24.5q62 -42 62 -131q0 -66 -30.5 -121t-83.5 -84q-17 -9 -35 -15.5t-40.5 -10t-52 -5t-68.5 -1.5h-70l-67 -267h-85l166 667h133z" glyph-name="P" horiz-adv-x="521" unicode="P"/>
<glyph d="M404 606q-102 0 -173 -108q-18 -28 -33 -60.5t-25.5 -67.5t-16 -70.5t-5.5 -68.5q0 -80 36.5 -125t101.5 -45q107 0 181 124q16 27 29 58t22 63.5t14 64.5t5 62q0 81 -36 127t-100 46zM593 0h-106l-24 51q-77 -64 -180 -64q-104 0 -162 65t-58 181q0 46 8 92t23.5 89.5 t37 83t48.5 71.5q92 111 227 111q106 0 163.5 -65t57.5 -184q0 -87 -27 -168t-79 -150z" glyph-name="Q" horiz-adv-x="639" unicode="Q"/>
<glyph d="M260 353q52 0 81.5 4t52.5 14q38 16 60 50.5t22 77.5q0 68 -59 86q-14 5 -37.5 6.5t-65.5 1.5h-55l-60 -240h61zM326 667q108 0 153 -19q83 -37 83 -141q0 -49 -20 -93t-55 -74q-21 -18 -45 -29t-62 -21l97 -290h-96l-85 279h-116l-69 -279h-83l166 667h132z" glyph-name="R" horiz-adv-x="554" unicode="R"/>
<glyph d="M446 490q1 5 1 9.5v7.5q0 48 -27.5 73.5t-81.5 25.5t-89 -28t-35 -73q0 -42 34 -68q6 -5 10.5 -8.5t12.5 -8.5t23 -14t42 -25q21 -13 35.5 -22.5t25.5 -17t18.5 -14.5t15.5 -14q41 -43 41 -110q0 -47 -19.5 -90.5t-53.5 -73.5q-60 -52 -159 -52q-97 0 -152 47t-55 130 q0 11 1 20t3 25h81q-2 -12 -2 -19v-15q0 -55 32.5 -84.5t94.5 -29.5t100.5 34.5t38.5 90.5q0 45 -33 75q-7 6 -13 11t-14.5 11t-22 14.5t-35.5 21.5q-40 24 -66 43.5t-41.5 39.5t-22 41.5t-6.5 48.5q0 41 16 75.5t44.5 59.5t68 39t87.5 14q88 0 136.5 -43t48.5 -119l-1 -28 h-82z" glyph-name="S" horiz-adv-x="530" unicode="S"/>
<glyph d="M553 667l-21 -74h-171l-147 -593h-83l148 593h-177l21 74h430z" glyph-name="T" horiz-adv-x="457" unicode="T"/>
<glyph d="M257 667l-98 -392q-8 -32 -12.5 -61.5t-4.5 -49.5q0 -48 33.5 -75.5t93.5 -27.5q48 0 85 18.5t60 53.5q6 10 11 19.5t9.5 23.5t10.5 35.5t14 54.5l100 401h83l-100 -403q-11 -44 -18.5 -72t-14 -46.5t-13.5 -32t-17 -27.5q-33 -48 -87.5 -73.5t-125.5 -25.5 q-97 0 -152.5 44.5t-55.5 122.5q0 23 5.5 58t15.5 74l95 381h83z" glyph-name="U" horiz-adv-x="596" unicode="U"/>
<glyph d="M204 667l33 -568l284 568h89l-351 -670h-87l-54 670h86z" glyph-name="V" horiz-adv-x="519" unicode="V"/>
<glyph d="M202 667l-18 -576l270 576h74l-11 -576l259 576h81l-315 -670h-93l6 520l-246 -520h-96l9 670h80z" glyph-name="W" horiz-adv-x="759" unicode="W"/>
<glyph d="M237 667l77 -254l206 254h100l-279 -326l122 -341h-93l-87 276l-224 -276h-97l293 347l-112 320h94z" glyph-name="X" horiz-adv-x="537" unicode="X"/>
<glyph d="M209 667l71 -314l227 314h99l-301 -390l-68 -277h-83l70 277l-106 390h91z" glyph-name="Y" horiz-adv-x="502" unicode="Y"/>
<glyph d="M563 667l-14 -55l-456 -538h344l-18 -74h-446l17 67l449 527h-301l18 73h407z" glyph-name="Z" horiz-adv-x="503" unicode="Z"/>
<glyph d="M352 667l-16 -63h-89l-183 -736h89l-16 -63h-160l215 862h160z" glyph-name="bracketleft" horiz-adv-x="286" unicode="["/>
<glyph d="M366 -158l-192 825h74l193 -825h-75z" glyph-name="backslash" horiz-adv-x="577" unicode="\"/>
<glyph d="M-61 -195l16 63h89l183 736h-89l16 63h160l-215 -862h-160z" glyph-name="bracketright" horiz-adv-x="286" unicode="]"/>
<glyph d="M31 359l174 310h110l174 -310h-91l-139 244l-138 -244h-90z" glyph-name="asciicircum" horiz-adv-x="500" unicode="^"/>
<glyph d="M510 -61v-77h-500v77h500z" glyph-name="underscore" horiz-adv-x="500" unicode="_"/>
<glyph d="M279 680l70 -134h-61l-105 134h96z" glyph-name="grave" horiz-adv-x="500" unicode="`"/>
<glyph d="M333 250q-65 -12 -109 -24.5t-71 -27.5t-39 -34.5t-12 -44.5q0 -29 19 -45.5t53 -16.5q63 0 106 51q26 32 42 100zM91 348q45 135 194 135q70 0 109 -28t39 -79q0 -31 -10 -71l-46 -184q-10 -40 -14 -66.5t-4 -54.5h-74q0 21 1 33t4 29q-29 -37 -62 -54t-77 -17 q-60 0 -95.5 32t-35.5 86q0 97 110 142q16 7 29.5 11.5t33.5 10t51 12t83 17.5l20 4l3 15q3 9 4.5 21.5t1.5 21.5q0 25 -20.5 38.5t-57.5 13.5q-43 0 -69.5 -16.5t-40.5 -51.5h-77z" glyph-name="a" horiz-adv-x="474" unicode="a"/>
<glyph d="M309 414q-32 0 -61.5 -18.5t-52.5 -53.5t-38 -83.5t-15 -90.5q0 -50 23.5 -79t64.5 -29q68 0 115 82q10 17 18.5 38t15 43.5t10 44.5t3.5 41q0 51 -21 78t-62 27zM259 670l-64 -257q32 38 63 54t72 16q67 0 105.5 -45t38.5 -123q0 -63 -21.5 -127t-59.5 -111 q-68 -87 -162 -87q-89 0 -126 80q-4 -20 -10.5 -37t-14.5 -33h-72q4 10 8 21t8.5 26t10 35.5t12.5 49.5l134 538h78z" glyph-name="b" horiz-adv-x="505" unicode="b"/>
<glyph d="M362 319v17q0 81 -76 81q-69 0 -118 -79q-22 -35 -34.5 -79.5t-12.5 -86.5q0 -54 25.5 -85t70.5 -31t73 25.5t46 82.5h79q-46 -175 -204 -175q-83 0 -127.5 47.5t-44.5 135.5q0 65 20 122t54 99t80 66.5t98 24.5q69 0 107.5 -38t38.5 -107v-20h-75z" glyph-name="c" horiz-adv-x="468" unicode="c"/>
<glyph d="M278 414q-60 0 -106 -70q-25 -38 -39 -85t-14 -91q0 -50 24 -79.5t64 -29.5q68 0 116 88q19 35 31 78t12 77q0 54 -23 83t-65 29zM411 142q-8 -32 -13 -54t-8 -38t-4.5 -27.5t-1.5 -22.5h-75q-1 14 2 32t8 31q-30 -40 -60 -56.5t-73 -16.5q-69 0 -109 46.5t-40 127.5 q0 64 23 129t62 112q67 78 155 78q45 0 74 -18.5t48 -58.5l65 264h78z" glyph-name="d" horiz-adv-x="503" unicode="d"/>
<glyph d="M376 287q2 9 2 14.5v12.5q0 50 -23.5 76.5t-67.5 26.5q-48 0 -84.5 -33.5t-60.5 -96.5h234zM126 225q-3 -14 -4 -24.5t-1 -22.5q0 -57 27 -89t76 -32q42 0 70 20.5t52 70.5l75 -4q-60 -155 -207 -155q-83 0 -129.5 48.5t-46.5 135.5q0 64 23 126t63 107q70 78 168 78 q75 0 118.5 -45.5t43.5 -124.5q0 -49 -12 -89h-316z" glyph-name="e" horiz-adv-x="488" unicode="e"/>
<glyph d="M340 473l-16 -64h-112l-102 -409h-80l102 409h-64l16 64h64l9 37q13 50 22.5 76t23.5 45q37 52 109 52q23 0 43.5 -4.5t45.5 -15.5l-18 -72q-19 11 -34.5 16t-31.5 5q-17 0 -29 -5t-22 -17.5t-17.5 -34t-15.5 -53.5l-8 -29h115z" glyph-name="f" horiz-adv-x="293" unicode="f"/>
<glyph d="M170 17q-68 0 -106.5 -21.5t-38.5 -59.5q0 -35 36.5 -56t97.5 -21q62 0 100 24.5t38 63.5q0 70 -127 70zM271 422q-23 0 -43 -9t-35 -25t-23.5 -37.5t-8.5 -45.5q0 -35 22.5 -56t60.5 -21q22 0 41.5 9t34 24.5t22.5 36.5t8 46q0 36 -21.5 57t-57.5 21zM500 408h-99 q11 -17 15.5 -33.5t4.5 -37.5q0 -45 -21 -83t-58 -60q-23 -14 -49 -19t-74 -7q-41 -12 -63 -26.5t-22 -28.5q0 -11 11.5 -16.5t41.5 -9.5q48 -6 79 -13t49 -15q63 -30 63 -98q0 -36 -16 -66t-45 -51.5t-70 -33.5t-90 -12q-94 0 -149 35.5t-55 96.5q0 45 30 73.5t93 45.5 q-31 18 -31 45q0 28 27 48.5t89 40.5q-71 35 -71 117q0 39 14 72.5t39 58t59 38.5t74 14q23 0 41 -3.5t43 -14.5h154z" glyph-name="g" horiz-adv-x="475" unicode="g"/>
<glyph d="M259 670l-63 -251q58 64 137 64q57 0 91 -31t34 -84q0 -17 -3.5 -38t-13.5 -60l-67 -270h-78l67 271q7 28 10 45t3 30q0 29 -20.5 47t-54.5 18q-63 0 -103 -54q-14 -18 -23.5 -40t-18.5 -60l-64 -257h-78l167 670h78z" glyph-name="h" horiz-adv-x="500" unicode="h"/>
<glyph d="M219 677q20 0 32 -12t12 -32q0 -26 -18.5 -46t-44.5 -20q-20 0 -33 12t-13 30q0 27 19.5 47.5t45.5 20.5zM213 473l-118 -473h-81l118 473h81z" glyph-name="i" horiz-adv-x="223" unicode="i"/>
<glyph d="M248 677q20 0 32 -12t12 -32q0 -26 -18.5 -46t-44.5 -20q-20 0 -33 12t-13 30q0 27 19.5 47.5t45.5 20.5zM243 473l-107 -426q-9 -36 -16.5 -62t-15.5 -45t-16.5 -33t-19.5 -27q-29 -32 -69.5 -49.5t-88.5 -17.5l-22 1l18 71q34 0 57 7.5t40.5 27t30 53.5t25.5 87 l103 413h81z" glyph-name="j" horiz-adv-x="253" unicode="j"/>
<glyph d="M259 670l-167 -670h-78l167 670h78zM499 473l-250 -222l148 -251h-99l-141 253l241 220h101z" glyph-name="k" horiz-adv-x="460" unicode="k"/>
<glyph d="M262 670l-167 -670h-81l167 670h81z" glyph-name="l" horiz-adv-x="223" unicode="l"/>
<glyph d="M195 473q1 -6 1.5 -10.5t0.5 -6.5q0 -19 -7 -50q31 40 65.5 58.5t76.5 18.5q87 0 117 -83q62 83 149 83q53 0 86.5 -29.5t33.5 -75.5q0 -29 -16 -93l-71 -285h-78l70 279q5 21 8 40t3 31q0 28 -19.5 44.5t-51.5 16.5q-99 0 -132 -133l-70 -278h-77l70 281q7 27 9.5 42.5 t2.5 26.5q0 27 -19 44t-50 17q-102 0 -137 -137l-68 -274h-78l83 334q8 31 12.5 50t7 31.5t3 21t0.5 18.5v7.5t-1 10.5h76z" glyph-name="m" horiz-adv-x="757" unicode="m"/>
<glyph d="M195 473q1 -6 1 -10.5v-7.5q0 -11 -1.5 -23t-6.5 -29q60 80 149 80q56 0 89.5 -29.5t33.5 -78.5q0 -9 -1 -18.5t-3 -21.5t-5.5 -27.5t-8.5 -37.5l-68 -270h-78l66 263q8 34 11.5 52.5t3.5 32.5q0 30 -18.5 46.5t-53.5 16.5q-111 0 -153 -170l-60 -241h-78l78 311 q9 36 14.5 59t8 38t3.5 26t1 23v6.5t-1 9.5h77z" glyph-name="n" horiz-adv-x="501" unicode="n"/>
<glyph d="M291 417q-73 0 -122 -78q-23 -35 -36 -80.5t-13 -86.5q0 -54 26 -85t72 -31q70 0 119 76q23 36 36.5 81.5t13.5 86.5q0 55 -25.5 86t-70.5 31zM296 484q81 0 127 -49.5t46 -135.5q0 -63 -22.5 -124.5t-61.5 -106.5q-70 -79 -171 -79q-83 0 -129.5 49t-46.5 137 q0 66 25 130.5t69 109.5q66 69 164 69z" glyph-name="o" horiz-adv-x="503" unicode="o"/>
<glyph d="M302 418q-67 0 -115 -85q-10 -17 -18 -37.5t-14 -41.5t-9.5 -41.5t-3.5 -36.5q0 -53 23.5 -82.5t65.5 -29.5q60 0 106 71q24 37 38 84t14 91q0 49 -23.5 78.5t-63.5 29.5zM98 334q7 31 12 52.5t8 37t4.5 27t2.5 22.5h76q-1 -14 -4.5 -32t-6.5 -28q29 40 59 57t73 17 q69 0 109 -46.5t40 -127.5q0 -32 -6 -64.5t-16.5 -63.5t-26 -59.5t-34.5 -51.5q-65 -80 -155 -80q-45 0 -73 17.5t-50 59.5l-66 -264h-78z" glyph-name="p" horiz-adv-x="503" unicode="p"/>
<glyph d="M280 413q-67 0 -116 -82q-10 -17 -18.5 -38t-15 -43t-10 -44t-3.5 -40q0 -51 21.5 -78.5t60.5 -27.5q33 0 62.5 19t53.5 54q12 17 21.5 38.5t16.5 45t11 47t4 44.5q0 48 -23.5 76.5t-64.5 28.5zM251 -193l63 253q-32 -38 -63 -54t-72 -16q-67 0 -105.5 44.5t-38.5 122.5 q0 65 23 130.5t62 113.5q67 82 159 82q91 0 125 -80q5 20 11 37.5t15 32.5h71q-5 -11 -8.5 -22t-8 -26t-10 -35.5t-12.5 -48.5l-133 -534h-78z" glyph-name="q" horiz-adv-x="505" unicode="q"/>
<glyph d="M198 473v-9q-1 -21 -5 -45.5t-12 -45.5q38 58 73.5 84t76.5 26q12 0 24 -2.5t30 -8.5l-21 -83q-22 12 -34 16t-27 4q-51 0 -93.5 -53.5t-66.5 -149.5l-51 -206h-78l78 314l16 64t9 39.5t4 27t3 28.5h74z" glyph-name="r" horiz-adv-x="332" unicode="r"/>
<glyph d="M337 339q0 23 -2.5 33.5t-9.5 18.5q-22 28 -67 28q-38 0 -64 -20.5t-26 -51.5q0 -18 13 -31t46 -30q27 -13 44.5 -22t29.5 -16t19.5 -12t13.5 -10q39 -33 39 -81q0 -34 -14 -62.5t-39.5 -49.5t-60 -32.5t-76.5 -11.5q-78 0 -121 35.5t-43 99.5v13t2 16h78q-1 -8 -1 -11.5 v-8.5q0 -38 23 -58t66 -20q46 0 74.5 23t28.5 58q0 23 -13.5 37t-52.5 33q-47 23 -69 36t-34 24q-34 30 -34 76q0 30 13.5 56t36.5 45t55 30t70 11q71 0 111 -32.5t40 -89.5v-10t-1 -13h-75z" glyph-name="s" horiz-adv-x="438" unicode="s"/>
<glyph d="M338 473l-17 -64h-106l-59 -228q-8 -35 -12 -54t-4 -28q0 -37 42 -37q28 0 67 14l-18 -70q-24 -8 -42 -12t-38 -4q-45 0 -71 23.5t-26 61.5q0 9 1 17.5t3 19.5t6.5 28.5t12.5 44.5l60 224h-70l17 64h71l35 138h77l-36 -138h107z" glyph-name="t" horiz-adv-x="307" unicode="t"/>
<glyph d="M209 473l-71 -283q-4 -15 -7 -34.5t-3 -28.5q0 -31 20 -48t55 -17q102 0 140 150l65 261h78l-82 -329q-9 -37 -14 -58t-7.5 -33t-3 -19.5t-0.5 -17.5v-16h-75q-1 5 -1 8v5q0 11 1.5 22t4.5 27q-27 -38 -59 -55t-74 -17q-57 0 -92.5 32t-35.5 83q0 17 4 43t11 53l68 272 h78z" glyph-name="u" horiz-adv-x="496" unicode="u"/>
<glyph d="M150 473l23 -401l201 401h84l-260 -478h-86l-43 478h81z" glyph-name="v" horiz-adv-x="420" unicode="v"/>
<glyph d="M157 473v-386l195 386h76l7 -386l190 386h82l-253 -478h-82l-9 373l-186 -373h-86l-14 478h80z" glyph-name="w" horiz-adv-x="661" unicode="w"/>
<glyph d="M181 473l63 -164l140 164h93l-208 -229l109 -244h-91l-76 190l-168 -190h-94l237 253l-94 220h89z" glyph-name="x" horiz-adv-x="442" unicode="x"/>
<glyph d="M162 473l22 -411l225 411h84l-256 -443q-41 -70 -71 -111.5t-58 -64.5q-63 -53 -163 -53h-21l19 75q34 0 58.5 4t44 17t37.5 36t40 59l-42 481h81z" glyph-name="y" horiz-adv-x="442" unicode="y"/>
<glyph d="M427 473l-14 -57l-330 -349h262l-16 -67h-358l14 61l325 346h-231l16 66h332z" glyph-name="z" horiz-adv-x="408" unicode="z"/>
<glyph d="M208 359q-8 -29 -15.5 -49t-17 -33.5t-22.5 -22.5t-32 -18q20 -15 27.5 -28.5t7.5 -32.5q0 -11 -2.5 -28.5t-6.5 -32.5l-39 -155q-9 -38 -9 -58q0 -22 18 -31t61 -9l-15 -60h-19q-62 0 -90 19.5t-28 62.5q0 16 2.5 31t9.5 45l39 157q3 11 5 24.5t2 21.5q0 37 -39 48 l13 53q33 8 51 28.5t29 65.5l39 157q11 45 25.5 75.5t36 49t51 26t71.5 7.5h19l-15 -60q-30 0 -49 -3.5t-32 -14t-21.5 -30t-15.5 -50.5z" glyph-name="braceleft" horiz-adv-x="286" unicode="{"/>
<glyph d="M302 667v-834h-84v834h84z" glyph-name="bar" horiz-adv-x="500" unicode="|"/>
<glyph d="M83 114q8 29 15.5 48.5t17 33t22.5 23t32 17.5q-20 16 -27.5 29.5t-7.5 31.5q0 11 2.5 29t6.5 33l39 155q9 39 9 57q0 23 -17.5 32t-61.5 9l15 60h10h9q62 0 90 -19.5t28 -62.5q0 -16 -2.5 -31t-9.5 -45l-40 -157q-2 -10 -4 -24t-2 -22q0 -38 39 -48l-13 -53 q-33 -8 -51 -29t-29 -65l-39 -157q-11 -47 -26.5 -78t-39 -49t-57 -25t-80.5 -6l15 60q30 0 49 3.5t32 14t21 30t16 50.5z" glyph-name="braceright" horiz-adv-x="286" unicode="}"/>
<glyph d="M102 243q13 26 20.5 39.5t16.5 25.5q40 55 103 55q20 0 45 -7.5t65 -25.5q22 -9 36 -15t24.5 -9.5t18 -4.5t16.5 -1q28 0 46.5 14t40.5 51l50 -30q-17 -33 -29.5 -51t-29.5 -32q-39 -33 -89 -33q-10 0 -20.5 2t-26 7t-37.5 14t-56 24q-36 16 -61 16q-26 0 -45 -16 t-40 -55z" glyph-name="asciitilde" horiz-adv-x="667" unicode="~"/>
<glyph glyph-name="uni00A0" horiz-adv-x="250" unicode=" "/>
<glyph d="M369 526q-35 0 -64.5 -12.5t-52 -34.5t-35 -52t-12.5 -64t13 -63.5t35 -51.5t51.5 -35t62.5 -13t62.5 13t51.5 35t35 51.5t13 63.5q0 33 -12.5 63t-34.5 52t-51 35t-62 13zM178 222q-49 65 -49 141q0 38 11.5 71t37.5 69l-97 97l46 46l97 -96q37 27 70.5 38.5t72.5 11.5 q40 0 73 -11.5t69 -38.5l97 96l45 -46l-96 -96q27 -37 38.5 -70t11.5 -72q0 -38 -11 -71t-37 -69l96 -96l-46 -47l-96 97q-68 -50 -142 -50q-38 0 -72 11.5t-73 37.5l-95 -95l-46 45z" glyph-name="currency" horiz-adv-x="667" unicode="¤"/>
<glyph d="M302 153v-320h-84v320h84zM302 667v-336h-84v336h84z" glyph-name="brokenbar" horiz-adv-x="500" unicode="¦"/>
<glyph d="M236 371q-88 -42 -88 -97q0 -11 2.5 -19.5t9 -17t18 -18.5t29.5 -23q21 -16 34.5 -25.5t27.5 -18.5q89 43 89 104q0 9 -2 16.5t-8 15t-16.5 16t-26.5 20.5q-24 17 -38.5 26.5t-30.5 20.5zM411 498q1 6 1 12v9q0 83 -85 83q-44 0 -73 -26t-29 -65q0 -33 36 -62 q6 -5 10.5 -8.5t12.5 -9t22 -15t39 -26.5q51 -35 70.5 -60.5t19.5 -56.5q0 -48 -31 -87t-91 -67q23 -23 33 -45t10 -52q0 -39 -14.5 -72t-40 -57.5t-61 -38t-76.5 -13.5q-77 0 -118 38t-41 109v12.5t1 16.5h71v-20q0 -42 24.5 -65.5t66.5 -23.5q47 0 78 29t31 73q0 14 -3 25 t-12 22t-25 24t-41 31q-39 27 -63.5 46.5t-38 35.5t-18.5 30.5t-5 32.5q0 46 29 81t94 67q-47 41 -47 98q0 35 14 65.5t39 53t59 35t73 12.5q71 0 110.5 -36t39.5 -101v-14.5t-1 -19.5h-70z" glyph-name="section" horiz-adv-x="500" unicode="§"/>
<glyph d="M428 636q-63 0 -118 -23.5t-95.5 -64.5t-63.5 -96t-23 -119q0 -62 23.5 -117t63.5 -96t94 -64.5t115 -23.5t115 23.5t94.5 64.5t63.5 96t23 118q0 62 -23.5 117t-63 96t-92.5 65t-113 24zM428 680q70 0 132 -27.5t108.5 -74.5t73.5 -110t27 -134t-27 -134t-74 -110 t-110 -74t-134 -27t-134 27t-110 74t-74 110t-27 134q0 72 27 135.5t74.5 110t111 73.5t136.5 27zM528 420q-16 75 -90 75q-53 0 -84 -42t-31 -114t31 -114t85 -42q85 0 94 99h56q-5 -72 -44 -111t-105 -39q-41 0 -74 14.5t-56.5 41.5t-36.5 65t-13 85t12.5 85.5t36 65.5 t56 42t73.5 15q63 0 100.5 -33t44.5 -93h-55z" glyph-name="copyright" horiz-adv-x="794" unicode="©"/>
<glyph d="M318 390l-126 -155l52 -163h62l-40 160l117 158h-65zM168 390l-126 -155l53 -163h61l-39 160l116 158h-65z" glyph-name="guillemotleft" horiz-adv-x="391" unicode="«"/>
<glyph d="M392 188h-349v78h433v-266h-84v188z" glyph-name="logicalnot" horiz-adv-x="500" unicode="¬"/>
<glyph d="M277 283l-16 -62h-263l15 62h264z" glyph-name="uni00AD" horiz-adv-x="263" unicode="­"/>
<glyph d="M428 636q-63 0 -118 -23.5t-95.5 -64.5t-63.5 -96t-23 -119q0 -62 23.5 -117t63.5 -96t94 -64.5t115 -23.5t115 23.5t94.5 64.5t63.5 96t23 118q0 62 -23.5 117t-63 96t-92.5 65t-113 24zM428 680q70 0 132 -27.5t108.5 -74.5t73.5 -110t27 -134t-27 -134t-74 -110 t-109.5 -74t-134.5 -27q-71 0 -134 27t-110 74t-74 110t-27 134q0 72 27 135.5t74.5 110t111 73.5t136.5 27zM387 347h31t20.5 1t15 2.5t13.5 3.5q20 7 31.5 23t11.5 39q0 41 -35 57q-7 3 -13.5 5t-16.5 2.5t-24 1t-36 0.5h-24v-135h26zM384 532q24 0 42 -0.5t31.5 -2 t24.5 -4.5t22 -7q32 -12 50 -39.5t18 -62.5q0 -79 -82 -109l108 -175h-71l-102 165h-64v-165h-60v400h83z" glyph-name="registered" horiz-adv-x="794" unicode="®"/>
<glyph d="M328 629q-19 0 -35.5 -7t-29 -19t-19.5 -28t-7 -34q0 -38 26.5 -64.5t64.5 -26.5q37 0 63.5 26t26.5 63q0 38 -26.5 64t-63.5 26zM328 680q30 0 56 -11t45.5 -30t30.5 -44.5t11 -54.5t-11 -55t-30.5 -45t-45.5 -30t-56 -11t-56.5 11t-46 30.5t-30.5 45t-11 55.5 q0 28 11.5 53.5t31 44.5t45.5 30t56 11z" glyph-name="degree" horiz-adv-x="500" unicode="°"/>
<glyph d="M475 85v-62h-437v62h437zM475 374v-60h-187v-176h-63v176h-187v60h187v194h63v-194h187z" glyph-name="plusminus" unicode="±"/>
<glyph d="M52 480h84v-268q0 -26 2 -45.5t6 -34t11 -26t18 -21.5q35 -33 84 -33q58 0 92 45q19 24 26.5 51t7.5 71v261h84v-480h-84v80q-23 -49 -53 -70.5t-75 -21.5q-39 0 -67.5 16.5t-51.5 54.5v-228h-84v649z" glyph-name="mu" horiz-adv-x="500" unicode="µ"/>
<glyph d="M208 316q-32 2 -51 5t-39 11q-33 14 -51.5 43.5t-18.5 69.5q0 60 31.5 112t84.5 79q29 15 72.5 23t94.5 8h269l-16 -64h-62l-174 -700h-71l174 700h-101l-174 -700h-71z" glyph-name="paragraph" unicode="¶"/>
<glyph d="M141 305q22 0 36 -14.5t14 -36.5q0 -29 -21 -51t-50 -22q-22 0 -37 14t-15 35q0 15 6 28.5t16 24t23 16.5t28 6z" glyph-name="periodcentered" horiz-adv-x="251" unicode="·"/>
<glyph d="M79 394l40 -164l-115 -160h65l125 158l-53 166h-62zM229 394l40 -164l-115 -160h65l125 158l-54 166h-61z" glyph-name="guillemotright" horiz-adv-x="391" unicode="»"/>
<glyph d="M33 423h106l25 173q8 58 37 89q27 29 70.5 38t103.5 1v-76q-61 5 -87.5 -8t-32.5 -56l-23 -161h118v-70h-128l-54 -385q-9 -63 -40 -94q-23 -23 -58.5 -29t-84.5 0v74q37 -3 60 6.5t29 49.5l55 378h-96v70z" glyph-name="florin" horiz-adv-x="396" unicode="ƒ"/>
<glyph d="M315 855q22 0 35.5 -13t13.5 -34q0 -28 -19.5 -48t-47.5 -20q-22 0 -36 13.5t-14 35.5q0 26 20.5 46t47.5 20zM513 855q22 0 35.5 -13t13.5 -35q0 -27 -19.5 -47t-47.5 -20q-22 0 -36 13.5t-14 35.5q0 26 20.5 46t47.5 20zM470 382l-18 -74h-264l-59 -234h298l-18 -74 h-381l166 667h363l-18 -74h-280l-53 -211h264z" glyph-name="uni0401" horiz-adv-x="505" unicode="Ё"/>
<glyph d="M284 408q29 17 74.5 27.5t93.5 10.5q77 0 120.5 -35t43.5 -95q0 -9 -0.5 -16.5t-2 -16t-4 -19t-6.5 -26.5l-59 -237q-23 -89 -77 -136t-135 -47h-11.5t-13.5 1l17 70q57 -1 88 25t48 86l55 225q5 22 8.5 42t3.5 33q0 72 -94 72q-61 0 -101.5 -13.5t-70.5 -44.5l-79 -314 h-84l148 593h-159l21 74h430l-21 -74h-187z" glyph-name="uni0402" horiz-adv-x="558" unicode="Ђ"/>
<glyph d="M608 855l-196 -118h-78l136 118h138zM558 667l-18 -74h-279l-148 -593h-85l166 667h364z" glyph-name="uni0403" horiz-adv-x="471" unicode="Ѓ"/>
<glyph d="M523 476q0 130 -121 130q-76 0 -137 -62.5t-93 -174.5h236l-17 -71h-234q-3 -17 -4 -31t-1 -29q0 -85 38 -131t107 -46q66 0 116.5 44.5t73.5 125.5l81 -15q-11 -38 -24 -65.5t-29 -49.5q-84 -114 -221 -114q-112 0 -171 65t-59 187q0 51 10 101t28 96t44 87t59 73 q84 84 204 84q101 0 155 -62q9 -11 15.5 -23.5t11 -27.5t7.5 -34t5 -44z" glyph-name="uni0404" horiz-adv-x="612" unicode="Є"/>
<glyph d="M446 490q1 5 1 10v8q0 48 -28 73t-80 25q-55 0 -90 -28t-35 -73q0 -32 22 -56.5t81 -57.5q45 -25 75 -46.5t47.5 -43.5t25 -45.5t7.5 -53.5q0 -45 -18 -86.5t-51 -73.5q-28 -26 -70.5 -40.5t-92.5 -14.5q-97 0 -152 47t-55 130q0 11 1 20t3 25h81q-2 -13 -2 -20v-15 q0 -54 33 -83.5t94 -29.5t100 34.5t39 89.5q0 20 -5 35.5t-18 30t-36 31t-59 37.5q-39 22 -65 42t-41.5 40t-22.5 42.5t-7 49.5q0 41 16 75.5t44.5 59t68 38.5t86.5 14q86 0 136 -42.5t50 -114.5v-13t-1 -20h-82z" glyph-name="uni0405" horiz-adv-x="530" unicode="Ѕ"/>
<glyph d="M28 0l166 667h85l-167 -667h-84z" glyph-name="uni0406" horiz-adv-x="253" unicode="І"/>
<glyph d="M198 858q22 0 35 -13t13 -36q0 -27 -20 -47t-47 -20q-22 0 -36 13.5t-14 34.5q0 28 20 48t49 20zM363 858q22 0 35 -13t13 -36q0 -27 -20 -47t-47 -20q-22 0 -36 13.5t-14 35.5q0 27 20.5 47t48.5 20zM28 0l166 667h85l-167 -667h-84z" glyph-name="uni0407" horiz-adv-x="253" unicode="Ї"/>
<glyph d="M-66 -23q5 -1 11 -1q34 -2 63 8.5t45 30.5q7 9 12.5 19.5t11.5 27t12.5 40.5t15.5 60l126 505h84l-132 -532q-10 -38 -17.5 -64.5t-14.5 -45t-14.5 -31.5t-17.5 -25q-27 -32 -71.5 -49t-101.5 -17h-13t-17 1z" glyph-name="uni0408" horiz-adv-x="288" unicode="Ј"/>
<glyph d="M531 74q56 0 87.5 5t53.5 18q32 19 51 54t19 77q0 54 -31 75.5t-108 21.5h-70l-63 -251h61zM517 596h-198l-137 -406q-21 -62 -27 -78q-23 -57 -71.5 -85t-126.5 -30l18 71q26 1 45 7.5t34 22t27.5 42.5t25.5 68l150 459h360l-66 -268h44q60 0 99 -6t64 -20 q34 -20 52 -55.5t18 -83.5q0 -63 -29 -116.5t-80 -82.5q-17 -10 -36 -16.5t-42.5 -10.5t-53.5 -6t-69 -2h-151z" glyph-name="uni0409" horiz-adv-x="867" unicode="Љ"/>
<glyph d="M568 74q56 0 87.5 5t54.5 19q31 17 49 51.5t18 75.5q0 52 -31 73.5t-108 21.5h-70l-61 -246h61zM570 667h84l-69 -276h44q60 0 99.5 -6t64.5 -20q70 -40 70 -137q0 -61 -28.5 -112.5t-78.5 -80.5q-17 -10 -36 -16.5t-42.5 -10.5t-53.5 -6t-70 -2h-150l79 320h-293 l-79 -320h-83l166 667h83l-69 -276h293z" glyph-name="uni040A" horiz-adv-x="902" unicode="Њ"/>
<glyph d="M515 225q5 22 8.5 42t3.5 33q0 72 -94 72q-61 0 -101.5 -13.5t-70.5 -44.5l-79 -314h-84l148 593h-159l21 74h430l-21 -74h-187l-46 -185q29 17 74.5 27.5t93.5 10.5q77 0 120.5 -35t43.5 -95q0 -9 -0.5 -16.5t-2 -16t-4 -19t-6.5 -26.5l-59 -238h-84z" glyph-name="uni040B" horiz-adv-x="717" unicode="Ћ"/>
<glyph d="M631 855l-196 -118h-78l136 118h138zM277 667l-166 -667h-83l166 667h83zM633 667l-337 -322l192 -345h-104l-184 350l330 317h103z" glyph-name="uni040C" horiz-adv-x="577" unicode="Ќ"/>
<glyph d="M302 859v-8q0 -25 20.5 -39t56.5 -14q38 0 63 13.5t46 47.5h41q-17 -62 -57 -94t-99 -32q-53 0 -83.5 28t-30.5 77v9t1 12h42zM506 667h98l-463 -667h-85l152 217l-97 450h90l67 -366z" glyph-name="uni040E" horiz-adv-x="493" unicode="Ў"/>
<glyph d="M423 71l149 596h82l-166 -667h-189l-25 -101h-82l25 101h-189l166 667h83l-149 -596h295z" glyph-name="uni040F" horiz-adv-x="629" unicode="Џ"/>
<glyph d="M376 378q-1 19 -1.5 34.5t-1 36.5t-1.5 51.5t-2 77.5q-35 -72 -60 -120.5t-44 -81.5l-78 -135h196zM431 670l52 -670h-86l-10 169h-238l-96 -169h-90l389 670h79z" glyph-name="uni0410" horiz-adv-x="559" unicode="А"/>
<glyph d="M194 74q56 0 88 5t53 18q32 19 51 54t19 77q0 54 -31 75.5t-108 21.5h-72l-63 -251h63zM212 399h46q60 0 99.5 -6t63.5 -20q34 -20 52 -55.5t18 -83.5q0 -63 -29 -116.5t-80 -82.5q-17 -10 -36 -16.5t-42.5 -10.5t-53.5 -6t-69 -2h-153l166 667h343l-18 -74h-259z" glyph-name="uni0411" horiz-adv-x="532" unicode="Б"/>
<glyph d="M193 72q31 0 53.5 1t39.5 4t30.5 8t25.5 12q32 18 51 52.5t19 72.5q0 26 -8 44t-26 29t-47.5 16t-72.5 5h-69l-61 -244h65zM270 386q46 0 75 5t50 17q29 17 46.5 47t17.5 64q0 43 -31 60q-15 9 -40 12.5t-75 3.5h-55l-52 -209h64zM318 667q68 0 107 -6.5t65 -22.5t40 -44 t14 -65q0 -66 -38.5 -112t-110.5 -66q56 -18 80.5 -48.5t24.5 -81.5q0 -56 -28.5 -105.5t-76.5 -76.5q-20 -11 -41 -18.5t-48 -12t-61.5 -6.5t-79.5 -2h-137l166 667h124z" glyph-name="uni0412" horiz-adv-x="552" unicode="В"/>
<glyph d="M558 667l-18 -74h-279l-148 -593h-85l166 667h364z" glyph-name="uni0413" horiz-adv-x="471" unicode="Г"/>
<glyph d="M321 596l-136 -404q-11 -32 -18.5 -52.5t-14 -34t-12 -21t-11.5 -13.5h259l131 525h-198zM471 71h69l-42 -172h-83l25 101h-407l-25 -101h-83l43 172h12q25 0 43.5 6t33.5 22t27.5 43t26.5 68l148 457h360z" glyph-name="uni0414" horiz-adv-x="602" unicode="Д"/>
<glyph d="M470 382l-18 -74h-264l-59 -234h298l-18 -74h-381l166 667h363l-18 -74h-280l-53 -211h264z" glyph-name="uni0415" horiz-adv-x="505" unicode="Е"/>
<glyph d="M510 313h-51l-78 -313h-83l78 313h-48l-299 -313h-97l339 353l-161 314h94l137 -283h53l70 283h83l-70 -283h47l271 283h99l-311 -319l174 -348h-95z" glyph-name="uni0416" horiz-adv-x="788" unicode="Ж"/>
<glyph d="M115 488q7 21 13.5 36.5t15 29t18 25.5t22.5 24q79 77 196 77q91 0 142 -47t51 -129q0 -68 -37 -114.5t-103 -58.5q42 -22 60.5 -52.5t18.5 -75.5q0 -47 -18.5 -89t-51.5 -71q-65 -56 -168 -56q-69 0 -114.5 20.5t-72.5 63.5q-20 32 -28.5 64t-9.5 82l86 14q-1 -8 -1 -12 v-9q0 -36 12 -67.5t32 -51.5q33 -30 95 -30q33 0 60.5 10.5t48 29t31.5 44t11 56.5q0 97 -120 97h-48l18 71h54h1q32 -4 60.5 4.5t49.5 26.5t33.5 44t12.5 57q0 51 -29 78t-83 27q-121 0 -178 -130z" glyph-name="uni0417" horiz-adv-x="578" unicode="З"/>
<glyph d="M194 667h81l-120 -484l413 442l12 42h89l-166 -667h-81l121 485l-416 -446l-11 -39h-88z" glyph-name="uni0418" horiz-adv-x="643" unicode="И"/>
<glyph d="M383 859v-8q0 -25 20.5 -39t56.5 -14q38 0 63 13.5t46 47.5h41q-17 -62 -57 -94t-99 -32q-53 0 -83.5 28t-30.5 77v9t1 12h42zM194 667h81l-120 -484l413 442l12 42h89l-166 -667h-81l121 485l-416 -446l-11 -39h-88z" glyph-name="uni0419" horiz-adv-x="643" unicode="Й"/>
<glyph d="M277 667l-166 -667h-83l166 667h83zM633 667l-337 -322l192 -345h-104l-184 350l330 317h103z" glyph-name="uni041A" horiz-adv-x="577" unicode="К"/>
<glyph d="M451 0h-83l149 596h-198l-137 -406q-21 -62 -27 -78q-23 -58 -71.5 -85.5t-126.5 -29.5l18 71q26 1 45 7.5t34 22t27.5 42.5t25.5 68l150 459h360z" glyph-name="uni041B" horiz-adv-x="593" unicode="Л"/>
<glyph d="M319 667l39 -580l325 580h129l-166 -667h-78l149 590l-333 -590h-90l-43 590l-145 -590h-78l166 667h125z" glyph-name="uni041C" horiz-adv-x="786" unicode="М"/>
<glyph d="M501 384l71 283h82l-166 -667h-83l78 313h-294l-78 -313h-83l166 667h83l-70 -283h294z" glyph-name="uni041D" horiz-adv-x="629" unicode="Н"/>
<glyph d="M404 606q-113 0 -186 -128q-32 -57 -49.5 -121.5t-17.5 -127.5q0 -78 37 -123t101 -45q54 0 101 33.5t83 96.5q31 54 49 118.5t18 120.5q0 84 -35.5 130t-100.5 46zM412 680q103 0 159.5 -66t56.5 -184q0 -51 -10 -101t-28 -96.5t-44.5 -87.5t-59.5 -73q-84 -85 -204 -85 q-103 0 -161 64.5t-58 179.5q0 72 19 144t55 133q99 172 275 172z" glyph-name="uni041E" horiz-adv-x="639" unicode="О"/>
<glyph d="M111 0h-83l166 667h460l-166 -667h-83l149 596h-295z" glyph-name="uni041F" horiz-adv-x="629" unicode="П"/>
<glyph d="M263 341q56 0 87.5 5t53.5 18q32 19 51 54t19 77q0 55 -31 76.5t-108 21.5h-76l-63 -252h67zM327 667q60 0 99 -6t64 -20q70 -40 70 -140q0 -63 -29 -116.5t-80 -82.5q-17 -10 -36 -16.5t-42 -10.5t-53 -6t-70 -2h-70l-67 -267h-85l166 667h133z" glyph-name="uni0420" horiz-adv-x="521" unicode="Р"/>
<glyph d="M522 476q0 63 -30 96.5t-89 33.5q-114 0 -187 -130q-31 -56 -47.5 -118t-16.5 -122q0 -83 38 -129t107 -46q66 0 116.5 44.5t73.5 125.5h83q-31 -119 -102 -181.5t-176 -62.5q-110 0 -169 66t-59 187q0 50 10 100t28 96t44 87t59 73q84 84 204 84q91 0 142.5 -49.5 t51.5 -137.5v-17h-81z" glyph-name="uni0421" horiz-adv-x="611" unicode="С"/>
<glyph d="M553 667l-21 -74h-171l-147 -593h-83l148 593h-177l21 74h430z" glyph-name="uni0422" horiz-adv-x="457" unicode="Т"/>
<glyph d="M506 667h98l-463 -667h-85l152 217l-97 450h90l67 -366z" glyph-name="uni0423" horiz-adv-x="493" unicode="У"/>
<glyph d="M397 543q-38 -1 -64 -5.5t-48 -14.5q-66 -29 -103 -90t-37 -139q0 -69 38 -112.5t110 -54.5zM374 124q43 1 76.5 9.5t62.5 27.5q52 32 82.5 89t30.5 123q0 72 -38.5 114.5t-110.5 51.5zM494 609q107 -18 161.5 -76.5t54.5 -155.5q0 -55 -15.5 -104t-44.5 -89t-70 -69 t-91 -44q-29 -9 -61.5 -13t-71.5 -4l-13 -54h-81l14 59q-71 7 -128 48q-88 63 -88 193q0 49 13.5 93t38.5 81.5t61 66t81 46.5q32 13 73.5 19.5t86.5 6.5l14 54h81z" glyph-name="uni0424" horiz-adv-x="715" unicode="Ф"/>
<glyph d="M237 667l77 -254l206 254h100l-279 -326l122 -341h-93l-87 276l-224 -276h-97l293 347l-112 320h94z" glyph-name="uni0425" horiz-adv-x="537" unicode="Х"/>
<glyph d="M575 71l-43 -172h-82l25 101h-447l166 667h83l-149 -596h295l149 596h82l-148 -596h69z" glyph-name="uni0426" horiz-adv-x="636" unicode="Ц"/>
<glyph d="M385 259q-32 -18 -76.5 -28t-91.5 -10q-77 0 -120.5 35t-43.5 96q0 9 0.5 16.5t2 15.5t4 18.5t6.5 26.5l59 238h84l-55 -225q-5 -22 -8.5 -42t-3.5 -33q0 -72 94 -72q61 0 100.5 13t71.5 45l79 314h84l-166 -667h-85z" glyph-name="uni0427" horiz-adv-x="562" unicode="Ч"/>
<glyph d="M835 667h83l-166 -667h-724l166 667h83l-149 -596h238l149 596h82l-148 -596h238z" glyph-name="uni0428" horiz-adv-x="892" unicode="Ш"/>
<glyph d="M839 70l-43 -171h-83l25 101h-710l166 667h83l-149 -597h238l149 597h82l-148 -597h238l148 597h83l-149 -597h70z" glyph-name="uni0429" horiz-adv-x="900" unicode="Щ"/>
<glyph d="M275 74q56 0 87.5 5t53.5 18q32 19 51 54t19 77q0 54 -31 75.5t-108 21.5h-70l-63 -251h61zM362 667l-67 -268h44q60 0 99.5 -6t63.5 -20q34 -20 52 -55.5t18 -83.5q0 -63 -29 -116.5t-80 -82.5q-17 -10 -36 -16.5t-42.5 -10.5t-53.5 -6t-69 -2h-151l148 593h-176l18 74 h261z" glyph-name="uni042A" horiz-adv-x="611" unicode="Ъ"/>
<glyph d="M192 74q56 0 87.5 5t53.5 18q32 19 51 54t19 77q0 54 -31 75.5t-108 21.5h-70l-63 -251h61zM194 667h84l-66 -268h44q60 0 99 -6t64 -20q34 -20 52 -55.5t18 -83.5q0 -63 -29 -116.5t-80 -82.5q-17 -10 -36 -16.5t-42.5 -10.5t-53.5 -6t-69 -2h-151zM526 0l166 667h84 l-166 -667h-84z" glyph-name="uni042B" horiz-adv-x="751" unicode="Ы"/>
<glyph d="M192 74q56 0 87.5 5t53.5 18q32 19 51 54t19 77q0 54 -31 75.5t-108 21.5h-70l-63 -251h61zM194 667h84l-66 -268h44q60 0 99 -6t64 -20q34 -20 52 -55.5t18 -83.5q0 -63 -29 -116.5t-80 -82.5q-17 -10 -36 -16.5t-42.5 -10.5t-53.5 -6t-69 -2h-151z" glyph-name="uni042C" unicode="Ь"/>
<glyph d="M132 225q-1 -6 -1 -11.5v-7.5q0 -68 35.5 -106.5t97.5 -38.5q76 0 137 62.5t93 174.5h-241l18 71h238q2 15 3.5 29t1.5 28q0 87 -38 133.5t-109 46.5q-58 0 -103.5 -33.5t-71.5 -96.5l-80 13q7 21 14.5 37.5t16 30t19 25.5t23.5 25q79 73 187 73q54 0 99 -18t74 -50 q26 -29 41.5 -78.5t15.5 -106.5q0 -102 -37.5 -196.5t-103.5 -160.5q-84 -83 -205 -83q-50 0 -89.5 15.5t-65.5 46.5q-26 29 -40 68t-14 81v17z" glyph-name="uni042D" horiz-adv-x="613" unicode="Э"/>
<glyph d="M635 606q-55 0 -102 -33t-83 -96q-32 -57 -49.5 -121.5t-17.5 -126.5q0 -78 37 -123t100 -45q54 0 101.5 33.5t82.5 96.5q31 54 49 118.5t18 118.5q0 85 -35.5 131.5t-100.5 46.5zM317 384q41 141 124.5 218.5t195.5 77.5q107 0 164.5 -64.5t57.5 -185.5 q0 -103 -37.5 -198t-103.5 -161q-85 -84 -204 -84q-103 0 -161 65t-58 181q0 22 1.5 39.5t4.5 40.5h-112l-78 -313h-83l166 667h83l-70 -283h110z" glyph-name="uni042E" horiz-adv-x="870" unicode="Ю"/>
<glyph d="M431 593q-56 0 -87.5 -5t-53.5 -18q-32 -20 -51 -55t-19 -77q0 -54 31 -75.5t108 -21.5h72l63 252h-63zM218 286q-41 18 -62.5 55t-21.5 90q0 64 29 117.5t80 83.5q17 10 36 16.5t42 10.5t53 6t70 2h153l-167 -667h-84l67 267h-46q-20 0 -37.5 0.5t-28.5 1.5l-213 -269 h-100z" glyph-name="uni042F" horiz-adv-x="572" unicode="Я"/>
<glyph d="M333 250q-63 -11 -103.5 -22t-64.5 -23q-63 -32 -63 -86q0 -29 19 -45.5t53 -16.5q65 0 106 52q13 17 23.5 40.5t18.5 58.5zM91 348q43 135 194 135q69 0 109 -28t40 -76q0 -13 -3 -33t-8 -41l-46 -184q-18 -72 -18 -121h-74q0 23 1 34.5t4 27.5q-28 -37 -61.5 -54 t-77.5 -17q-60 0 -95.5 32t-35.5 86q0 93 98 137q15 7 31.5 13t38.5 12t52 12.5t74 15.5q8 2 14 3t8 1l11 3l3 15q3 12 5 23.5t2 19.5q0 25 -21 38.5t-59 13.5q-42 0 -68.5 -16.5t-40.5 -51.5h-77z" glyph-name="uni0430" horiz-adv-x="474" unicode="а"/>
<glyph d="M295 418q-78 0 -127 -86q-21 -37 -32.5 -79.5t-11.5 -82.5q0 -53 26.5 -83.5t71.5 -30.5q75 0 125 87q20 35 32 77t12 78q0 57 -25 88.5t-71 31.5zM516 614q-14 -7 -25 -9.5t-25 -2.5q-12 0 -21.5 1t-32.5 5q-11 2 -22 3t-21 1q-56 0 -100 -44t-89 -144q30 32 63 46.5 t73 14.5q73 0 115 -49.5t42 -135.5q0 -71 -26.5 -136.5t-74.5 -112.5q-62 -62 -154 -62q-81 0 -128.5 48.5t-47.5 131.5q0 39 7 83t20.5 89.5t32.5 91.5t43 89q43 78 100 118.5t123 40.5q9 0 16 -0.5t16 -1t21.5 -2t30.5 -4.5q16 -3 32 -3q14 0 24.5 2.5t24.5 10.5z" glyph-name="uni0431" horiz-adv-x="507" unicode="б"/>
<glyph d="M193 64q29 0 43 2.5t29 9.5q17 9 28 29t11 43q0 34 -20 49t-66 15h-73l-37 -148h85zM224 276q31 0 48 3t30 11q16 9 25.5 26.5t9.5 37.5q0 31 -19 43t-69 12h-55l-33 -133h63zM291 473q61 0 94 -28.5t33 -81.5q0 -48 -26 -79.5t-74 -41.5q66 -28 66 -99q0 -29 -12 -56 t-34 -47q-20 -19 -55.5 -29.5t-79.5 -10.5h-13h-176l118 473h159z" glyph-name="uni0432" horiz-adv-x="444" unicode="в"/>
<glyph d="M94 0h-80l118 473h271l-16 -64h-191z" glyph-name="uni0433" horiz-adv-x="351" unicode="г"/>
<glyph d="M244 409l-85 -260q-14 -41 -23 -58.5t-21 -26.5h193l86 345h-150zM386 64h58l-41 -165h-78l25 101h-320l-25 -101h-78l41 165h17q5 0 13.5 1t13.5 3q26 9 43.5 33t33.5 74l94 298h305z" glyph-name="uni0434" horiz-adv-x="501" unicode="д"/>
<glyph d="M376 287q1 10 1.5 15.5t0.5 12.5q0 49 -24 75.5t-68 26.5q-47 0 -83.5 -33.5t-60.5 -96.5h234zM126 225q-3 -15 -4 -25.5t-1 -22.5q0 -57 27.5 -88.5t76.5 -31.5q41 0 69.5 21.5t51.5 69.5l75 -4q-59 -155 -205 -155q-85 0 -131.5 48.5t-46.5 137.5q0 70 26.5 135.5 t74.5 111.5q65 62 154 62q76 0 118.5 -46t42.5 -130q0 -22 -2.5 -41t-9.5 -42h-316z" glyph-name="uni0435" horiz-adv-x="488" unicode="е"/>
<glyph d="M335 218l-54 -218h-78l55 218h-34l-193 -218h-96l240 258l-111 215h87l90 -191h33l47 191h78l-48 -191h31l177 191h95l-219 -225l123 -248h-89l-100 218h-34z" glyph-name="uni0436" horiz-adv-x="601" unicode="ж"/>
<glyph d="M196 269h30q28 0 45.5 3t30.5 11q17 11 27 28.5t10 37.5q0 32 -21.5 50.5t-59.5 18.5q-89 0 -118 -100l-75 13q14 42 27 64t33 41q54 49 138 49q73 0 115.5 -35t42.5 -95q0 -49 -30 -80.5t-84 -39.5q74 -21 74 -96q0 -30 -12.5 -58t-35.5 -49q-22 -20 -58.5 -31.5 t-78.5 -11.5q-80 0 -123 39.5t-43 113.5v9l76 12q0 -57 21.5 -82t69.5 -25q45 0 73.5 24.5t28.5 62.5q0 62 -83 62h-37z" glyph-name="uni0437" horiz-adv-x="436" unicode="з"/>
<glyph d="M495 473l-118 -473h-78l75 302l-271 -263l-11 -39h-78l118 473h78l-76 -303l273 263l10 40h78z" glyph-name="uni0438" horiz-adv-x="505" unicode="и"/>
<glyph d="M284 680l1 -8q3 -36 17.5 -51t46.5 -15q33 0 53.5 16.5t40.5 57.5h41q-16 -65 -52 -99t-90 -34q-48 0 -74.5 29.5t-26.5 80.5v10t1 13h42zM495 473l-118 -473h-78l75 302l-271 -263l-11 -39h-78l118 473h78l-76 -303l273 263l10 40h78z" glyph-name="uni0439" horiz-adv-x="505" unicode="й"/>
<glyph d="M92 0h-78l118 473h78zM499 473l-250 -222l148 -251h-99l-141 253l241 220h101z" glyph-name="uni043A" horiz-adv-x="460" unicode="к"/>
<glyph d="M155 164q-14 -46 -31 -77.5t-40 -51t-54 -28.5t-73 -9l16 65q42 2 65.5 26.5t41.5 86.5l94 297h305l-118 -473h-77l102 409h-151z" glyph-name="uni043B" horiz-adv-x="490" unicode="л"/>
<glyph d="M275 86l228 387h112l-118 -473h-77l94 374l-220 -374h-76l-34 374l-93 -374h-77l118 473h108z" glyph-name="uni043C" horiz-adv-x="625" unicode="м"/>
<glyph d="M146 219l-54 -219h-78l118 473h78l-48 -190h205l47 190h78l-118 -473h-78l55 219h-205z" glyph-name="uni043D" horiz-adv-x="502" unicode="н"/>
<glyph d="M290 418q-79 0 -127 -86q-21 -37 -32.5 -79.5t-11.5 -82.5q0 -53 26.5 -83.5t71.5 -30.5q75 0 125 87q20 35 32 77t12 78q0 57 -25 88.5t-71 31.5zM297 485q79 0 125 -49.5t46 -136.5q0 -70 -26.5 -135.5t-74.5 -112.5q-62 -62 -154 -62q-83 0 -129.5 50t-46.5 140 q0 68 26.5 131.5t74.5 111.5q63 63 159 63z" glyph-name="uni043E" horiz-adv-x="502" unicode="о"/>
<glyph d="M296 0l102 409h-204l-102 -409h-78l118 473h360l-118 -473h-78z" glyph-name="uni043F" horiz-adv-x="502" unicode="п"/>
<glyph d="M309 418q-68 0 -115 -82q-21 -37 -34 -81.5t-13 -78.5q0 -53 23 -82.5t65 -29.5q33 0 62.5 21t52.5 62q22 38 33.5 81t11.5 82q0 49 -23.5 78.5t-62.5 29.5zM103 334q14 58 20.5 89.5t7.5 49.5h75q-1 -34 -11 -60q29 40 60 57t73 17q69 0 109 -46t40 -126 q0 -51 -14 -101.5t-40 -96.5q-34 -60 -81.5 -91.5t-104.5 -31.5q-44 0 -72 17.5t-50 59.5l-66 -264h-78z" glyph-name="uni0440" horiz-adv-x="503" unicode="р"/>
<glyph d="M362 319v17q0 81 -75 81q-74 0 -123 -86q-20 -37 -31.5 -78.5t-11.5 -81.5q0 -54 25.5 -84.5t70.5 -30.5q44 0 73 26t46 82h79q-47 -175 -201 -175q-83 0 -129 49.5t-46 138.5q0 70 26.5 135t74.5 110q63 62 152 62q69 0 107 -39t38 -109v-17h-75z" glyph-name="uni0441" horiz-adv-x="468" unicode="с"/>
<glyph d="M397 409h-142l-102 -409h-81l102 409h-143l16 64h366z" glyph-name="uni0442" horiz-adv-x="342" unicode="т"/>
<glyph d="M162 473l22 -411l225 411h84l-256 -443q-20 -35 -37.5 -62.5t-33 -48.5t-30 -37t-28.5 -28q-64 -53 -159 -53h-25l19 75q35 0 59.5 4.5t44 17t37 35t39.5 59.5l-42 481h81z" glyph-name="uni0443" horiz-adv-x="442" unicode="у"/>
<glyph d="M508 420q-53 0 -90 -78q-10 -21 -19 -51t-16.5 -61t-12 -60.5t-4.5 -49.5q0 -32 15.5 -49.5t42.5 -17.5t53.5 24t47.5 62.5t34 87.5t13 100q0 44 -17 68.5t-47 24.5zM269 420q-28 0 -54 -19.5t-46 -56.5q-12 -21 -21.5 -45.5t-16 -49.5t-10.5 -49t-4 -45q0 -102 64 -102 q52 0 88 74q10 20 19.5 50.5t17 63t12.5 63t5 51.5q0 31 -14 48t-40 17zM434 436q39 49 100 49q54 0 87.5 -39t33.5 -103q0 -23 -3.5 -50t-10 -55t-15.5 -54.5t-19 -48.5q-35 -72 -81 -109.5t-102 -37.5q-31 0 -52 11.5t-38 37.5l-58 -233h-79l58 233q-23 -27 -45.5 -38 t-51.5 -11q-56 0 -89 42.5t-33 113.5q0 57 15 115.5t43 108.5q31 56 76 86.5t96 30.5q32 0 52.5 -11.5t35.5 -38.5l59 235h79z" glyph-name="uni0444" horiz-adv-x="684" unicode="ф"/>
<glyph d="M181 473l63 -164l140 164h93l-208 -229l109 -244h-91l-76 190l-168 -190h-94l237 253l-94 220h89z" glyph-name="uni0445" horiz-adv-x="442" unicode="х"/>
<glyph d="M407 -101h-77l25 101h-341l118 473h78l-102 -409h204l102 409h78l-102 -409h58z" glyph-name="uni0446" horiz-adv-x="506" unicode="ц"/>
<glyph d="M168 473l-38 -154q-3 -12 -5 -24t-2 -21q0 -26 17.5 -41t48.5 -15q68 0 122 46l53 209h80l-118 -473h-80l44 179q-62 -33 -128 -33q-57 0 -90 29.5t-33 80.5q0 23 6 47l43 170h80z" glyph-name="uni0447" horiz-adv-x="454" unicode="ч"/>
<glyph d="M530 64l102 409h78l-118 -473h-578l118 473h78l-102 -409h172l102 409h78l-102 -409h172z" glyph-name="uni0448" horiz-adv-x="720" unicode="ш"/>
<glyph d="M666 64l-41 -165h-78l25 101h-558l118 473h78l-102 -409h172l102 409h78l-102 -409h172l102 409h78l-102 -409h58z" glyph-name="uni0449" horiz-adv-x="723" unicode="щ"/>
<glyph d="M150 64h73q27 0 43.5 3.5t30.5 11.5q20 11 31 32t11 47q0 36 -19 52.5t-61 16.5h-68zM156 409h-123l16 64h203l-45 -182h63q73 0 111 -33t38 -96q0 -54 -28.5 -95t-77.5 -57q-9 -3 -18 -5t-20 -3t-27 -1.5t-39 -0.5h-155z" glyph-name="uni044A" horiz-adv-x="456" unicode="ъ"/>
<glyph d="M110 64h73q27 0 43.5 3.5t30.5 11.5q20 11 31 32t11 47q0 36 -19 52.5t-61 16.5h-68zM132 473h80l-45 -182h63q73 0 111 -33t38 -96q0 -54 -28 -94.5t-78 -57.5q-9 -3 -17.5 -5t-20 -3t-27 -1.5t-38.5 -0.5h-156zM521 473h80l-118 -473h-80z" glyph-name="uni044B" horiz-adv-x="611" unicode="ы"/>
<glyph d="M110 64h73q27 0 43.5 3.5t30.5 11.5q20 11 31 32t11 47q0 36 -19 52.5t-61 16.5h-68zM132 473h80l-45 -182h63q73 0 111 -33t38 -96q0 -54 -28 -94.5t-78 -57.5q-9 -3 -17.5 -5t-20 -3t-27 -1.5t-38.5 -0.5h-156z" glyph-name="uni044C" horiz-adv-x="417" unicode="ь"/>
<glyph d="M180 205l16 64h155q1 9 1.5 15.5t0.5 14.5q0 56 -25.5 87t-70.5 31q-83 0 -117 -99l-77 8q49 158 197 158q83 0 129 -49.5t46 -138.5q0 -70 -26.5 -135.5t-73.5 -111.5q-62 -61 -150 -61q-42 0 -74 14.5t-52 42.5q-16 21 -21.5 43t-7.5 62l77 7q1 -101 81 -101 q48 0 87 39t62 110h-157z" glyph-name="uni044D" horiz-adv-x="468" unicode="э"/>
<glyph d="M486 417q-78 0 -127 -86q-21 -37 -32.5 -79t-11.5 -82q0 -53 26.5 -83.5t71.5 -30.5q75 0 125 87q20 35 32 77t12 77q0 57 -25 88.5t-71 31.5zM146 219l-54 -219h-78l118 473h78l-48 -190h89q32 97 93.5 149t143.5 52q83 0 129.5 -48.5t46.5 -136.5q0 -70 -26.5 -135.5 t-74.5 -112.5q-62 -62 -154 -62q-82 0 -129 49t-47 136q0 18 3 45h-90z" glyph-name="uni044E" horiz-adv-x="698" unicode="ю"/>
<glyph d="M341 409h-77q-26 0 -43 -3t-31 -11q-20 -12 -31 -32t-11 -45q0 -71 86 -71h67zM134 201q-30 12 -47.5 42.5t-17.5 70.5q0 53 28.5 93t77.5 56q9 3 17.5 5t20 3t27 1.5t38.5 0.5h160l-118 -473h-81l46 183h-13h-35t-35 1l-136 -184h-86z" glyph-name="uni044F" horiz-adv-x="448" unicode="я"/>
<glyph d="M249 663q20 0 32.5 -12t12.5 -32q0 -26 -18 -44t-43 -18q-20 0 -33 12.5t-13 32.5q0 25 18.5 43t43.5 18zM431 663q20 0 32.5 -12t12.5 -32q0 -26 -18 -44t-43 -18q-20 0 -33 12.5t-13 32.5q0 25 18.5 43t43.5 18zM376 287q1 10 1.5 15.5t0.5 12.5q0 49 -24 75.5 t-68 26.5q-47 0 -83.5 -33.5t-60.5 -96.5h234zM126 225q-3 -15 -4 -25.5t-1 -22.5q0 -57 27.5 -88.5t76.5 -31.5q41 0 69.5 21.5t51.5 69.5l75 -4q-59 -155 -205 -155q-85 0 -131.5 48.5t-46.5 137.5q0 70 26.5 135.5t74.5 111.5q65 62 154 62q76 0 118.5 -46t42.5 -130 q0 -22 -2.5 -41t-9.5 -42h-316z" glyph-name="uni0451" horiz-adv-x="488" unicode="ё"/>
<glyph d="M161 -104q33 1 55 7t37.5 20t26 38t21.5 62l62 248q12 46 12 77q0 28 -21 45.5t-54 17.5q-106 0 -144 -154l-64 -257h-78l136 544h-62l15 59h61l17 67h78l-17 -67h134l-15 -59h-134l-31 -125q60 64 137 64q57 0 91 -31.5t34 -82.5q0 -17 -3.5 -37t-13.5 -62l-62 -255 q-3 -11 -7.5 -25.5t-10.5 -29t-12 -27.5t-11 -20q-26 -42 -71 -65t-100 -23h-24z" glyph-name="uni0452" horiz-adv-x="500" unicode="ђ"/>
<glyph d="M477 677l-183 -127h-65l132 127h116zM94 0h-80l118 473h271l-16 -64h-191z" glyph-name="uni0453" horiz-adv-x="351" unicode="ѓ"/>
<glyph d="M291 270l-16 -64h-155q-1 -10 -1.5 -17.5t-0.5 -16.5q0 -54 25.5 -85t70.5 -31q44 0 71 24.5t48 83.5l76 -13q-52 -162 -198 -162q-83 0 -129 49.5t-46 137.5q0 70 26.5 135.5t74.5 110.5q65 62 152 62q69 0 107.5 -39.5t38.5 -111.5q0 -4 -1 -8l-75 -7v6l1 18 q2 33 -19.5 53.5t-56.5 20.5q-48 0 -87.5 -38.5t-61.5 -107.5h156z" glyph-name="uni0454" horiz-adv-x="465" unicode="є"/>
<glyph d="M338 339q0 18 -1.5 28t-6.5 19q-8 15 -27 24t-44 9q-39 0 -64.5 -20.5t-25.5 -52.5q0 -20 18 -35t67 -38q33 -16 56 -30.5t37.5 -29.5t20.5 -32t6 -37q0 -34 -14 -62.5t-39.5 -49t-60.5 -32t-77 -11.5q-77 0 -120 35.5t-43 98.5v13t2 17h78q-1 -7 -1 -10.5v-8.5 q0 -38 23 -58.5t66 -20.5q46 0 74.5 23t28.5 59q0 22 -15 37.5t-51 31.5q-38 17 -64.5 32.5t-42.5 31.5t-23 33t-7 38q0 31 13.5 57t36.5 45t55 30t70 11q71 0 111 -32.5t40 -89.5v-9.5t-1 -13.5h-75z" glyph-name="uni0455" horiz-adv-x="438" unicode="ѕ"/>
<glyph d="M219 677q20 0 32 -12.5t12 -32.5q0 -26 -19 -45.5t-44 -19.5q-20 0 -33 12t-13 30q0 27 19.5 47.5t45.5 20.5zM132 473h81l-118 -473h-81z" glyph-name="uni0456" horiz-adv-x="223" unicode="і"/>
<glyph d="M143 663q20 0 32.5 -12t12.5 -33q0 -25 -18 -43t-43 -18q-20 0 -33 12t-13 32q0 25 18.5 43.5t43.5 18.5zM286 663q20 0 32.5 -12.5t12.5 -32.5q0 -25 -18 -43t-43 -18q-20 0 -33 12t-13 32q0 25 18.5 43.5t43.5 18.5zM132 473h81l-118 -473h-81z" glyph-name="uni0457" horiz-adv-x="223" unicode="ї"/>
<glyph d="M248 677q20 0 32 -12t12 -33q0 -26 -19 -45.5t-44 -19.5q-20 0 -33 12t-13 30q0 27 19.5 47.5t45.5 20.5zM243 473l-107 -426q-8 -34 -15.5 -59t-15 -44t-16 -33t-18.5 -26q-27 -34 -68.5 -52.5t-89.5 -18.5h-25l18 71q34 0 57.5 7.5t40.5 27t29.5 53.5t25.5 87l103 413 h81z" glyph-name="uni0458" horiz-adv-x="252" unicode="ј"/>
<glyph d="M378 64h72q27 0 43.5 3.5t30.5 11.5q20 11 31 32t11 47q0 36 -19 52.5t-61 16.5h-68zM386 409h-151l-80 -245q-14 -46 -31 -77.5t-40 -51t-54 -28.5t-73 -9l16 64q21 1 37 7.5t28.5 20t22.5 34.5t19 52l94 297h305l-45 -182h63q73 0 111 -33t38 -96q0 -54 -28 -94.5 t-78 -57.5q-9 -3 -17.5 -5t-20 -3t-27 -1.5t-38.5 -0.5h-156z" glyph-name="uni0459" horiz-adv-x="684" unicode="љ"/>
<glyph d="M394 64h72q28 0 44.5 3.5t30.5 11.5q19 11 29.5 31t10.5 45q0 67 -80 67h-68zM352 222h-205l-55 -222h-78l118 473h78l-47 -187h205l47 187h80l-46 -187h63q149 0 149 -128q0 -53 -28 -92.5t-77 -55.5q-9 -3 -17.5 -5t-20 -3t-27 -1.5t-38.5 -0.5h-156z" glyph-name="uni045A" horiz-adv-x="699" unicode="њ"/>
<glyph d="M196 419q60 64 137 64q57 0 91 -31.5t34 -82.5q0 -17 -3.5 -38.5t-13.5 -60.5l-67 -270h-78l67 271q12 46 12 77q0 28 -21 45.5t-54 17.5q-106 0 -144 -154l-64 -257h-78l136 544h-62l15 59h24l6 25h37l11 42h78l-17 -67h134l-15 -59h-134z" glyph-name="uni045B" horiz-adv-x="500" unicode="ћ"/>
<glyph d="M532 677l-183 -127h-65l132 127h116zM92 0h-78l118 473h78zM499 473l-250 -222l148 -251h-99l-141 253l241 220h101z" glyph-name="uni045C" horiz-adv-x="460" unicode="ќ"/>
<glyph d="M233 680l1 -8q3 -36 17.5 -51t46.5 -15q33 0 53.5 16.5t40.5 57.5h41q-16 -65 -52 -99t-90 -34q-48 0 -74.5 29.5t-26.5 80.5v10t1 13h42zM162 473l22 -411l225 411h84l-256 -443q-20 -35 -37.5 -62.5t-33 -48.5t-30 -37t-28.5 -28q-64 -53 -159 -53h-25l19 75 q35 0 59.5 4.5t44 17t37 35t39.5 59.5l-42 481h81z" glyph-name="uni045E" horiz-adv-x="442" unicode="ў"/>
<glyph d="M14 0l118 473h78l-102 -409h204l102 409h78l-118 -473h-141l-25 -101h-78l25 101h-141z" glyph-name="uni045F" horiz-adv-x="502" unicode="џ"/>
<glyph d="M28 0l166 667h280l21 82h83l-38 -156h-279l-148 -593h-85z" glyph-name="uni0490" horiz-adv-x="469" unicode="Ґ"/>
<glyph d="M337 529h80l-30 -120h-191l-102 -409h-80l118 473h191z" glyph-name="uni0491" horiz-adv-x="351" unicode="ґ"/>
<glyph d="M456 283l-15 -62h-359l15 62h359z" glyph-name="endash" unicode="–"/>
<glyph d="M582 283l-15 -62h-569l15 62h569z" glyph-name="emdash" horiz-adv-x="569" unicode="—"/>
<glyph d="M297 674q-15 -11 -30.5 -25.5t-28.5 -30t-23.5 -31t-14.5 -28.5q4 1 9 1q17 0 28.5 -12t11.5 -29q0 -13 -6 -25t-15.5 -21.5t-22.5 -15t-26 -5.5q-23 0 -37 14.5t-14 37.5q0 37 30.5 83.5t81.5 86.5h57z" glyph-name="quoteleft" horiz-adv-x="231" unicode="‘"/>
<glyph d="M103 457q31 23 59 56t38 59h-9q-17 0 -28.5 12t-11.5 29q0 13 6 25t15.5 21.5t22 15t26.5 5.5q23 0 37 -14.5t14 -37.5q0 -37 -29 -81.5t-83 -89.5h-57z" glyph-name="quoteright" horiz-adv-x="231" unicode="’"/>
<glyph d="M-40 -117q32 26 59.5 58t37.5 58q-4 -1 -9 -1q-17 0 -28.5 12t-11.5 29q0 13 6 25t15.5 21.5t22 15t26.5 5.5q23 0 37 -14.5t14 -37.5q0 -74 -112 -171h-57z" glyph-name="quotesinglbase" horiz-adv-x="231" unicode="‚"/>
<glyph d="M294 679q-15 -11 -30 -25.5t-28.5 -30t-23.5 -31t-15 -28.5q49 0 49 -41q0 -13 -6 -25t-15.5 -21.5t-22.5 -15t-26 -5.5q-23 0 -37 14.5t-14 37.5q0 37 30 83t81 88h58zM466 679q-15 -11 -30.5 -25.5t-28.5 -30t-23.5 -31.5t-14.5 -28q49 0 49 -41q0 -13 -6 -25 t-15.5 -21.5t-22.5 -15t-26 -5.5q-23 0 -37 14.5t-14 37.5q0 37 29.5 83t81.5 88h58z" glyph-name="quotedblleft" horiz-adv-x="402" unicode="“"/>
<glyph d="M275 457q15 11 30.5 25.5t28.5 30.5t22.5 31t14.5 28h-8q-17 0 -28.5 12t-11.5 29q0 13 6 25t15.5 21.5t22 15t26.5 5.5q23 0 37 -14.5t14 -37.5q0 -37 -29 -81.5t-83 -89.5h-57zM103 457q31 23 59 56t38 59h-9q-17 0 -28.5 12t-11.5 29q0 13 6 25t15.5 21.5t22 15 t26.5 5.5q23 0 37 -14.5t14 -37.5q0 -37 -29 -81.5t-83 -89.5h-57z" glyph-name="quotedblright" horiz-adv-x="402" unicode="”"/>
<glyph d="M132 -117q32 26 59.5 58t36.5 58q-3 -1 -8 -1q-17 0 -28.5 12t-11.5 29q0 13 6 25t15.5 21.5t22 15t26.5 5.5q23 0 37 -14.5t14 -37.5q0 -74 -112 -171h-57zM-40 -117q32 26 59.5 58t37.5 58q-4 -1 -9 -1q-17 0 -28.5 12t-11.5 29q0 13 6 25t15.5 21.5t22 15t26.5 5.5 q23 0 37 -14.5t14 -37.5q0 -74 -112 -171h-57z" glyph-name="quotedblbase" horiz-adv-x="402" unicode="„"/>
<glyph d="M394 650l-45 -180h171l-16 -66h-171l-134 -536h-75l134 536h-174l16 66h174l45 180h75z" glyph-name="dagger" horiz-adv-x="500" unicode="†"/>
<glyph d="M392 650l-27 -108h174l-17 -66h-173l-102 -410h173l-16 -67h-174l-33 -131h-73l33 131h-174l17 67h173l103 410h-174l16 66h174l27 108h73z" glyph-name="daggerdbl" horiz-adv-x="500" unicode="‡"/>
<glyph d="M347 477q28 0 52.5 -11t43 -30t29.5 -44t11 -53q0 -29 -11 -54.5t-29.5 -44t-44 -29.5t-53.5 -11q-29 0 -54 11t-44 29.5t-30 43.5t-11 54t11 54.5t30 44t44.5 29.5t55.5 11z" glyph-name="bullet" horiz-adv-x="667" unicode="•"/>
<glyph d="M601 113q22 0 36 -14.5t14 -36.5q0 -29 -21.5 -51t-49.5 -22q-22 0 -37 14t-15 35q0 15 6 28.5t16 24t23 16.5t28 6zM347 113q22 0 36 -14.5t14 -36.5q0 -29 -21.5 -51t-49.5 -22q-22 0 -37 14t-15 35q0 15 6 28.5t16 24t23 16.5t28 6zM93 113q22 0 36 -14.5t14 -36.5 q0 -29 -21.5 -51t-49.5 -22q-22 0 -37 14t-15 35q0 15 6 28.5t16 24t23 16.5t28 6z" glyph-name="ellipsis" horiz-adv-x="759" unicode="…"/>
<glyph d="M811 262q-20 0 -37.5 -12t-30.5 -32t-21 -46.5t-8 -55.5q0 -67 50 -67q19 0 36.5 12t30.5 32.5t21 47t8 56.5q0 65 -49 65zM817 316q49 0 77 -32t28 -87q0 -41 -13 -77.5t-35.5 -64.5t-52.5 -44t-63 -16q-49 0 -77.5 31t-28.5 85q0 42 13.5 79t36 65t52.5 44.5t63 16.5z M500 262q-20 0 -37.5 -12t-30.5 -32t-21 -46.5t-8 -55.5q0 -67 50 -67q19 0 36.5 12t30.5 32.5t21 47t8 56.5q0 65 -49 65zM506 316q49 0 77 -32t28 -87q0 -41 -13 -77.5t-35.5 -64.5t-52.5 -44t-63 -16q-49 0 -77.5 31t-28.5 85q0 42 13.5 79t36 65t52.5 44.5t63 16.5z M645 667l-524 -667h-70l524 667h70zM247 618q-19 0 -36.5 -12t-30.5 -32.5t-21 -47t-8 -55.5q0 -66 50 -66q19 0 36.5 12t30.5 32t21 47t8 56q0 66 -50 66zM254 672q49 0 77 -32t28 -87q0 -41 -13 -77.5t-35.5 -64.5t-52.5 -44t-63 -16q-49 0 -77.5 31t-28.5 85q0 42 13 79 t35.5 65t52.5 44.5t64 16.5z" glyph-name="perthousand" horiz-adv-x="959" unicode="‰"/>
<glyph d="M158 390l-126 -155l53 -163h61l-39 160l116 158h-65z" glyph-name="guilsinglleft" horiz-adv-x="242" unicode="‹"/>
<glyph d="M95 394l40 -164l-115 -160h65l125 158l-54 166h-61z" glyph-name="guilsinglright" horiz-adv-x="242" unicode="›"/>
<glyph d="M492 417l-39 -56h-271q-4 -13 -7.5 -29t-7.5 -33h242l-39 -56h-209q-1 -8 -1 -12.5v-10.5q0 -160 148 -160q59 0 104.5 25t91.5 83l-27 -114q-42 -35 -86 -50.5t-100 -15.5q-120 0 -173 74q-22 29 -33 67.5t-11 83.5v14t1 16h-84l38 56h53l1 8q2 9 3 14.5t2.5 11t3 11.5 t4.5 17h-74l38 56h54q45 127 120 191t178 64q120 0 192 -79l-53 -76q-27 45 -61 65t-83 20q-69 0 -119 -45t-86 -140h290z" glyph-name="Euro" unicode="€"/>
<glyph d="M427 350q-12 -3 -24 -5q-12 -1 -25 -2t-32 -2h-44h-46l65 252h40h55q22 -1 37 -3q16 -2 27 -5t22 -8q27 -13 36 -42t-2 -70q-11 -45 -40 -75t-69 -40zM555 649q-15 5 -31 9q-16 3 -37 5t-48 3t-65 1h-119l-84 -326h-68l-19 -74h68l-14 -57h-69l-19 -74h68l-35 -136h85 l35 136h237l19 74h-236l14 57h47q37 0 65 1q27 1 49 3q21 2 38 6q18 4 35 10q56 20 98 67q41 47 57 111q17 67 -2 116t-69 68z" glyph-name="uni20BD" horiz-adv-x="623" unicode="₽"/>
<glyph d="M853 122l-17 -68h-247l17 68h247zM795 398q-16 0 -30.5 -9t-25.5 -25t-17.5 -36.5t-6.5 -43.5q0 -26 12 -41t34 -15q15 0 29.5 9.5t25.5 25t17.5 35.5t6.5 42q0 58 -45 58zM803 461q48 0 75 -29.5t27 -81.5q0 -42 -15.5 -81t-44.5 -67q-37 -37 -92 -37q-48 0 -76 29 t-28 79q0 45 18 87.5t48 68.5q35 32 88 32zM284 667l170 -552l135 552h80l-166 -667h-88l-172 551l-135 -551h-80l166 667h90z" glyph-name="uni2116" horiz-adv-x="907" unicode="№"/>
<glyph d="M493 667l25 -316l181 316h81l-95 -380h-52l78 310l-178 -310h-58l-27 311l-76 -311h-52l94 380h79zM371 667l-14 -49h-99l-83 -331h-55l83 331h-103l14 49h257z" glyph-name="trademark" horiz-adv-x="710" unicode="™"/>
</font>
</defs>
</svg>
