<?xml version="1.0" encoding="UTF-8" standalone="no"?>
<!DOCTYPE svg  PUBLIC '-//W3C//DTD SVG 1.1//EN'  'http://www.w3.org/Graphics/SVG/1.1/DTD/svg11.dtd'>
<svg xmlns="http://www.w3.org/2000/svg" version="1.1">
<defs>
<font id="CorporateSW10Md" horiz-adv-x="500">
<font-face font-weight="500" descent="-260" font-family="Corporate S W10 Md" underline-position="-171" unicode-range="U+0020-2122" x-height="474" cap-height="667" ascent="740" bbox="-30 -203 897 870" underline-thickness="73" units-per-em="1000" panose-1="0 0 6 0 0 0 0 0 0 0"/>
<missing-glyph horiz-adv-x="0"/>
<glyph horiz-adv-x="0" glyph-name=".notdef"/>
<glyph horiz-adv-x="0" glyph-name="glyph1"/>
<glyph horiz-adv-x="0" glyph-name="glyph2"/>
<glyph horiz-adv-x="250" unicode=" " glyph-name="space"/>
<glyph horiz-adv-x="250" d="M125 113q25 0 43 -18t18 -44q0 -25 -18 -43t-44 -18q-25 0 -43 18t-18 43q0 26 18 44t44 18zM168 653l-12 -459h-66l-9 459h87z" unicode="!" glyph-name="exclam"/>
<glyph horiz-adv-x="382" d="M234 399l-14 268h84l-14 -268h-56zM91 399l-14 268h84l-14 -268h-56z" unicode='&quot;' glyph-name="quotedbl"/>
<glyph horiz-adv-x="600" d="M242 409l-22 -139h143l22 139h-143zM539 209h-115l-33 -209h-70l33 209h-143l-33 -209h-70l33 209h-114l10 61h114l22 139h-114l9 61h114l31 197h70l-31 -197h143l31 197h70l-31 -197h115l-9 -61h-116l-22 -139h116z" unicode="#" glyph-name="numbersign"/>
<glyph horiz-adv-x="540" d="M291 62q55 5 86.5 34t31.5 76q0 52 -44 87q-5 4 -11 7.5t-14 7t-20 8.5t-29 11v-231zM247 604q-51 -8 -79 -34t-28 -68q0 -50 46 -78q9 -5 20.5 -10t40.5 -16v206zM291 383q42 -15 70 -27t47 -24q87 -53 87 -152q0 -41 -14.5 -74.5t-41 -58t-64.5 -40t-84 -18.5v-76h-44 v76q-97 5 -151.5 60.5t-53.5 147.5h81q6 -121 124 -135v247q-26 9 -43 15.5t-29.5 11.5t-21 9.5t-17.5 9.5q-79 46 -79 140q0 38 13.5 70t38 56t59.5 39t79 18v67h44v-68q40 -3 73 -16.5t57 -35.5t37.5 -51.5t13.5 -64.5h-83q-6 40 -31 64.5t-67 29.5v-220z" unicode="$" glyph-name="dollar"/>
<glyph horiz-adv-x="601" d="M156 618q-30 0 -49.5 -29.5t-19.5 -76.5q0 -48 19 -77.5t49 -29.5t49.5 29.5t19.5 77.5q0 46 -19.5 76t-48.5 30zM157 672q27 0 50 -12.5t40.5 -34t27.5 -51t10 -62.5q0 -34 -10 -63.5t-27.5 -51t-41.5 -34t-51 -12.5t-50.5 12.5t-41 34t-27.5 51t-10 63.5t10 63 t27.5 50.5t41.5 34t52 12.5zM447 262q-31 0 -50 -29.5t-19 -76.5q0 -48 19 -77.5t49 -29.5t49.5 30t19.5 77q0 46 -19.5 76t-48.5 30zM448 316q27 0 50 -12.5t40.5 -34t27.5 -51t10 -62.5q0 -34 -10 -63.5t-27.5 -51t-41 -34t-50.5 -12.5t-51 12.5t-41.5 34t-27.5 51 t-10 63.5t10 63t27.5 50.5t41.5 34t52 12.5zM531 667l-391 -667h-70l391 667h70z" unicode="%" glyph-name="percent"/>
<glyph horiz-adv-x="590" d="M218 313q-28 -21 -47 -38.5t-30.5 -34t-16.5 -33t-5 -35.5q0 -24 9.5 -44.5t27 -35.5t41 -23.5t51.5 -8.5q72 0 118 55zM233 414q43 33 61 60.5t18 58.5q0 27 -19 44.5t-48 17.5q-31 0 -51.5 -18.5t-20.5 -45.5q0 -11 2 -20.5t7.5 -21t15 -26t24.5 -35.5q5 -5 11 -14z M502 312v-24q0 -57 -10.5 -96.5t-35.5 -76.5l86 -115h-90l-43 59q-34 -35 -72 -50.5t-91 -15.5q-46 0 -84 13t-65 37t-42 57.5t-15 74.5q0 27 6.5 51t22 47.5t41 48t62.5 53.5q-25 31 -40 52.5t-23 37.5t-10.5 30t-2.5 32q0 29 11 53t31 41.5t47.5 27.5t60.5 10 q63 0 100.5 -35t37.5 -93q0 -47 -24 -85.5t-82 -85.5l133 -182q13 23 18 52.5t5 81.5h68z" unicode="&amp;" glyph-name="ampersand"/>
<glyph horiz-adv-x="250" d="M97 399l-14 268h84l-14 -268h-56z" unicode="&apos;" glyph-name="quotesingle"/>
<glyph horiz-adv-x="286" d="M253 672q-51 -71 -78.5 -182t-27.5 -251q0 -286 106 -439h-62q-121 157 -121 437q0 139 30.5 249t90.5 186h62z" unicode="(" glyph-name="parenleft"/>
<glyph horiz-adv-x="286" d="M33 -200q106 154 106 433q0 143 -27 255t-79 184h62q60 -75 90.5 -185.5t30.5 -250.5q0 -277 -121 -436h-62z" unicode=")" glyph-name="parenright"/>
<glyph d="M226 650h49v-122l116 38l15 -47l-116 -37l72 -99l-40 -28l-71 98l-72 -98l-40 28l72 99l-116 37l15 47l116 -38v122z" unicode="*" glyph-name="asterisk"/>
<glyph horiz-adv-x="540" d="M489 365v-60h-187v-194h-63v194h-187v60h187v194h63v-194h187z" unicode="+" glyph-name="plus"/>
<glyph horiz-adv-x="241" d="M32 -162q16 17 30.5 38t25.5 42.5t17.5 43t8.5 38.5q-29 0 -46.5 15.5t-17.5 41.5t19 44t45 18q31 0 49.5 -23t18.5 -61q0 -45 -20 -90.5t-67 -106.5h-63z" unicode="," glyph-name="comma"/>
<glyph horiz-adv-x="272" d="M272 283v-62h-272v62h272z" unicode="-" glyph-name="hyphen"/>
<glyph horiz-adv-x="254" d="M128 113q25 0 43 -18t18 -44q0 -25 -18 -43t-44 -18q-25 0 -43 18t-18 43q0 26 18 44t44 18z" unicode="." glyph-name="period"/>
<glyph horiz-adv-x="568" d="M446 667h74l-398 -825h-74z" unicode="/" glyph-name="slash"/>
<glyph horiz-adv-x="540" d="M272 592q-62 0 -92 -55q-21 -38 -32 -92t-11 -120q0 -63 11 -117t32 -92q29 -55 91 -55q29 0 52.5 14.5t37.5 40.5q21 38 32 92t11 118q0 65 -11.5 120t-31.5 91q-14 26 -37.5 40.5t-51.5 14.5zM273 662q50 0 90 -23.5t68 -67t43 -105.5t15 -140t-15 -140.5t-43 -105.5 t-69 -66t-92 -23t-91 23t-68.5 66t-43.5 105t-15 140q0 161 57.5 249t163.5 88z" unicode="0" glyph-name="zero"/>
<glyph horiz-adv-x="540" d="M171 550q64 2 97.5 26.5t44.5 77.5h57v-654h-82v499h-117v51z" unicode="1" glyph-name="one"/>
<glyph horiz-adv-x="540" d="M80 463q1 96 51 147.5t143 51.5q41 0 74.5 -11.5t57.5 -32.5t37 -51t13 -67q0 -22 -4 -41t-15 -41t-29.5 -49.5t-48.5 -65.5q-1 -2 -45.5 -58.5t-132.5 -169.5h284v-75h-390v66q8 10 14 18t14 17.5t19.5 24.5t31.5 40q74 93 117 149t65.5 90t28.5 53.5t6 39.5 q0 41 -28 65.5t-73 24.5q-107 0 -116 -125h-74z" unicode="2" glyph-name="two"/>
<glyph horiz-adv-x="540" d="M80 483q5 85 54.5 132t137.5 47q41 0 75 -12t58 -33.5t37 -52t13 -67.5q0 -100 -100 -145q118 -38 118 -161q0 -45 -15 -82t-42.5 -63t-66.5 -40.5t-86 -14.5q-100 0 -153.5 51t-53.5 145h75q2 -60 35 -91.5t94 -31.5q60 0 94.5 33t34.5 92q0 82 -71 110q-30 11 -85 11 h-10t-13 -1v72q10 -1 15 -1h11q63 0 98.5 29t35.5 82q0 45 -28 71.5t-76 26.5q-97 0 -112 -106h-74z" unicode="3" glyph-name="three"/>
<glyph horiz-adv-x="540" d="M310 551l-192 -328h191zM502 223v-70h-113v-160h-84v160h-267v65l261 436h88v-431h115z" unicode="4" glyph-name="four"/>
<glyph horiz-adv-x="540" d="M442 650l-8 -74h-232l-27 -177q26 23 51 32.5t59 9.5q43 0 79 -15.5t61.5 -43t39.5 -67t14 -87.5q0 -89 -52 -158q-60 -79 -161 -79q-84 0 -135 46t-57 126h78q17 -100 111 -100q58 0 93.5 44.5t35.5 116.5q0 67 -32 107t-86 40q-37 0 -64 -16.5t-49 -51.5l-73 9l50 338 h304z" unicode="5" glyph-name="five"/>
<glyph horiz-adv-x="540" d="M278 373q-53 0 -85.5 -43t-32.5 -112q0 -34 9 -62.5t24.5 -49.5t37.5 -32.5t48 -11.5q53 0 85 42.5t32 113.5q0 34 -8.5 62.5t-24.5 49t-37.5 32t-47.5 11.5zM407 664q-26 -29 -51.5 -60.5t-49 -62.5t-43.5 -61t-35 -55q17 8 32.5 11.5t35.5 3.5q40 0 74 -16t59 -45.5 t38.5 -70t13.5 -88.5q0 -51 -14.5 -93t-41 -72.5t-63 -47t-80.5 -16.5q-45 0 -83 17t-65.5 47.5t-43 72.5t-15.5 93q0 48 13.5 97t42.5 102.5t74.5 113t110.5 130.5h91z" unicode="6" glyph-name="six"/>
<glyph horiz-adv-x="540" d="M476 650v-67l-316 -583h-92l311 572h-315v78h412z" unicode="7" glyph-name="seven"/>
<glyph horiz-adv-x="540" d="M271 307q-54 0 -87.5 -34t-33.5 -90q0 -27 9 -49.5t25 -39t38 -25.5t48 -9q53 0 86 34.5t33 88.5t-33 89t-85 35zM271 593q-48 0 -76.5 -30t-28.5 -80q0 -48 29 -78.5t75 -30.5q47 0 75.5 30.5t28.5 79.5q0 48 -28.5 78.5t-74.5 30.5zM158 343q-77 42 -77 137 q0 39 14.5 72.5t39.5 57.5t59.5 38t74.5 14t75 -14t60 -38t39.5 -57.5t14.5 -72.5q0 -96 -77 -137q93 -53 93 -160q0 -42 -15 -77.5t-42 -61t-64.5 -39.5t-82.5 -14t-82.5 14.5t-65 40t-42.5 61t-15 77.5q0 108 93 159z" unicode="8" glyph-name="eight"/>
<glyph horiz-adv-x="540" d="M265 591q-27 0 -49.5 -11.5t-38 -32.5t-24.5 -50t-9 -64q0 -34 8.5 -62.5t24.5 -49t37.5 -32t47.5 -11.5t48 11.5t37.5 32t24 49t8.5 63.5q0 70 -32 113.5t-83 43.5zM132 -14q51 56 100 121t81 119q-17 -8 -32.5 -11.5t-35.5 -3.5q-40 0 -74 16.5t-59 45.5t-39 69t-14 87 q0 51 15 94t42.5 74t65.5 48t83 17t82 -16.5t63 -46.5t40.5 -72.5t14.5 -93.5q0 -49 -14 -99t-43 -104t-74.5 -114.5t-109.5 -129.5h-92z" unicode="9" glyph-name="nine"/>
<glyph horiz-adv-x="254" d="M128 474q25 0 43 -18t18 -44q0 -25 -18 -43t-44 -18q-25 0 -43 18t-18 43q0 26 18 44t44 18zM128 113q25 0 43 -18t18 -44q0 -25 -18 -43t-44 -18q-25 0 -43 18t-18 43q0 26 18 44t44 18z" unicode=":" glyph-name="colon"/>
<glyph horiz-adv-x="241" d="M32 -162q16 17 30.5 38t25.5 42.5t17.5 43t8.5 38.5q-29 0 -46.5 15.5t-17.5 41.5t19 44t45 18q31 0 49.5 -23t18.5 -61q0 -45 -20 -90.5t-67 -106.5h-63zM114 474q25 0 43 -18t18 -44t-18 -43.5t-44 -17.5t-43.5 17.5t-17.5 43.5t18 44t44 18z" unicode=";" glyph-name="semicolon"/>
<glyph d="M466 497l-348 -160l348 -160v-79l-433 205v69l433 205v-80z" unicode="&lt;" glyph-name="less"/>
<glyph horiz-adv-x="540" d="M489 296v-62h-437v62h437zM489 436v-62h-437v62h437z" unicode="=" glyph-name="equal"/>
<glyph d="M34 177l348 160l-348 160v80l433 -206v-69l-433 -205v80z" unicode="&gt;" glyph-name="greater"/>
<glyph horiz-adv-x="413" d="M155 194v11v38q0 31 2 52t9 37.5t20 33.5t36 41q19 19 31 33.5t19 27t10 23.5t3 24q0 33 -20.5 52t-56.5 19q-84 0 -91 -93h-69q2 41 10 67t26 46q46 55 132 55q73 0 115 -38.5t42 -105.5q0 -20 -3.5 -36.5t-13 -33.5t-26 -36.5t-41.5 -44.5q-20 -20 -31 -33.5t-17 -27.5 t-7.5 -31.5t-1.5 -45.5v-15.5t1 -18.5h-78zM194 113q25 0 43 -18t18 -43q0 -26 -18 -44t-44 -18q-25 0 -43 18t-18 43q0 26 18 44t44 18z" unicode="?" glyph-name="question"/>
<glyph horiz-adv-x="733" d="M378 447q-24 0 -44.5 -11.5t-36 -31t-24.5 -46t-9 -56.5q0 -48 23.5 -76t63.5 -28q24 0 44 11.5t34.5 32t22.5 48t8 60.5q0 46 -22 71.5t-60 25.5zM551 494l-41 -208q-2 -14 -4 -27.5t-2 -18.5q0 -21 9.5 -34t25.5 -13q20 0 39 16t34 42t24 60.5t9 70.5q0 54 -19 99 t-53.5 77.5t-83 50t-106.5 17.5q-63 0 -116 -22t-91.5 -61.5t-60.5 -94t-22 -118.5q0 -60 20 -113.5t58 -93.5q79 -82 223 -82q56 0 104 10.5t99 33.5l15 -53q-99 -44 -219 -44q-163 0 -260 94q-48 47 -74 112.5t-26 137.5q0 75 26.5 138.5t73.5 110t111 72.5t139 26 q69 0 127.5 -22t100.5 -61.5t65.5 -94t23.5 -118.5q0 -48 -13.5 -91.5t-36 -76.5t-52 -52.5t-62.5 -19.5q-30 0 -49.5 18t-24.5 50q-47 -69 -123 -69q-32 0 -58 12t-45 33.5t-29.5 51t-10.5 65.5q0 42 14 78.5t38 64t56 43.5t68 16q77 0 108 -72l12 60h59z" unicode="@" glyph-name="at"/>
<glyph horiz-adv-x="573" d="M286 563l-101 -320h202zM325 670l229 -670h-88l-56 169h-248l-56 -169h-88l229 670h78z" unicode="A" glyph-name="A"/>
<glyph horiz-adv-x="557" d="M234 72q29 0 50.5 1t37.5 2.5t28 4.5t23 8q26 11 40.5 39t14.5 65q0 40 -18.5 68.5t-52.5 40.5q-11 4 -21.5 6t-24.5 3.5t-32 2t-44 0.5h-66v-241h65zM230 383q47 0 73 4t46 15q23 12 35.5 36t12.5 55q0 32 -15 55.5t-41 34.5q-19 7 -42.5 9.5t-72.5 2.5h-57v-212h61z M218 667q33 0 57 -1t43 -2.5t33.5 -5t28.5 -7.5q49 -17 76 -56.5t27 -94.5q0 -57 -27 -92t-84 -52q75 -18 110.5 -59t35.5 -110q0 -61 -31 -107t-83 -63q-17 -5 -33 -8.5t-37.5 -5.5t-51.5 -2.5t-73 -0.5h-124v667h133z" unicode="B" glyph-name="B"/>
<glyph horiz-adv-x="601" d="M472 476q-27 128 -146 128q-43 0 -77.5 -19t-59 -54t-37.5 -85t-13 -113q0 -62 13 -112t37.5 -85t59 -54t78.5 -19q68 0 107 42.5t48 125.5h79q-8 -118 -68 -180.5t-163 -62.5q-65 0 -117 24t-88.5 69t-56.5 108.5t-20 142.5q0 91 25 161.5t74 115.5q35 34 82 52t98 18 q57 0 103.5 -21t75.5 -60q20 -26 29.5 -53t14.5 -69h-78z" unicode="C" glyph-name="C"/>
<glyph horiz-adv-x="630" d="M221 74q37 0 62.5 1.5t44.5 5t34.5 10t31.5 16.5q48 30 73 88.5t25 138.5q0 82 -28 142t-80 89q-16 9 -30.5 14.5t-34 8.5t-47.5 4t-72 1h-30v-519h51zM201 667q46 0 80 -2t60.5 -6t47 -11.5t40.5 -17.5q36 -19 64 -49.5t48 -68.5t30.5 -83.5t10.5 -94.5 q0 -50 -10.5 -95.5t-30.5 -84t-48.5 -68.5t-64.5 -49q-21 -11 -41.5 -18.5t-47 -11.5t-62 -5.5t-87.5 -1.5h-105v667h116z" unicode="D" glyph-name="D"/>
<glyph horiz-adv-x="509" d="M440 382v-74h-270v-234h299v-74h-384v667h377v-74h-292v-211h270z" unicode="E" glyph-name="E"/>
<glyph horiz-adv-x="493" d="M440 382v-74h-270v-308h-85v667h377v-74h-292v-211h270z" unicode="F" glyph-name="F"/>
<glyph horiz-adv-x="626" d="M565 334v-275q-100 -71 -226 -71q-68 0 -122 24t-91.5 68.5t-57.5 109t-20 145.5q0 78 20 141.5t56.5 108.5t88.5 69.5t117 24.5q56 0 102.5 -19.5t76.5 -56.5q21 -26 31.5 -54.5t15.5 -71.5h-78q-27 127 -148 127q-90 0 -140.5 -71t-50.5 -199q0 -130 52.5 -200.5 t148.5 -70.5q78 0 150 43v157h-136v71h211z" unicode="G" glyph-name="G"/>
<glyph horiz-adv-x="644" d="M474 384v283h85v-667h-85v313h-304v-313h-85v667h85v-283h304z" unicode="H" glyph-name="H"/>
<glyph horiz-adv-x="255" d="M84 0v667h87v-667h-87z" unicode="I" glyph-name="I"/>
<glyph horiz-adv-x="297" d="M215 667v-532q0 -37 -0.5 -61t-2.5 -40.5t-5.5 -27.5t-9.5 -23q-39 -80 -173 -80h-10.5t-15.5 1v73q5 -1 8 -1h5q73 0 99 32q6 7 9.5 14.5t5.5 21t2.5 35t0.5 56.5v532h87z" unicode="J" glyph-name="J"/>
<glyph horiz-adv-x="571" d="M170 667v-667h-85v667h85zM539 667l-268 -314l292 -353h-115l-276 350l265 317h102z" unicode="K" glyph-name="K"/>
<glyph horiz-adv-x="483" d="M173 667v-593h286v-74h-374v667h88z" unicode="L" glyph-name="L"/>
<glyph horiz-adv-x="779" d="M211 667l179 -574l179 574h126v-667h-80v577l-182 -577h-87l-181 577v-577h-80v667h126z" unicode="M" glyph-name="M"/>
<glyph horiz-adv-x="652" d="M177 667l311 -538v538h80v-667h-91l-311 537v-537h-81v667h92z" unicode="N" glyph-name="N"/>
<glyph horiz-adv-x="652" d="M326 605q-42 0 -76.5 -19t-59 -54.5t-38 -85t-13.5 -109.5q0 -63 13 -114t37.5 -87t59 -55t77.5 -19q42 0 76.5 19.5t59 55t37.5 85.5t13 112q0 61 -13 111.5t-37.5 85.5t-59 54.5t-76.5 19.5zM326 679q62 0 113 -25t87.5 -70.5t56.5 -109t20 -140.5t-20 -141 t-56.5 -109.5t-87.5 -70.5t-113 -25q-63 0 -114.5 25t-87.5 71t-56 110.5t-20 143.5q0 75 20.5 138t57 108t87.5 70t113 25z" unicode="O" glyph-name="O"/>
<glyph horiz-adv-x="534" d="M216 341q26 0 44 0.5t31.5 1.5t24.5 2.5t22 4.5q38 10 59 40t21 75q0 41 -16.5 70t-46.5 42q-12 5 -24 8t-28 5t-38.5 2.5t-54.5 0.5h-40v-252h46zM204 667q37 0 64.5 -1t49 -3t38.5 -5.5t33 -8.5q55 -19 87 -68t32 -116q0 -64 -29 -111t-80 -67q-16 -6 -32.5 -10t-37 -6 t-48 -3t-64.5 -1h-47v-267h-85v667h119z" unicode="P" glyph-name="P"/>
<glyph horiz-adv-x="664" d="M326 605q-42 0 -76 -19.5t-59 -55t-38.5 -84.5t-13.5 -108q0 -62 13.5 -113t38 -87t59 -55.5t76.5 -19.5t76 19.5t58.5 55t38 85.5t13.5 111t-13.5 111t-38 85.5t-58.5 55t-76 19.5zM693 -7h-102l-75 80q-38 -42 -86.5 -63.5t-104.5 -21.5q-61 0 -112 25.5t-87.5 71 t-57 109t-20.5 140.5q0 76 20 139.5t57 109.5t88 71t113 25q61 0 112 -25t87.5 -70.5t57 -109t20.5 -139.5q0 -57 -10 -103.5t-32 -93.5z" unicode="Q" glyph-name="Q"/>
<glyph horiz-adv-x="567" d="M217 353q29 0 48.5 0.5t33.5 2t25 4t22 6.5q34 12 52.5 40.5t18.5 69.5q0 36 -15 62t-44 39q-11 5 -22 8.5t-26.5 5t-38.5 2t-57 0.5h-44v-240h47zM212 667q39 0 67.5 -1t50 -3.5t38.5 -7t34 -11.5q49 -20 77 -65t28 -104q0 -132 -133 -182l171 -293h-102l-162 279h-111 v-279h-85v667h127z" unicode="R" glyph-name="R"/>
<glyph horiz-adv-x="551" d="M397 490q-5 55 -37.5 84.5t-87.5 29.5q-51 0 -84 -27t-33 -69q0 -41 39 -66q8 -5 14.5 -9t17.5 -9.5t30.5 -14t53.5 -23.5t58 -26.5t41 -22t28.5 -20t20.5 -19.5q41 -47 41 -117q0 -44 -16 -79.5t-45 -60.5t-70 -39t-91 -14q-63 0 -111 21t-77 61q-20 28 -30 59t-12 79 h84q5 -72 42.5 -108.5t106.5 -36.5q28 0 52.5 8t41.5 22t27 33.5t10 42.5q0 46 -41 79q-8 6 -16 11t-19.5 11t-28.5 14t-42 19q-53 23 -85.5 41t-51.5 33q-58 49 -58 124q0 39 15.5 71.5t42.5 56.5t65 37t83 13q56 0 100 -20t71 -58q17 -23 24.5 -48t9.5 -63h-83z" unicode="S" glyph-name="S"/>
<glyph horiz-adv-x="471" d="M452 667v-74h-174v-593h-85v593h-174v74h433z" unicode="T" glyph-name="T"/>
<glyph horiz-adv-x="635" d="M161 667v-391q0 -35 0.5 -57.5t3 -38.5t6 -27t9.5 -22q17 -32 53.5 -50t84.5 -18q52 0 89.5 21t53.5 59q4 10 6.5 20.5t4 25.5t2 35.5t0.5 51.5v391h85v-392q0 -38 -0.5 -63t-2.5 -42.5t-5.5 -30.5t-9.5 -27q-25 -59 -83.5 -91.5t-139.5 -32.5t-140 32.5t-84 91.5 q-6 14 -9.5 27t-5.5 30.5t-2.5 42.5t-0.5 63v392h85z" unicode="U" glyph-name="U"/>
<glyph horiz-adv-x="571" d="M103 667l184 -568l182 568h89l-230 -670h-87l-229 670h91z" unicode="V" glyph-name="V"/>
<glyph horiz-adv-x="795" d="M97 667l129 -559l135 559h74l135 -559l130 559h80l-162 -670h-93l-128 504l-127 -504h-93l-161 670h81z" unicode="W" glyph-name="W"/>
<glyph horiz-adv-x="551" d="M129 667l148 -246l148 246h99l-198 -318l208 -349h-97l-160 270l-162 -270h-97l209 349l-196 318h98z" unicode="X" glyph-name="X"/>
<glyph horiz-adv-x="522" d="M107 667l155 -303l154 303h96l-209 -390v-277h-84v277l-210 390h98z" unicode="Y" glyph-name="Y"/>
<glyph horiz-adv-x="494" d="M466 667v-59l-337 -534h329v-74h-429v67l332 527h-309v73h414z" unicode="Z" glyph-name="Z"/>
<glyph horiz-adv-x="286" d="M248 667v-65h-86v-730h86v-66h-160v861h160z" unicode="[" glyph-name="bracketleft"/>
<glyph horiz-adv-x="568" d="M446 -158l-398 825h74l398 -825h-74z" unicode="\" glyph-name="backslash"/>
<glyph horiz-adv-x="286" d="M37 -194v65h86v730h-86v66h160v-861h-160z" unicode="]" glyph-name="bracketright"/>
<glyph d="M23 361l175 308h105l175 -308h-87l-141 245l-141 -245h-86z" unicode="^" glyph-name="asciicircum"/>
<glyph d="M500 -63v-73h-500v73h500z" unicode="_" glyph-name="underscore"/>
<glyph d="M253 544l-154 142h110l109 -142h-65z" unicode="`" glyph-name="grave"/>
<glyph horiz-adv-x="483" d="M333 250q-56 -9 -95 -20t-63 -25t-35 -32t-11 -41q0 -35 24.5 -57t62.5 -22q33 0 59 14t41 40q17 30 17 100v43zM62 346q8 69 54.5 105t129.5 36q59 0 99 -20t54 -57q4 -10 6.5 -19.5t4 -22t2 -29t0.5 -38.5v-180q0 -27 0.5 -44.5t2 -31t4 -23.5t7.5 -22h-76 q-5 17 -7 29.5t-3 32.5q-42 -75 -138 -75q-72 0 -114 37t-42 100q0 50 27.5 86t81.5 56q17 6 34 11.5t37 10.5t46 9.5t61 10.5v18q0 51 -20.5 72.5t-70.5 21.5q-88 0 -101 -74h-79z" unicode="a" glyph-name="a"/>
<glyph horiz-adv-x="516" d="M276 418q-57 0 -91 -49t-34 -134q0 -81 32.5 -130t86.5 -49q56 0 88 49t32 134q0 82 -30.5 130.5t-83.5 48.5zM152 670v-263q28 42 59.5 61t75.5 19q41 0 75.5 -18t59 -51t38 -79t13.5 -101q0 -56 -14 -102t-40 -79t-62 -51.5t-79 -18.5q-45 0 -76 18.5t-54 60.5 q0 -38 -9 -66h-74q2 11 3.5 21.5t2 24.5t1 34t0.5 52v538h80z" unicode="b" glyph-name="b"/>
<glyph horiz-adv-x="471" d="M346 319q-9 54 -32 77.5t-66 23.5q-57 0 -89.5 -49t-32.5 -135q0 -85 32.5 -133t91.5 -48q45 0 68 25.5t31 83.5h80q-6 -85 -53 -131t-127 -46q-47 0 -85 18t-65 50.5t-41.5 78.5t-14.5 102q0 57 14.5 103.5t41.5 79.5t65.5 50.5t85.5 17.5q77 0 122 -43t53 -125h-79z " unicode="c" glyph-name="c"/>
<glyph horiz-adv-x="516" d="M248 418q-57 0 -89 -48.5t-32 -134.5q0 -83 32 -131t86 -48q56 0 88 48.5t32 132.5t-31.5 132.5t-85.5 48.5zM444 142q0 -32 0.5 -53.5t1.5 -37.5t2.5 -28t4.5 -23h-77q-4 14 -5.5 25t-1.5 25v7.5t1 9.5q-25 -43 -56 -61.5t-78 -18.5q-44 0 -79 17.5t-60.5 49.5t-39 77 t-13.5 101q0 57 14 103.5t38.5 80.5t59 52.5t76.5 18.5q45 0 75.5 -17.5t56.5 -59.5v260h80v-528z" unicode="d" glyph-name="d"/>
<glyph horiz-adv-x="491" d="M366 284q-7 67 -36 102t-80 35q-100 0 -123 -137h239zM125 222q2 -81 36 -124t97 -43q38 0 62.5 15.5t43.5 53.5l74 -7q-21 -64 -67 -97t-114 -33q-49 0 -88.5 17.5t-67.5 49.5t-43 77t-15 101q0 58 15 105t42.5 80.5t66 51.5t85.5 18q45 0 81.5 -17.5t62 -49.5t39.5 -77 t14 -101v-20h-324z" unicode="e" glyph-name="e"/>
<glyph horiz-adv-x="293" d="M281 474v-64h-115v-410h-84v410h-66v64h66v30q0 26 1 44.5t3.5 32.5t6.5 24.5t10 21.5q16 26 44.5 40.5t65.5 14.5t82 -16v-72q-23 10 -38.5 13.5t-31.5 3.5q-35 0 -48.5 -24t-13.5 -85v-28h118z" unicode="f" glyph-name="f"/>
<glyph horiz-adv-x="492" d="M238 17q-66 0 -102.5 -20t-36.5 -57q0 -36 40 -57.5t107 -21.5q65 0 102.5 21t37.5 57q0 38 -38 58t-110 20zM243 418q-45 0 -72.5 -27t-27.5 -72q0 -42 26.5 -67t70.5 -25q45 0 71.5 25t26.5 67q0 44 -26.5 71.5t-68.5 27.5zM471 414l-97 1q18 -17 28 -44.5t10 -58.5 q0 -35 -12.5 -63t-35.5 -45q-32 -23 -106 -38q-22 -4 -34 -6.5t-19.5 -4t-11.5 -3t-10 -4.5q-27 -11 -27 -30q0 -7 3 -11.5t13 -8t29 -6t52 -5.5t56.5 -6t40 -6.5t28.5 -8t23 -10.5q30 -16 46.5 -44.5t16.5 -65.5q0 -70 -58 -109.5t-161 -39.5q-100 0 -159 37t-59 100 q0 43 23.5 70.5t75.5 45.5q-28 11 -39.5 23.5t-11.5 32.5q0 24 19 41t65 35q-91 38 -91 136q0 37 13 67t36 51.5t56 33t74 11.5q20 0 37 -2.5t40 -9.5l147 5v-60z" unicode="g" glyph-name="g"/>
<glyph horiz-adv-x="513" d="M152 670v-251q27 35 59.5 51.5t76.5 16.5q43 0 78 -16.5t54 -46.5q7 -11 11.5 -22.5t7 -29t3.5 -41.5t1 -59v-272h-80v263q0 45 -2.5 68t-10.5 38q-22 46 -81 46q-31 0 -56 -14.5t-41 -40.5q-20 -34 -20 -103v-257h-80v670h80z" unicode="h" glyph-name="h"/>
<glyph horiz-adv-x="229" d="M115 677q24 0 39 -15.5t15 -40.5q0 -23 -15.5 -38.5t-39.5 -15.5t-39.5 15t-15.5 39t16 40t40 16zM156 474v-474h-84v474h84z" unicode="i" glyph-name="i"/>
<glyph horiz-adv-x="255" d="M143 677q24 0 39 -15.5t15 -40.5q0 -23 -15.5 -38.5t-39.5 -15.5t-39.5 15t-15.5 39q0 25 16 40.5t40 15.5zM184 474v-427q0 -40 -1.5 -67t-5 -46t-10 -33t-16.5 -27q-23 -32 -61 -46.5t-97 -14.5h-10.5t-12.5 1v70q6 -1 8.5 -1h7.5q77 0 100 42q4 7 7 16t4.5 22.5 t2 33.5t0.5 49v428h84z" unicode="j" glyph-name="j"/>
<glyph horiz-adv-x="492" d="M152 670v-670h-80v670h80zM446 474l-194 -215l209 -259h-110l-197 257l195 217h97z" unicode="k" glyph-name="k"/>
<glyph horiz-adv-x="229" d="M156 670v-670h-84v670h84z" unicode="l" glyph-name="l"/>
<glyph horiz-adv-x="779" d="M140 474q10 -26 10 -65q23 41 57 59.5t82 18.5q49 0 80.5 -19.5t50.5 -62.5q50 82 148 82q45 0 76.5 -16.5t48.5 -46.5q6 -11 9 -21t5 -24.5t2.5 -36t0.5 -55.5v-287h-80v287q0 21 -0.5 35t-2 24.5t-4 17.5t-6.5 14q-22 37 -76 37q-61 0 -90 -47q-10 -16 -14.5 -37 t-4.5 -53v-278h-80v293q0 40 -4 59.5t-14 33.5t-28.5 21.5t-41.5 7.5q-31 0 -55.5 -13.5t-37.5 -38.5q-17 -31 -17 -89v-274h-80v357q0 24 -0.5 41t-2 30t-4 23.5t-6.5 22.5h79z" unicode="m" glyph-name="m"/>
<glyph horiz-adv-x="514" d="M138 474q5 -15 7.5 -29t2.5 -38q48 80 144 80q41 0 72.5 -14.5t51.5 -41.5q28 -38 28 -115v-316h-80v263q0 25 -0.5 42t-2 28.5t-3.5 19.5t-6 16q-22 46 -80 46q-31 0 -56.5 -14.5t-41.5 -40.5q-11 -17 -16 -41t-5 -59v-260h-80v348q0 26 -0.5 44t-2 31.5t-4 25 t-6.5 25.5h78z" unicode="n" glyph-name="n"/>
<glyph horiz-adv-x="510" d="M256 420q-29 0 -53 -13t-41 -37t-26.5 -57.5t-9.5 -73.5q0 -85 35 -135t95 -50q29 0 52.5 13t40.5 37t26.5 57.5t9.5 74.5t-9.5 75t-26.5 58t-40.5 37.5t-52.5 13.5zM256 487q46 0 85 -18.5t67.5 -51.5t44 -79t15.5 -101t-15.5 -101t-44 -79t-67.5 -51.5t-85 -18.5 q-48 0 -87 18.5t-67 52t-43.5 80t-15.5 102.5q0 54 16 99t44 78t67 51.5t86 18.5z" unicode="o" glyph-name="o"/>
<glyph horiz-adv-x="516" d="M273 418q-56 0 -89 -49t-33 -133q0 -81 33.5 -130.5t88.5 -49.5t85.5 47t30.5 132t-31 134t-85 49zM72 331q0 32 -0.5 54t-1.5 37.5t-2.5 27.5t-4.5 24h77q5 -12 7 -27.5t2 -39.5q26 42 57 61t76 19q43 0 78 -18t60 -51t38.5 -79.5t13.5 -102.5t-13.5 -101.5t-38 -78.5 t-58.5 -51t-75 -18q-45 0 -76 17.5t-59 58.5v-260h-80v528z" unicode="p" glyph-name="p"/>
<glyph horiz-adv-x="516" d="M246 418q-54 0 -86.5 -50t-32.5 -134q0 -82 31 -130t85 -48q57 0 90 48.5t33 132.5q0 81 -33 131t-87 50zM364 62q-28 -41 -57.5 -58t-71.5 -17q-43 0 -78 18t-60 50t-39 77.5t-14 100.5q0 57 14 104t39 80t60.5 51.5t79.5 18.5q46 0 77 -19t53 -60q0 20 2 37.5t7 28.5 h77q-3 -12 -4.5 -24t-2.5 -28t-1.5 -38t-0.5 -53v-528h-80v259z" unicode="q" glyph-name="q"/>
<glyph horiz-adv-x="337" d="M143 474q5 -17 7 -36t2 -37q0 -5 -0.5 -12t-1.5 -16q26 59 56.5 86.5t68.5 27.5q25 0 54 -14v-81q-22 13 -36 17.5t-30 4.5q-28 0 -51 -18.5t-38 -52.5q-10 -23 -14.5 -53.5t-4.5 -75.5v-214h-81v346q0 25 -0.5 42.5t-1 32t-2 26.5t-4.5 27h77z" unicode="r" glyph-name="r"/>
<glyph horiz-adv-x="448" d="M319 341q-9 81 -93 81q-38 0 -62 -19t-24 -48q0 -14 4.5 -24t16.5 -18.5t33.5 -17t56.5 -18.5q56 -17 83 -29.5t41 -28.5q29 -32 29 -83q0 -69 -47 -109t-129 -40q-90 0 -137.5 41.5t-47.5 120.5h77q9 -97 107 -97q44 0 69.5 21t25.5 56q0 33 -30 52q-6 3 -11.5 5.5 t-16 6.5t-29 9.5t-49.5 15.5q-70 21 -98.5 51t-28.5 80q0 31 12 56.5t34.5 43.5t53 28t68.5 10q78 0 122 -37.5t48 -108.5h-78z" unicode="s" glyph-name="s"/>
<glyph horiz-adv-x="323" d="M289 474l-1 -64h-110l-4 -229q0 -14 -0.5 -21.5t-0.5 -12v-6.5v-5q0 -44 10.5 -59.5t41.5 -15.5q33 0 70 16l-1 -70q-24 -9 -44.5 -13t-43.5 -4q-74 0 -102 46q-8 13 -11 29.5t-3 46.5v8v11t0.5 18.5t1.5 32.5l6 228h-72l1 64h73l3 137h79l-3 -137h110z" unicode="t" glyph-name="t"/>
<glyph horiz-adv-x="509" d="M150 474v-286q0 -36 4 -58t12 -35q25 -36 79 -36q62 0 93 52q11 17 15 39.5t4 57.5v266h80v-330v-61t1 -36t3.5 -23.5t6.5 -23.5h-77q-5 12 -7.5 28t-2.5 34q-22 -39 -52.5 -57t-76.5 -18q-47 0 -83.5 19t-56.5 54q-12 20 -17 48.5t-5 78.5v287h80z" unicode="u" glyph-name="u"/>
<glyph horiz-adv-x="446" d="M95 474l127 -386l128 386h84l-168 -479h-88l-168 479h85z" unicode="v" glyph-name="v"/>
<glyph horiz-adv-x="678" d="M98 474l99 -367l108 367h68l108 -367l100 367h83l-139 -479h-81l-106 354l-104 -354h-81l-138 479h83z" unicode="w" glyph-name="w"/>
<glyph horiz-adv-x="453" d="M124 474l103 -162l104 162h97l-152 -222l172 -252h-97l-124 188l-125 -188h-97l173 252l-149 222h95z" unicode="x" glyph-name="x"/>
<glyph horiz-adv-x="450" d="M102 474l124 -388l129 388h84l-178 -503q-32 -92 -81 -131.5t-129 -39.5h-9.5t-14.5 1v71h17q27 0 47 5t35 17.5t27 33t23 51.5l5 13l-165 482h86z" unicode="y" glyph-name="y"/>
<glyph horiz-adv-x="403" d="M381 474v-60l-264 -347h260v-67h-355v63l260 344h-238v67h337z" unicode="z" glyph-name="z"/>
<glyph horiz-adv-x="286" d="M174 359q0 -26 -2.5 -44t-9 -32t-17.5 -25t-28 -22q17 -11 28 -21.5t17.5 -25t9 -33t2.5 -43.5v-152q0 -35 3.5 -52t11.5 -26q19 -20 78 -20v-62q-7 -1 -11 -1h-9q-42 0 -70 8t-45 26.5t-24 49t-7 75.5v156q0 45 -12.5 66t-43.5 29v53q31 8 43.5 29t12.5 65v157 q0 45 7 75.5t24 48.5t45 26t70 8h20v-63q-58 1 -78 -20q-8 -9 -11.5 -26t-3.5 -52v-152z" unicode="{" glyph-name="braceleft"/>
<glyph d="M290 667v-834h-80v834h80z" unicode="|" glyph-name="bar"/>
<glyph horiz-adv-x="286" d="M112 113q0 25 2.5 43.5t9 33t17.5 25t28 21.5q-17 11 -28 22t-17.5 25t-9 32t-2.5 44v152q0 35 -3.5 52t-11.5 26q-20 21 -79 20v63h22q42 0 68 -8t44 -26t25.5 -45.5t7.5 -78.5v-157q0 -44 12.5 -65t42.5 -29v-53q-30 -8 -42.5 -29t-12.5 -65v-157q0 -45 -7 -75.5 t-24 -49t-45 -26.5t-70 -8h-9.5t-11.5 1v62q60 0 79 20q8 9 11.5 26t3.5 52v152z" unicode="}" glyph-name="braceright"/>
<glyph horiz-adv-x="667" d="M93 618q16 33 31 56t31.5 36.5t35 19.5t41.5 6q20 0 45 -7.5t66 -25.5q22 -10 36 -16t24.5 -9.5t18 -4.5t16.5 -1q28 0 47 14t42 52l47 -28q-16 -32 -28 -50t-29 -32q-19 -16 -42 -24.5t-46 -8.5q-11 0 -21.5 2t-26 7t-37.5 14t-56 24q-37 17 -62 17q-26 0 -45.5 -16.5 t-40.5 -54.5z" unicode="~" glyph-name="asciitilde"/>
<glyph horiz-adv-x="250" unicode=" " glyph-name="uni00A0"/>
<glyph horiz-adv-x="667" d="M335 525q-35 0 -64.5 -12.5t-52 -34.5t-35 -52t-12.5 -64q0 -33 13 -62.5t35 -51.5t51.5 -35t62.5 -13t62.5 13t51.5 35t35 51.5t13 62.5t-12.5 63t-34.5 52t-51 35t-62 13zM144 222q-49 61 -49 141q0 38 11.5 71t37.5 69l-97 97l46 46l97 -96q67 48 144 48 q39 0 73 -11.5t68 -36.5l97 96l45 -46l-96 -96q26 -34 38 -67.5t12 -73.5q0 -77 -48 -141l96 -96l-46 -47l-96 97q-65 -49 -143 -49q-38 0 -72 11.5t-72 36.5l-95 -95l-46 45z" unicode="¤" glyph-name="currency"/>
<glyph d="M290 153v-320h-80v320h80zM290 667v-335h-80v335h80z" unicode="¦" glyph-name="brokenbar"/>
<glyph d="M205 364q-37 -19 -54 -40t-17 -46q0 -15 7 -28t25 -28t48.5 -33t78.5 -43q69 35 69 88q0 37 -39 62q-10 7 -24.5 15.5t-30.5 18t-32.5 18.5t-30.5 16zM354 491q-6 54 -30 79t-72 25q-43 0 -69 -22t-26 -57q0 -15 3.5 -26t14 -21.5t30.5 -22.5t53 -30q52 -29 82.5 -47 t47.5 -31q49 -39 49 -96q0 -80 -88 -130q37 -27 52.5 -55.5t15.5 -66.5q0 -73 -47 -114t-132 -41q-182 0 -185 175h72q7 -59 32.5 -84t79.5 -25q48 0 75.5 23t27.5 65q0 26 -11.5 43t-43.5 37q-8 5 -15 9t-19 11t-31.5 18t-52.5 29q-57 32 -83 65t-26 73q0 38 20 66t70 59 q-37 27 -52 53.5t-15 61.5q0 32 13 59t35.5 47t53.5 31t68 11q81 0 126 -44t48 -127h-71z" unicode="§" glyph-name="section"/>
<glyph horiz-adv-x="781" d="M395 636q-63 0 -118 -23.5t-95.5 -64.5t-63.5 -96t-23 -119q0 -62 23.5 -117t63.5 -96t94 -64.5t115 -23.5t115 23.5t94.5 64.5t63.5 96t23 118q0 62 -23.5 117t-63 96t-92.5 65t-113 24zM395 680q70 0 132 -27.5t108.5 -74.5t73.5 -110t27 -133q0 -72 -27 -135t-74 -110 t-110 -74t-134 -27t-134 27t-110 74t-74 110t-27 134q0 72 27 135.5t74.5 110t111 73.5t136.5 27zM495 420q-9 39 -30.5 57t-59.5 18q-53 0 -84 -42.5t-31 -114.5t31 -113.5t85 -41.5q85 0 94 99h56q-5 -72 -44 -111t-105 -39q-41 0 -74 14.5t-56.5 41.5t-36.5 65t-13 85 t12.5 85.5t36 65.5t56 42t73.5 15q63 0 100.5 -33t44.5 -93h-55z" unicode="©" glyph-name="copyright"/>
<glyph horiz-adv-x="403" d="M133 75l-94 155l94 161h62l-80 -161l80 -155h-62zM274 75l-94 155l94 161h62l-79 -161l79 -155h-62z" unicode="«" glyph-name="guillemotleft"/>
<glyph d="M386 192h-353v75h433v-267h-80v192z" unicode="¬" glyph-name="logicalnot"/>
<glyph horiz-adv-x="272" d="M272 283v-62h-272v62h272z" unicode="­" glyph-name="uni00AD"/>
<glyph horiz-adv-x="781" d="M395 638q-63 0 -118.5 -23.5t-96 -65t-64 -97t-23.5 -119.5q0 -63 23.5 -118t64 -96t94.5 -65t116 -24t116 24t94.5 65t64 96.5t23.5 118.5q0 62 -23.5 117.5t-63.5 97t-93.5 65.5t-113.5 24zM395 680q70 0 132 -27.5t108.5 -74.5t73.5 -110t27 -133q0 -72 -27 -135 t-74 -110t-110 -74t-134 -27t-134 27t-110 74t-74 110t-27 134q0 72 27 135.5t74.5 110t111 73.5t136.5 27zM354 347h30t21 1t15.5 2.5t13.5 3.5q21 7 32 23t11 39q0 43 -35 57q-7 3 -14 5t-16.5 2.5t-23.5 1t-36 0.5h-24v-135h26zM351 532q24 0 42 -0.5t31.5 -2t24.5 -4.5 t22 -7q32 -12 50 -39.5t18 -63.5q0 -78 -82 -108l108 -175h-71l-101 165h-65v-165h-60v400h83z" unicode="®" glyph-name="registered"/>
<glyph d="M250 628q-19 0 -35.5 -7t-29 -19t-19.5 -28t-7 -34q0 -38 26.5 -64.5t64.5 -26.5q37 0 63.5 26t26.5 64q0 37 -26.5 63t-63.5 26zM250 679q30 0 56 -11t45.5 -30t30.5 -44.5t11 -54.5t-11.5 -54.5t-31 -45t-45.5 -30.5t-55 -11q-30 0 -56.5 11t-46 30.5t-30.5 45 t-11 55.5q0 28 11.5 53.5t31 44.5t45.5 30t56 11z" unicode="°" glyph-name="degree"/>
<glyph horiz-adv-x="540" d="M489 85v-62h-437v62h437zM489 374v-60h-187v-176h-63v176h-187v60h187v194h63v-194h187z" unicode="±" glyph-name="plusminus"/>
<glyph d="M44 480h80v-270q0 -26 2 -45.5t6.5 -34.5t11.5 -26.5t18 -21.5q35 -33 85 -33q29 0 53.5 11.5t41.5 34.5q19 24 26.5 51.5t7.5 72.5v261h80v-480h-80v82q-23 -49 -54 -71.5t-77 -22.5q-40 0 -68.5 17t-52.5 55v-228h-80v648z" unicode="µ" glyph-name="mu"/>
<glyph horiz-adv-x="595" d="M219 316h-13q-41 0 -75 12.5t-58 35.5t-37.5 55t-13.5 70q0 50 22 89.5t62 61.5q49 27 149 27h269v-64h-62v-700h-71v700h-101v-700h-71v413z" unicode="¶" glyph-name="paragraph"/>
<glyph horiz-adv-x="255" d="M128 312q25 0 43 -18t18 -43q0 -26 -18 -44t-44 -18q-25 0 -43 18t-18 43q0 26 18 44t44 18z" unicode="·" glyph-name="periodcentered"/>
<glyph horiz-adv-x="403" d="M269 391l94 -156l-94 -161h-62l80 161l-80 156h62zM128 391l94 -156l-94 -161h-62l79 161l-79 156h62z" unicode="»" glyph-name="guillemotright"/>
<glyph horiz-adv-x="396" d="M33 423h106l25 173q8 58 37 89q27 29 70.5 38t103.5 1v-76q-61 5 -87.5 -8t-32.5 -56l-23 -161h118v-70h-128l-54 -385q-9 -63 -40 -94q-23 -23 -58.5 -29t-84.5 0v74q37 -3 60 6.5t29 49.5l55 378h-96v70z" unicode="ƒ" glyph-name="florin"/>
<glyph horiz-adv-x="509" d="M368 859q24 0 41.5 -17.5t17.5 -42.5t-17.5 -42.5t-42.5 -17.5t-42.5 17.5t-17.5 42.5t17.5 42.5t43.5 17.5zM188 859q24 0 41.5 -17.5t17.5 -42.5t-17.5 -42.5t-42.5 -17.5t-42.5 17.5t-17.5 42.5q0 26 17.5 43t43.5 17zM440 382v-74h-270v-234h299v-74h-384v667h377 v-74h-292v-211h270z" unicode="Ё" glyph-name="uni0401"/>
<glyph horiz-adv-x="631" d="M232 381q62 56 161 56q51 0 91.5 -16.5t63.5 -45.5q29 -38 29 -139v-188q0 -37 -0.5 -61t-2.5 -40.5t-5.5 -28t-9.5 -22.5q-20 -39 -63.5 -59.5t-107.5 -20.5h-28v73h13q87 0 107 44q3 7 5 14.5t3 19.5t1.5 31t0.5 49v174q0 38 -3.5 60t-11.5 36q-14 23 -42 36t-64 13 q-42 0 -74.5 -15t-62.5 -48v-303h-85v593h-130v74h433v-74h-218v-212z" unicode="Ђ" glyph-name="uni0402"/>
<glyph horiz-adv-x="483" d="M351 870h110l-173 -142h-81zM85 667h374v-74h-286v-593h-88v667z" unicode="Ѓ" glyph-name="uni0403"/>
<glyph horiz-adv-x="597" d="M560 214q-12 -110 -71 -168t-158 -58q-65 0 -117.5 24t-89 69t-56.5 108.5t-20 141.5q0 91 25 162t74 116q35 34 82 52t98 18q45 0 83 -13t66.5 -37t47 -58.5t24.5 -77.5l-76 -15q-26 126 -146 126q-79 0 -127 -59.5t-58 -169.5h237v-71h-238q8 -116 56.5 -178.5 t131.5 -62.5q67 0 106.5 42.5t47.5 123.5z" unicode="Є" glyph-name="uni0404"/>
<glyph horiz-adv-x="551" d="M397 490q-5 55 -37.5 84.5t-87.5 29.5q-51 0 -84 -27t-33 -69q0 -41 39 -66q8 -5 14.5 -9t17.5 -9.5t30.5 -14t53.5 -23.5t58 -26.5t41 -22t28.5 -20t20.5 -19.5q41 -47 41 -117q0 -44 -16 -79.5t-45 -60.5t-70 -39t-91 -14q-63 0 -111 21t-77 61q-20 28 -30 59t-12 79 h84q5 -72 42.5 -108.5t106.5 -36.5q28 0 52.5 8t41.5 22t27 33.5t10 42.5q0 46 -41 79q-8 6 -16 11t-19.5 11t-28.5 14t-42 19q-53 23 -85.5 41t-51.5 33q-58 49 -58 124q0 39 15.5 71.5t42.5 56.5t65 37t83 13q56 0 100 -20t71 -58q17 -23 24.5 -48t9.5 -63h-83z" unicode="Ѕ" glyph-name="uni0405"/>
<glyph horiz-adv-x="255" d="M84 0v667h87v-667h-87z" unicode="І" glyph-name="uni0406"/>
<glyph horiz-adv-x="255" d="M203 857q23 0 40 -17t17 -41t-17 -41t-41 -17t-41 17t-17 41t17 41t42 17zM54 857q23 0 40 -17t17 -41t-17 -41t-41 -17t-41 17t-17 41t17 41t42 17zM84 0v667h87v-667h-87z" unicode="Ї" glyph-name="uni0407"/>
<glyph horiz-adv-x="297" d="M215 667v-532q0 -37 -0.5 -61t-2.5 -40.5t-5.5 -27.5t-9.5 -23q-39 -80 -173 -80h-10.5t-15.5 1v73q5 -1 8 -1h5q73 0 99 32q6 7 9.5 14.5t5.5 21t2.5 35t0.5 56.5v532h87z" unicode="Ј" glyph-name="uni0408"/>
<glyph horiz-adv-x="878" d="M515 74h40q32 0 54.5 0.5t38.5 2.5t28 5t24 8q30 12 46.5 41.5t16.5 70.5q0 45 -21 74.5t-59 39.5q-11 3 -22 4.5t-24.5 2.5t-31.5 1.5t-44 0.5h-46v-251zM562 399q37 0 64.5 -1t48 -3t37 -6t32.5 -10q51 -20 80 -67t29 -110q0 -67 -32 -116t-87 -68q-16 -5 -33 -8.5 t-38.5 -5.5t-49 -3t-64.5 -1h-119v596h-198l-37 -426q-4 -87 -43 -127.5t-125 -46.5v73q23 4 38.5 11t25 19.5t14 32t6.5 48.5l40 487h364v-268h47z" unicode="Љ" glyph-name="uni0409"/>
<glyph horiz-adv-x="923" d="M559 74h40q32 0 54.5 0.5t38.5 2.5t28 4.5t24 7.5q30 13 46.5 41.5t16.5 67.5q0 45 -21 73.5t-59 38.5q-11 3 -21.5 4.5t-24 2.5t-31.5 1.5t-45 0.5h-46v-245zM606 393q37 0 64 -1t48 -3t37.5 -6t32.5 -10q51 -19 80 -65.5t29 -109.5q0 -66 -32 -114t-87 -66 q-16 -5 -33 -8.5t-38.5 -5.5t-49 -3t-64.5 -1h-119v319h-304v-319h-85v667h85v-277h304v277h85v-274h47z" unicode="Њ" glyph-name="uni040A"/>
<glyph horiz-adv-x="646" d="M232 381q62 56 161 56q51 0 91.5 -16.5t63.5 -45.5q29 -38 29 -139v-236h-87v221q0 38 -3.5 60t-11.5 36q-14 23 -42 36t-64 13q-42 0 -74.5 -15t-62.5 -48v-303h-85v593h-130v74h433v-74h-218v-212z" unicode="Ћ" glyph-name="uni040B"/>
<glyph horiz-adv-x="571" d="M409 870h110l-173 -142h-81zM170 667v-667h-85v667h85zM539 667l-268 -314l292 -353h-115l-276 350l265 317h102z" unicode="Ќ" glyph-name="uni040C"/>
<glyph horiz-adv-x="522" d="M163 867q28 -76 98 -76q33 0 58 19.5t38 56.5h41q-6 -61 -43.5 -98t-93.5 -37t-94 37t-45 98h41zM106 667l151 -356l159 356h96l-314 -667h-85l98 220l-202 447h97z" unicode="Ў" glyph-name="uni040E"/>
<glyph horiz-adv-x="644" d="M85 0v667h85v-596h304v596h85v-667h-194v-100h-85v100h-195z" unicode="Џ" glyph-name="uni040F"/>
<glyph horiz-adv-x="573" d="M286 563l-101 -320h202zM325 670l229 -670h-88l-56 169h-248l-56 -169h-88l229 670h78z" unicode="А" glyph-name="uni0410"/>
<glyph horiz-adv-x="534" d="M170 74h40q32 0 54.5 0.5t38.5 2.5t28 5t24 8q30 12 46.5 41.5t16.5 70.5q0 45 -21 74.5t-59 39.5q-11 3 -22 4.5t-24.5 2.5t-31.5 1.5t-44 0.5h-46v-251zM170 399h47q37 0 64.5 -1t48 -3t37 -6t32.5 -10q51 -20 80 -67t29 -110q0 -67 -32 -116t-87 -68q-16 -5 -33 -8.5 t-38.5 -5.5t-49 -3t-64.5 -1h-119v667h342v-73h-257v-195z" unicode="Б" glyph-name="uni0411"/>
<glyph horiz-adv-x="557" d="M234 72q29 0 50.5 1t37.5 2.5t28 4.5t23 8q26 11 40.5 39t14.5 65q0 40 -18.5 68.5t-52.5 40.5q-11 4 -21.5 6t-24.5 3.5t-32 2t-44 0.5h-66v-241h65zM230 383q47 0 73 4t46 15q23 12 35.5 36t12.5 55q0 32 -15 55.5t-41 34.5q-19 7 -42.5 9.5t-72.5 2.5h-57v-212h61z M218 667q33 0 57 -1t43 -2.5t33.5 -5t28.5 -7.5q49 -17 76 -56.5t27 -94.5q0 -57 -27 -92t-84 -52q75 -18 110.5 -59t35.5 -110q0 -61 -31 -107t-83 -63q-17 -5 -33 -8.5t-37.5 -5.5t-51.5 -2.5t-73 -0.5h-124v667h133z" unicode="В" glyph-name="uni0412"/>
<glyph horiz-adv-x="483" d="M85 667h374v-74h-286v-593h-88v667z" unicode="Г" glyph-name="uni0413"/>
<glyph horiz-adv-x="602" d="M433 596h-198l-34 -399q-5 -49 -17.5 -79t-34.5 -47h284v525zM92 0v-100h-85v171h9q46 0 70 32.5t30 101.5l38 462h364v-596h66v-171h-85v100h-407z" unicode="Д" glyph-name="uni0414"/>
<glyph horiz-adv-x="509" d="M440 382v-74h-270v-234h299v-74h-384v667h377v-74h-292v-211h270z" unicode="Е" glyph-name="uni0415"/>
<glyph horiz-adv-x="825" d="M455 667v-283h44l213 283h101l-241 -314l266 -353h-115l-223 313h-45v-313h-85v313h-45l-223 -313h-115l266 353l-241 314h101l213 -283h44v283h85z" unicode="Ж" glyph-name="uni0416"/>
<glyph horiz-adv-x="530" d="M54 494q12 87 70 135.5t148 48.5q48 0 87 -12.5t66 -36t42 -56.5t15 -73q0 -109 -110 -154q119 -39 119 -159q0 -44 -16 -81t-45 -63t-69.5 -40.5t-89.5 -14.5q-102 0 -160.5 57.5t-69.5 166.5l80 13q21 -161 146 -161q63 0 98.5 32t35.5 89t-35 88t-101 31h-34v71h31 q60 0 94.5 30.5t34.5 84.5q0 51 -33 82t-90 31q-54 0 -86 -27t-50 -88z" unicode="З" glyph-name="uni0417"/>
<glyph horiz-adv-x="652" d="M85 667h81v-506l322 459v47h80v-667h-80v508l-322 -463v-45h-81v667z" unicode="И" glyph-name="uni0418"/>
<glyph horiz-adv-x="652" d="M229 867q28 -76 98 -76q33 0 58 19.5t38 56.5h41q-6 -61 -43.5 -98t-93.5 -37t-94 37t-45 98h41zM85 667h81v-506l322 459v47h80v-667h-80v508l-322 -463v-45h-81v667z" unicode="Й" glyph-name="uni0419"/>
<glyph horiz-adv-x="571" d="M170 667v-667h-85v667h85zM539 667l-268 -314l292 -353h-115l-276 350l265 317h102z" unicode="К" glyph-name="uni041A"/>
<glyph horiz-adv-x="599" d="M515 667v-667h-85v596h-198l-37 -426q-4 -87 -43 -127.5t-125 -46.5v73q23 4 38.5 11t25 19.5t14 32t6.5 48.5l40 487h364z" unicode="Л" glyph-name="uni041B"/>
<glyph horiz-adv-x="779" d="M211 667l179 -574l179 574h126v-667h-80v577l-182 -577h-87l-181 577v-577h-80v667h126z" unicode="М" glyph-name="uni041C"/>
<glyph horiz-adv-x="644" d="M474 384v283h85v-667h-85v313h-304v-313h-85v667h85v-283h304z" unicode="Н" glyph-name="uni041D"/>
<glyph horiz-adv-x="652" d="M326 605q-42 0 -76.5 -19t-59 -54.5t-38 -85t-13.5 -109.5q0 -63 13 -114t37.5 -87t59 -55t77.5 -19q42 0 76.5 19.5t59 55t37.5 85.5t13 112q0 61 -13 111.5t-37.5 85.5t-59 54.5t-76.5 19.5zM326 679q62 0 113 -25t87.5 -70.5t56.5 -109t20 -140.5t-20 -141 t-56.5 -109.5t-87.5 -70.5t-113 -25q-63 0 -114.5 25t-87.5 71t-56 110.5t-20 143.5q0 75 20.5 138t57 108t87.5 70t113 25z" unicode="О" glyph-name="uni041E"/>
<glyph horiz-adv-x="644" d="M559 0h-85v596h-304v-596h-85v667h474v-667z" unicode="П" glyph-name="uni041F"/>
<glyph horiz-adv-x="534" d="M216 341q26 0 44 0.5t31.5 1.5t24.5 2.5t22 4.5q38 10 59 40t21 75q0 41 -16.5 70t-46.5 42q-12 5 -24 8t-28 5t-38.5 2.5t-54.5 0.5h-40v-252h46zM204 667q37 0 64.5 -1t49 -3t38.5 -5.5t33 -8.5q55 -19 87 -68t32 -116q0 -64 -29 -111t-80 -67q-16 -6 -32.5 -10t-37 -6 t-48 -3t-64.5 -1h-47v-267h-85v667h119z" unicode="Р" glyph-name="uni0420"/>
<glyph horiz-adv-x="601" d="M472 476q-27 128 -146 128q-43 0 -77.5 -19t-59 -54t-37.5 -85t-13 -113q0 -62 13 -112t37.5 -85t59 -54t78.5 -19q68 0 107 42.5t48 125.5h79q-8 -118 -68 -180.5t-163 -62.5q-65 0 -117 24t-88.5 69t-56.5 108.5t-20 142.5q0 91 25 161.5t74 115.5q35 34 82 52t98 18 q57 0 103.5 -21t75.5 -60q20 -26 29.5 -53t14.5 -69h-78z" unicode="С" glyph-name="uni0421"/>
<glyph horiz-adv-x="471" d="M452 667v-74h-174v-593h-85v593h-174v74h433z" unicode="Т" glyph-name="uni0422"/>
<glyph horiz-adv-x="522" d="M106 667l151 -356l159 356h96l-314 -667h-85l98 220l-202 447h97z" unicode="У" glyph-name="uni0423"/>
<glyph horiz-adv-x="719" d="M400 134q43 1 79.5 16t62.5 41.5t40.5 62.5t14.5 80q0 43 -14.5 79.5t-40.5 62.5t-62.5 41t-79.5 16v-399zM318 533q-44 -1 -80 -16t-62 -41t-40.5 -62.5t-14.5 -79.5q0 -44 14.5 -80t40.5 -62.5t62 -41.5t80 -16v399zM400 602q78 -6 133 -29q70 -32 109.5 -95t39.5 -144 t-39.5 -144.5t-109.5 -95.5q-55 -23 -133 -29v-65h-82v65q-78 6 -133 29q-70 32 -109.5 95.5t-39.5 144.5t39.5 144t109.5 95q55 23 133 29v65h82v-65z" unicode="Ф" glyph-name="uni0424"/>
<glyph horiz-adv-x="551" d="M129 667l148 -246l148 246h99l-198 -318l208 -349h-97l-160 270l-162 -270h-97l209 349l-196 318h98z" unicode="Х" glyph-name="uni0425"/>
<glyph horiz-adv-x="644" d="M615 71v-171h-85v100h-445v667h85v-596h304v596h85v-596h56z" unicode="Ц" glyph-name="uni0426"/>
<glyph horiz-adv-x="581" d="M411 0v286q-62 -56 -161 -56q-53 0 -95 16.5t-65 45.5q-8 11 -13.5 23t-8.5 30t-4.5 43.5t-1.5 62.5v216h85v-194q0 -30 0.5 -50t2.5 -33.5t5 -22.5t8 -17q15 -23 44 -36t66 -13q42 0 75.5 15t62.5 48v303h85v-667h-85z" unicode="Ч" glyph-name="uni0427"/>
<glyph horiz-adv-x="892" d="M723 71v596h85v-667h-723v667h85v-596h234v596h85v-596h234z" unicode="Ш" glyph-name="uni0428"/>
<glyph horiz-adv-x="892" d="M863 71v-171h-85v100h-693v667h85v-596h234v596h85v-596h234v596h85v-596h55z" unicode="Щ" glyph-name="uni0429"/>
<glyph horiz-adv-x="631" d="M267 74h40q32 0 54.5 0.5t38.5 2.5t28 5t24 8q30 12 46.5 41.5t16.5 70.5q0 45 -21 74.5t-59 39.5q-11 3 -22 4.5t-24.5 2.5t-31.5 1.5t-44 0.5h-46v-251zM267 667v-268h47q37 0 64.5 -1t48 -3t37 -6t32.5 -10q51 -20 80 -67t29 -110q0 -67 -32 -116t-87 -68 q-16 -5 -33 -8.5t-38.5 -5.5t-49 -3t-64.5 -1h-119v594h-179v73h264z" unicode="Ъ" glyph-name="uni042A"/>
<glyph horiz-adv-x="763" d="M592 0v667h87v-667h-87zM170 74h40q32 0 54.5 0.5t38.5 2.5t28 5t24 8q30 12 46.5 41.5t16.5 70.5q0 45 -21 74.5t-59 39.5q-11 3 -22 4.5t-24.5 2.5t-31.5 1.5t-44 0.5h-46v-251zM85 667h85v-268h47q37 0 64.5 -1t48 -3t37 -6t32.5 -10q51 -20 80 -67t29 -110 q0 -67 -32 -116t-87 -68q-16 -5 -33 -8.5t-38.5 -5.5t-49 -3t-64.5 -1h-119v667z" unicode="Ы" glyph-name="uni042B"/>
<glyph horiz-adv-x="534" d="M170 74h40q32 0 54.5 0.5t38.5 2.5t28 5t24 8q30 12 46.5 41.5t16.5 70.5q0 45 -21 74.5t-59 39.5q-11 3 -22 4.5t-24.5 2.5t-31.5 1.5t-44 0.5h-46v-251zM85 667h85v-268h47q37 0 64.5 -1t48 -3t37 -6t32.5 -10q51 -20 80 -67t29 -110q0 -67 -32 -116t-87 -68 q-16 -5 -33 -8.5t-38.5 -5.5t-49 -3t-64.5 -1h-119v667z" unicode="Ь" glyph-name="uni042C"/>
<glyph horiz-adv-x="597" d="M116 229q8 -81 47.5 -123.5t106.5 -42.5q83 0 131.5 62.5t56.5 178.5h-238v71h237q-10 110 -58 169.5t-127 59.5q-120 0 -146 -126l-76 15q6 43 24.5 77.5t47 58.5t66.5 37t83 13q51 0 98 -18t82 -52q49 -45 74 -116t25 -162q0 -78 -20 -141.5t-56.5 -108.5t-89 -69 t-117.5 -24q-99 0 -158 58t-71 168z" unicode="Э" glyph-name="uni042D"/>
<glyph horiz-adv-x="882" d="M557 604q-42 0 -76.5 -19t-59 -54t-38 -84.5t-13.5 -110.5q0 -63 13 -113.5t37.5 -86.5t59 -55t77.5 -19q42 0 76.5 19t59 54.5t37.5 85.5t13 112q0 61 -13 111.5t-37.5 85.5t-59 54.5t-76.5 19.5zM282 384q6 67 28.5 122t58.5 93t83.5 59t104.5 21q62 0 113 -25 t87.5 -70.5t56.5 -109.5t20 -141t-20 -140.5t-56.5 -109t-87.5 -70.5t-113 -25q-60 0 -110 23t-86 66t-57 102.5t-24 133.5h-110v-313h-85v667h85v-283h112z" unicode="Ю" glyph-name="uni042E"/>
<glyph horiz-adv-x="567" d="M397 593h-44q-35 0 -57.5 -0.5t-38 -2t-26.5 -5t-22 -8.5q-29 -13 -44 -39t-15 -62q0 -41 18.5 -69.5t52.5 -40.5q11 -4 22 -6.5t25 -4t33.5 -2t48.5 -0.5h47v240zM482 0h-85v279h-111l-162 -279h-102l171 293q-133 50 -133 182q0 59 28 104t77 65q17 7 34 11.5t38.5 7 t50 3.5t67.5 1h127v-667z" unicode="Я" glyph-name="uni042F"/>
<glyph horiz-adv-x="483" d="M333 250q-56 -9 -95 -20t-63 -25t-35 -32t-11 -41q0 -35 24.5 -57t62.5 -22q33 0 59 14t41 40q17 30 17 100v43zM62 346q8 69 54.5 105t129.5 36q59 0 99 -20t54 -57q4 -10 6.5 -19.5t4 -22t2 -29t0.5 -38.5v-180q0 -27 0.5 -44.5t2 -31t4 -23.5t7.5 -22h-76 q-5 17 -7 29.5t-3 32.5q-42 -75 -138 -75q-72 0 -114 37t-42 100q0 87 84 131q28 14 73 26.5t114 24.5l16 2v18q0 51 -20.5 72.5t-70.5 21.5q-88 0 -101 -74h-79z" unicode="а" glyph-name="uni0430"/>
<glyph horiz-adv-x="513" d="M257 420q-29 0 -52.5 -13.5t-40.5 -37.5t-26.5 -58t-9.5 -75t9.5 -74.5t26.5 -57.5t40.5 -37t52.5 -13t53 13t41 37t26.5 57t9.5 73q0 42 -9.5 76.5t-26.5 58.5t-41 37.5t-53 13.5zM421 606q-32 -17 -69 -17q-12 0 -24 2t-35 7q-11 3 -18.5 4t-14.5 1q-18 0 -39.5 -12 t-38.5 -30q-15 -18 -26.5 -54.5t-16.5 -80.5q29 33 58.5 47.5t67.5 14.5q45 0 83 -18.5t65 -51.5t42 -79.5t15 -101.5t-15.5 -101t-44 -79t-67.5 -51.5t-85 -18.5q-42 0 -78.5 15t-64.5 44q-37 37 -53.5 90t-16.5 133q0 126 21.5 218t60.5 134q57 61 124 61q11 0 24 -1.5 t33 -6.5q23 -5 30.5 -6.5t18.5 -1.5q20 0 34.5 3.5t29.5 11.5v-75z" unicode="б" glyph-name="uni0431"/>
<glyph horiz-adv-x="452" d="M205 67q37 0 56 3.5t32 11.5q27 19 27 58q0 47 -39 64q-8 3 -14 5t-14.5 3t-19.5 1.5t-28 0.5h-53v-147h53zM202 281q53 0 77.5 16t24.5 50q0 28 -19 44q-11 10 -28 13t-55 3h-50v-126h50zM198 474q48 0 80.5 -6t54.5 -19q26 -15 40 -40t14 -57q0 -70 -70 -98 q88 -30 88 -116q0 -41 -19 -72t-54 -47q-12 -6 -24.5 -9.5t-28 -5.5t-36 -3t-47.5 -1h-124v474h126z" unicode="в" glyph-name="uni0432"/>
<glyph horiz-adv-x="361" d="M72 474h263v-67h-183v-407h-80v474z" unicode="г" glyph-name="uni0433"/>
<glyph horiz-adv-x="505" d="M349 67v340h-155l-22 -259q-6 -54 -41 -81h218zM100 -100h-80v167q18 2 31 8t21.5 17.5t13.5 29.5t7 44l26 308h310v-407h50v-167h-80v100h-299v-100z" unicode="д" glyph-name="uni0434"/>
<glyph horiz-adv-x="491" d="M366 284q-7 67 -36 102t-80 35q-100 0 -123 -137h239zM125 222q2 -81 36 -124t97 -43q38 0 62.5 15.5t43.5 53.5l74 -7q-21 -64 -67 -97t-114 -33q-49 0 -88.5 17.5t-67.5 49.5t-43 77t-15 101q0 58 15 105t42.5 80.5t66 51.5t85.5 18q45 0 81.5 -17.5t62 -49.5t39.5 -77 t14 -101v-20h-324z" unicode="е" glyph-name="uni0435"/>
<glyph horiz-adv-x="625" d="M273 214h-37l-143 -214h-93l169 255l-158 219h90l138 -193h34v193h78v-193h34l138 193h90l-158 -219l169 -255h-93l-143 214h-37v-214h-78v214z" unicode="ж" glyph-name="uni0436"/>
<glyph horiz-adv-x="454" d="M117 151q8 -51 32.5 -73.5t70.5 -22.5q48 0 76 21.5t28 56.5q0 38 -30 56t-94 18h-14v67h10q29 0 45 3t30 11q18 11 28.5 27.5t10.5 35.5q0 30 -25 49.5t-63 19.5q-45 0 -68 -20.5t-31 -68.5l-81 7q8 71 55.5 110t125.5 39q37 0 68.5 -10t54 -27.5t35 -42t12.5 -54.5 q0 -37 -20 -65.5t-56 -45.5q90 -26 90 -112q0 -32 -13.5 -58.5t-38 -45t-58.5 -29t-75 -10.5q-81 0 -128.5 40.5t-56.5 117.5z" unicode="з" glyph-name="uni0437"/>
<glyph horiz-adv-x="516" d="M443 0h-80v335l-211 -302v-33h-80v474h80v-332l211 299v33h80v-474z" unicode="и" glyph-name="uni0438"/>
<glyph horiz-adv-x="516" d="M176 685q23 -76 84 -76q57 0 81 76h43q-7 -64 -39.5 -100.5t-83.5 -36.5q-52 0 -87 37.5t-41 99.5h43zM443 0h-80v335l-211 -302v-33h-80v474h80v-332l211 299v33h80v-474z" unicode="й" glyph-name="uni0439"/>
<glyph horiz-adv-x="476" d="M152 474v-474h-80v474h80zM446 474l-194 -215l209 -259h-110l-197 257l195 217h97z" unicode="к" glyph-name="uni043A"/>
<glyph horiz-adv-x="494" d="M14 71q19 3 32 10t21.5 20.5t13 35.5t7.5 55l24 282h310v-474h-80v407h-155l-21 -247q-8 -78 -44.5 -117.5t-107.5 -44.5v73z" unicode="л" glyph-name="uni043B"/>
<glyph horiz-adv-x="617" d="M188 474l122 -385l123 385h111v-474h-77v389l-124 -389h-71l-123 387v-387h-77v474h116z" unicode="м" glyph-name="uni043C"/>
<glyph horiz-adv-x="516" d="M152 214v-214h-80v474h80v-193h211v193h80v-474h-80v214h-211z" unicode="н" glyph-name="uni043D"/>
<glyph horiz-adv-x="510" d="M256 420q-29 0 -53 -13t-41 -37t-26.5 -57.5t-9.5 -73.5q0 -85 35 -135t95 -50q29 0 52.5 13t40.5 37t26.5 57.5t9.5 74.5t-9.5 75t-26.5 58t-40.5 37.5t-52.5 13.5zM256 487q46 0 85 -18.5t67.5 -51.5t44 -79t15.5 -101t-15.5 -101t-44 -79t-67.5 -51.5t-85 -18.5 q-48 0 -87 18.5t-67 52t-43.5 80t-15.5 102.5q0 54 16 99t44 78t67 51.5t86 18.5z" unicode="о" glyph-name="uni043E"/>
<glyph horiz-adv-x="516" d="M443 474v-474h-80v407h-211v-407h-80v474h371z" unicode="п" glyph-name="uni043F"/>
<glyph horiz-adv-x="516" d="M273 418q-56 0 -89 -49t-33 -133q0 -81 33.5 -130.5t88.5 -49.5t85.5 47t30.5 132t-31 134t-85 49zM72 331q0 32 -0.5 54t-1.5 37.5t-2.5 27.5t-4.5 24h77q5 -12 7 -27.5t2 -39.5q26 42 57 61t76 19q43 0 78 -18t60 -51t38.5 -79.5t13.5 -102.5t-13.5 -101.5t-38 -78.5 t-58.5 -51t-75 -18q-45 0 -76 17.5t-59 58.5v-260h-80v528z" unicode="р" glyph-name="uni0440"/>
<glyph horiz-adv-x="471" d="M346 319q-9 54 -32 77.5t-66 23.5q-57 0 -89.5 -49t-32.5 -135q0 -85 32.5 -133t91.5 -48q45 0 68 25.5t31 83.5h80q-6 -85 -53 -131t-127 -46q-47 0 -85 18t-65 50.5t-41.5 78.5t-14.5 102q0 57 14.5 103.5t41.5 79.5t65.5 50.5t85.5 17.5q77 0 122 -43t53 -125h-79z " unicode="с" glyph-name="uni0441"/>
<glyph horiz-adv-x="368" d="M362 407h-138v-407h-80v407h-138v67h356v-67z" unicode="т" glyph-name="uni0442"/>
<glyph horiz-adv-x="450" d="M102 474l124 -388l129 388h84l-178 -503q-32 -92 -81 -131.5t-129 -39.5h-9.5t-14.5 1v71h17q27 0 47 5t35 17.5t27 33t23 51.5l5 13l-165 482h86z" unicode="у" glyph-name="uni0443"/>
<glyph horiz-adv-x="679" d="M379 185q0 -65 20.5 -99t60.5 -34q48 0 72 47t24 138t-24 138t-72 47q-81 0 -81 -139v-98zM301 283q0 139 -81 139q-48 0 -72 -47t-24 -138t24 -138t72 -47q40 0 60.5 34t20.5 99v98zM379 439q17 26 38 37.5t52 11.5q37 0 68 -18.5t53 -51.5t34.5 -79.5t12.5 -102.5 t-12.5 -102t-34.5 -79t-53 -51.5t-68 -18.5q-31 0 -52 11.5t-38 38.5v-232h-78v232q-17 -27 -38 -38.5t-52 -11.5q-37 0 -68 18.5t-53 51.5t-34.5 79t-12.5 102t12.5 102.5t34.5 79.5t53 51.5t68 18.5q31 0 52 -11.5t38 -37.5v231h78v-231z" unicode="ф" glyph-name="uni0444"/>
<glyph horiz-adv-x="453" d="M124 474l103 -162l104 162h97l-152 -222l172 -252h-97l-124 188l-125 -188h-97l173 252l-149 222h95z" unicode="х" glyph-name="uni0445"/>
<glyph horiz-adv-x="516" d="M490 67v-167h-82v100h-336v474h80v-407h211v407h80v-407h47z" unicode="ц" glyph-name="uni0446"/>
<glyph horiz-adv-x="486" d="M334 0v189q-52 -53 -134 -53q-45 0 -80 15t-54 42q-7 10 -11.5 21t-7 26.5t-3.5 37.5t-1 54v142h80v-133q0 -39 2.5 -59t10.5 -34q22 -40 83 -40q38 0 65 15t50 48v203h80v-474h-80z" unicode="ч" glyph-name="uni0447"/>
<glyph horiz-adv-x="712" d="M72 0v474h80v-407h164v407h80v-407h163v407h80v-474h-567z" unicode="ш" glyph-name="uni0448"/>
<glyph horiz-adv-x="713" d="M686 67v-167h-82v100h-532v474h80v-407h164v407h80v-407h163v407h80v-407h47z" unicode="щ" glyph-name="uni0449"/>
<glyph horiz-adv-x="484" d="M3 407v67h206v-177h44q30 0 52 -1t38.5 -4t30 -8t25.5 -12q64 -37 64 -123q0 -94 -74 -129q-12 -6 -24.5 -9.5t-28 -6t-36 -3.5t-47.5 -1h-124v407h-126zM210 67h53q38 0 57 3.5t32 13.5q28 20 28 65q0 49 -32 68q-13 8 -31.5 11t-53.5 3h-53v-164z" unicode="ъ" glyph-name="uni044A"/>
<glyph horiz-adv-x="618" d="M152 67h53q38 0 56.5 3.5t32.5 13.5q27 21 27 64q0 49 -32 68q-13 8 -31 11t-53 3h-53v-163zM152 474v-177h44q30 0 52 -1t38.5 -4t30 -8t25.5 -12q64 -38 64 -123q0 -94 -74 -129q-23 -11 -52 -15.5t-84 -4.5h-124v474h80zM545 474v-474h-84v474h84z" unicode="ы" glyph-name="uni044B"/>
<glyph horiz-adv-x="427" d="M152 67h53q38 0 56.5 3.5t32.5 13.5q27 21 27 64q0 49 -32 68q-13 8 -31 11t-53 3h-53v-163zM152 474v-177h44q30 0 52 -1t38.5 -4t30 -8t25.5 -12q64 -38 64 -123q0 -94 -74 -129q-23 -11 -52 -15.5t-84 -4.5h-124v474h80z" unicode="ь" glyph-name="uni044C"/>
<glyph horiz-adv-x="471" d="M122 155q8 -52 31.5 -76.5t67.5 -24.5q53 0 84 38t38 113h-150v67h150q-8 72 -38.5 110t-81.5 38q-80 0 -96 -91l-80 7q11 72 56.5 111.5t117.5 39.5q47 0 85.5 -17.5t65.5 -50.5t41.5 -79.5t14.5 -103.5q0 -56 -15 -102t-42 -78.5t-65 -50.5t-85 -18q-98 0 -144 69 q-31 45 -34 93z" unicode="э" glyph-name="uni044D"/>
<glyph horiz-adv-x="695" d="M439 420q-29 0 -53 -13t-41 -37t-26.5 -57.5t-9.5 -73.5q0 -85 35 -135t95 -50q58 0 93.5 50t35.5 132q0 41 -9.5 75t-26.5 58t-40.5 37.5t-52.5 13.5zM229 280q14 97 69.5 152.5t140.5 55.5q46 0 85 -18.5t67.5 -52t44 -79.5t15.5 -101t-15.5 -101t-44 -79t-67.5 -51.5 t-85 -18.5q-44 0 -81.5 16.5t-65.5 46t-45 71t-20 92.5h-75v-213h-80v474h80v-194h77z" unicode="ю" glyph-name="uni044E"/>
<glyph horiz-adv-x="454" d="M301 407h-53q-38 0 -56.5 -3.5t-32.5 -13.5q-27 -21 -27 -64q0 -49 32 -68q13 -8 31 -11t53 -3h53v163zM121 0h-86l100 192q-39 9 -63.5 46t-24.5 87q0 94 74 129q12 6 24 9.5t28 6t36 3.5t48 1h124v-474h-80v177h-44h-21.5t-24.5 1z" unicode="я" glyph-name="uni044F"/>
<glyph horiz-adv-x="491" d="M332 673q23 0 39 -16t16 -39t-16 -39.5t-39 -16.5t-39.5 16t-16.5 39q0 24 16.5 40t39.5 16zM161 673q23 0 39 -16t16 -39t-16 -39.5t-39 -16.5t-39.5 16t-16.5 39q0 24 16.5 40t39.5 16zM366 284q-7 67 -36 102t-80 35q-100 0 -123 -137h239zM125 222q2 -81 36 -124 t97 -43q38 0 62.5 15.5t43.5 53.5l74 -7q-21 -64 -67 -97t-114 -33q-49 0 -88.5 17.5t-67.5 49.5t-43 77t-15 101q0 58 15 105t42.5 80.5t66 51.5t85.5 18q45 0 81.5 -17.5t62 -49.5t39.5 -77t14 -101v-20h-324z" unicode="ё" glyph-name="uni0451"/>
<glyph horiz-adv-x="513" d="M232 -116q6 -1 9 -1h7q78 0 101 42q4 7 7 16t4.5 22.5t2 33.5t0.5 49v217q0 47 -3 69t-10 37q-23 46 -81 46q-31 0 -56 -14.5t-40 -40.5q-20 -34 -20 -103v-257h-80v545h-57v60h57v65h80v-65h139v-60h-139v-126q26 35 59 51.5t77 16.5q43 0 77.5 -17t53.5 -46 q7 -11 11.5 -23t7 -29t3.5 -41t1 -59v-225q0 -40 -1.5 -67t-5 -46t-9.5 -33t-16 -27q-24 -32 -61.5 -46.5t-96.5 -14.5h-9.5t-11.5 1v70z" unicode="ђ" glyph-name="uni0452"/>
<glyph horiz-adv-x="361" d="M286 686h111l-154 -142h-65zM72 474h263v-67h-183v-407h-80v474z" unicode="ѓ" glyph-name="uni0453"/>
<glyph horiz-adv-x="471" d="M428 149q-8 -75 -55.5 -118.5t-122.5 -43.5q-47 0 -85 18t-65 50.5t-42 78.5t-15 102q0 57 14.5 103.5t41.5 79.5t65.5 50.5t85.5 17.5q72 0 117.5 -39.5t56.5 -111.5l-80 -7q-16 91 -96 91q-51 0 -81.5 -38t-38.5 -110h150v-67h-150q7 -75 38 -113t84 -38 q44 0 67.5 24.5t31.5 76.5z" unicode="є" glyph-name="uni0454"/>
<glyph horiz-adv-x="448" d="M319 341q-9 81 -93 81q-38 0 -62 -19t-24 -48q0 -14 4.5 -24t16.5 -18.5t33.5 -17t56.5 -18.5q56 -17 83 -29.5t41 -28.5q29 -32 29 -83q0 -69 -47 -109t-129 -40q-90 0 -137.5 41.5t-47.5 120.5h77q9 -97 107 -97q44 0 69.5 21t25.5 56q0 33 -30 52q-6 3 -11.5 5.5 t-16 6.5t-29 9.5t-49.5 15.5q-70 21 -98.5 51t-28.5 80q0 31 12 56.5t34.5 43.5t53 28t68.5 10q78 0 122 -37.5t48 -108.5h-78z" unicode="ѕ" glyph-name="uni0455"/>
<glyph horiz-adv-x="229" d="M115 677q24 0 39 -15.5t15 -40.5q0 -23 -15.5 -38.5t-39.5 -15.5t-39.5 15t-15.5 39t16 40t40 16zM156 474v-474h-84v474h84z" unicode="і" glyph-name="uni0456"/>
<glyph horiz-adv-x="229" d="M187 673q23 0 39 -16t16 -39t-16 -39.5t-39 -16.5t-39.5 16t-16.5 39q0 24 16.5 40t39.5 16zM42 673q23 0 39 -16t16 -39t-16 -39.5t-39 -16.5t-39.5 16t-16.5 39q0 24 16.5 40t39.5 16zM156 474v-474h-84v474h84z" unicode="ї" glyph-name="uni0457"/>
<glyph horiz-adv-x="255" d="M143 677q24 0 39 -15.5t15 -40.5q0 -23 -15.5 -38.5t-39.5 -15.5t-39.5 15t-15.5 39q0 25 16 40.5t40 15.5zM184 474v-427q0 -40 -1.5 -67t-5 -46t-10 -33t-16.5 -27q-23 -32 -61 -46.5t-97 -14.5h-10.5t-12.5 1v70q6 -1 8.5 -1h7.5q77 0 100 42q4 7 7 16t4.5 22.5 t2 33.5t0.5 49v428h84z" unicode="ј" glyph-name="uni0458"/>
<glyph horiz-adv-x="696" d="M422 67h53q38 0 56.5 3.5t32.5 13.5q27 21 27 64q0 49 -32 68q-13 8 -31 11t-53 3h-53v-163zM466 297q30 0 52 -1t38.5 -4t30 -8t25.5 -12q64 -38 64 -123q0 -94 -74 -129q-23 -11 -52 -15.5t-84 -4.5h-124v407h-155l-21 -247q-15 -155 -152 -162v73q19 3 32 10 t21.5 20.5t13 35.5t7.5 55l24 282h310v-177h44z" unicode="љ" glyph-name="uni0459"/>
<glyph horiz-adv-x="718" d="M443 67h53q38 0 57 3.5t32 12.5q27 19 27 61q0 46 -32 64q-14 8 -31.5 10.5t-52.5 2.5h-53v-154zM487 288q30 0 52 -1t38.5 -4t30 -7.5t25.5 -11.5q64 -37 64 -120q0 -90 -74 -125q-23 -11 -52 -15t-84 -4h-124v221h-211v-221h-80v474h80v-186h211v186h80v-186h44z" unicode="њ" glyph-name="uni045A"/>
<glyph horiz-adv-x="513" d="M153 670v-65h139v-60h-139v-126q52 68 136 68q43 0 77.5 -17t53.5 -46q7 -11 11.5 -23t7 -29t3.5 -41t1 -59v-272h-80v263q0 47 -3 69t-10 37q-23 46 -81 46q-30 0 -55.5 -14.5t-40.5 -40.5q-20 -34 -20 -103v-257h-80v545h-57v60h57v65h80z" unicode="ћ" glyph-name="uni045B"/>
<glyph horiz-adv-x="476" d="M319 686h111l-154 -142h-65zM152 474v-474h-80v474h80zM446 474l-194 -215l209 -259h-110l-197 257l195 217h97z" unicode="ќ" glyph-name="uni045C"/>
<glyph horiz-adv-x="450" d="M145 685q23 -76 84 -76q57 0 81 76h43q-7 -64 -39.5 -100.5t-83.5 -36.5q-52 0 -87 37.5t-41 99.5h43zM102 474l124 -388l129 388h84l-178 -503q-32 -92 -81 -131.5t-129 -39.5h-9.5t-14.5 1v71h17q27 0 47 5t35 17.5t27 33t23 51.5l5 13l-165 482h86z" unicode="ў" glyph-name="uni045E"/>
<glyph horiz-adv-x="516" d="M72 0v474h80v-407h211v407h80v-474h-144v-100h-82v100h-145z" unicode="џ" glyph-name="uni045F"/>
<glyph horiz-adv-x="483" d="M173 593v-593h-88v667h289v82h85v-156h-286z" unicode="Ґ" glyph-name="uni0490"/>
<glyph horiz-adv-x="361" d="M152 0h-80v474h182v52h80v-119h-182v-407z" unicode="ґ" glyph-name="uni0491"/>
<glyph d="M435 283v-62h-370v62h370z" unicode="–" glyph-name="endash"/>
<glyph horiz-adv-x="587" d="M587 283v-62h-587v62h587z" unicode="—" glyph-name="emdash"/>
<glyph horiz-adv-x="217" d="M183 678q-12 -11 -24 -26t-21 -30.5t-15 -31.5t-7 -28h4h7q20 -1 35 -16.5t15 -37.5q0 -24 -17.5 -41t-43.5 -17q-29 0 -46.5 21t-17.5 56t18.5 75t51.5 76h61z" unicode="‘" glyph-name="quoteleft"/>
<glyph horiz-adv-x="223" d="M40 450q27 26 45.5 59t20.5 57h-4q-23 -2 -39.5 14.5t-16.5 39.5q0 25 17.5 42t43.5 17q29 0 46.5 -21t17.5 -56q0 -71 -71 -152h-60z" unicode="’" glyph-name="quoteright"/>
<glyph horiz-adv-x="223" d="M40 -116q26 26 45 59t21 57q-28 0 -44 14.5t-16 40.5q0 24 17.5 41t43.5 17q29 0 46.5 -21t17.5 -55q0 -70 -71 -153h-60z" unicode="‚" glyph-name="quotesinglbase"/>
<glyph horiz-adv-x="376" d="M183 678q-12 -11 -24 -26t-21 -30.5t-15 -31.5t-7 -28h4h7q20 -1 35 -16.5t15 -37.5q0 -24 -17.5 -41t-43.5 -17q-29 0 -46.5 21t-17.5 56t18.5 75t51.5 76h61zM341 678q-12 -11 -23.5 -26t-20.5 -31t-15 -31.5t-7 -27.5h4h6q21 -1 36 -17t15 -37q0 -24 -17.5 -41 t-43.5 -17q-29 0 -46.5 21t-17.5 55q0 36 18.5 76t51.5 76h60z" unicode="“" glyph-name="quotedblleft"/>
<glyph horiz-adv-x="384" d="M201 450q26 26 45 59t21 57q-28 0 -44 14.5t-16 40.5q0 24 17.5 41t43.5 17q29 0 46.5 -21t17.5 -56q0 -69 -71 -152h-60zM34 450q26 26 45 58.5t21 57.5q-28 0 -44 14.5t-16 40.5q0 24 17.5 41t43.5 17q29 0 46.5 -21t17.5 -56q0 -69 -71 -152h-60z" unicode="”" glyph-name="quotedblright"/>
<glyph horiz-adv-x="384" d="M201 -117q27 27 45.5 59.5t20.5 57.5q-28 0 -44 14.5t-16 39.5q0 24 17.5 41t43.5 17q29 0 46.5 -21t17.5 -56q0 -68 -71 -152h-60zM34 -117q27 27 45.5 59.5t20.5 57.5q-28 0 -44 14.5t-16 39.5q0 24 17.5 41t43.5 17q29 0 46.5 -21t17.5 -56q0 -68 -71 -152h-60z" unicode="„" glyph-name="quotedblbase"/>
<glyph d="M290 650v-180h170v-66h-170v-536h-78v536h-172v66h172v180h78z" unicode="†" glyph-name="dagger"/>
<glyph d="M288 650v-108h173v-66h-173v-413h173v-66h-173v-129h-76v129h-172v66h172v413h-172v66h172v108h76z" unicode="‡" glyph-name="daggerdbl"/>
<glyph horiz-adv-x="667" d="M337 477q28 0 52.5 -11t43 -30t29.5 -44t11 -53q0 -29 -11 -54.5t-29.5 -44t-44 -29.5t-53.5 -11q-29 0 -54 11t-44 29.5t-30 43.5t-11 54t11 54.5t30 44t44.5 29.5t55.5 11z" unicode="•" glyph-name="bullet"/>
<glyph horiz-adv-x="697" d="M570 113q25 0 43 -18t18 -43q0 -26 -18 -44t-44 -18q-25 0 -43 18t-18 43q0 26 18 44t44 18zM349 113q25 0 43 -18t18 -44q0 -25 -18 -43t-44 -18q-25 0 -43 18t-18 43q0 26 18 44t44 18zM128 113q25 0 43 -18t18 -44q0 -25 -18 -43t-44 -18q-25 0 -43 18t-18 43 q0 26 18 44t44 18z" unicode="…" glyph-name="ellipsis"/>
<glyph horiz-adv-x="902" d="M156 618q-30 0 -49.5 -29.5t-19.5 -76.5q0 -48 19 -77.5t49 -29.5t49.5 29.5t19.5 77.5q0 46 -19.5 76t-48.5 30zM157 672q27 0 50 -12.5t40.5 -34t27.5 -51t10 -62.5q0 -34 -10 -63.5t-27.5 -51t-41.5 -34t-51 -12.5t-50.5 12.5t-41 34t-27.5 51t-10 63.5t10 63 t27.5 50.5t41.5 34t52 12.5zM749 262q-31 0 -50 -29.5t-19 -76.5q0 -48 19 -77.5t49 -29.5t49 29.5t19 77.5q0 46 -19 76t-48 30zM749 316q27 0 50.5 -12.5t40.5 -34t27 -51t10 -62.5q0 -34 -10 -63.5t-27 -51t-41 -34t-51 -12.5t-51 12.5t-41 34t-27 51t-10 63.5t10 63 t27.5 50.5t41 34t51.5 12.5zM447 262q-31 0 -50 -29.5t-19 -76.5q0 -48 19 -77.5t49 -29.5t49.5 30t19.5 77q0 46 -19.5 76t-48.5 30zM448 316q27 0 50 -12.5t40.5 -34t27.5 -51t10 -62.5q0 -34 -10 -63.5t-27.5 -51t-41 -34t-50.5 -12.5t-51 12.5t-41.5 34t-27.5 51 t-10 63.5t10 63t27.5 50.5t41.5 34t52 12.5zM531 667l-391 -667h-70l391 667h70z" unicode="‰" glyph-name="perthousand"/>
<glyph horiz-adv-x="253" d="M127 71l-94 157l94 163h66l-79 -163l79 -157h-66z" unicode="‹" glyph-name="guilsinglleft"/>
<glyph horiz-adv-x="253" d="M126 393l94 -158l-94 -163h-66l79 163l-79 158h66z" unicode="›" glyph-name="guilsinglright"/>
<glyph horiz-adv-x="540" d="M451 417l-26 -56h-272v-7q-1 -16 -1 -19.5v-8.5v-11.5t1 -15.5h244l-25 -56h-213q9 -49 22.5 -83t33.5 -55.5t48 -31.5t66 -10q74 0 131 43q18 14 31 30t30 45v-108q-44 -43 -93.5 -62.5t-116.5 -19.5q-209 0 -240 252h-78l24 56h49v18v22t2 22h-74l24 56h56 q20 124 85 189.5t168 65.5q60 0 112 -22.5t88 -64.5l-36 -78q-38 51 -76.5 73t-86.5 22q-67 0 -110.5 -48.5t-57.5 -136.5h291z" unicode="€" glyph-name="Euro"/>
<glyph horiz-adv-x="591" d="M371 350q-11 -3 -22 -5q-11 -1 -24 -2t-32 -2h-44h-46v252h40h55q23 -1 38 -3q17 -2 28 -5q12 -3 24 -8q30 -13 47 -42q16 -29 16 -70q0 -45 -21 -75t-59 -40zM422 649q-16 5 -33 9q-17 3 -38 5q-22 2 -49 3t-65 1h-119v-326h-68v-74h68v-57h-68v-74h68v-136h85v136h237 v74h-237v57h47q37 0 65 1q27 1 48 3t37 6t32 10q51 20 80 67t29 111q0 67 -32 116t-87 68z" unicode="₽" glyph-name="uni20BD"/>
<glyph horiz-adv-x="925" d="M760 393q-26 0 -42 -22.5t-16 -57.5q0 -37 16 -59.5t42 -22.5t41.5 22.5t15.5 58.5t-15.5 58.5t-41.5 22.5zM760 461q28 0 51 -11t39.5 -31t26 -47t9.5 -60t-9.5 -60t-26 -47t-39.5 -31t-51 -11q-57 0 -92 41.5t-35 109.5q0 32 9.5 59t26.5 46.5t40 30.5t51 11zM177 667 l311 -538v538h80v-667h-91l-311 537v-537h-81v667h92zM886 125v-67h-253v67h253z" unicode="№" glyph-name="uni2116"/>
<glyph horiz-adv-x="789" d="M424 667l118 -331l119 331h84v-400h-56v324l-117 -324h-59l-117 324v-324h-56v400h84zM286 667v-50h-108v-350h-60v350h-109v50h277z" unicode="™" glyph-name="trademark"/>
</font>
</defs>
</svg>
