<?xml version="1.0" encoding="UTF-8" standalone="no"?>
<!DOCTYPE svg  PUBLIC '-//W3C//DTD SVG 1.1//EN'  'http://www.w3.org/Graphics/SVG/1.1/DTD/svg11.dtd'>
<svg xmlns="http://www.w3.org/2000/svg" version="1.1">
<defs>
<font id="CorporateSW10LightItalic" horiz-adv-x="513">
<font-face font-weight="200" panose-1="0 0 4 0 0 0 0 0 0 0" cap-height="667" bbox="-99 -205 879 853" underline-position="-145" underline-thickness="49" slope="-14" x-height="473" units-per-em="1000" unicode-range="U+0020-2122" ascent="738" font-family="Corporate S W10 Light Italic" descent="-262" font-style="italic"/>
<missing-glyph horiz-adv-x="0"/>
<glyph glyph-name=".notdef" horiz-adv-x="0"/>
<glyph glyph-name="glyph1" horiz-adv-x="0"/>
<glyph glyph-name="glyph2" horiz-adv-x="0"/>
<glyph unicode=" " glyph-name="space" horiz-adv-x="232"/>
<glyph unicode="!" glyph-name="exclam" horiz-adv-x="252" d="M88 90q17 0 29 -12t12 -30q0 -23 -17 -41t-39 -18q-18 0 -30.5 12t-12.5 29q0 24 17.5 42t40.5 18zM260 656l-130 -480h-39l113 480h56z"/>
<glyph unicode='&quot;' glyph-name="quotedbl" horiz-adv-x="302" d="M236 400l59 267h59l-74 -267h-44zM108 400l59 267h59l-74 -267h-44z"/>
<glyph unicode="#" glyph-name="numbersign" horiz-adv-x="600" d="M261 416l-24 -154h158l24 154h-158zM553 216h-114l-34 -216h-52l34 216h-157l-35 -216h-51l34 216h-114l7 46h114l24 154h-113l7 46h114l32 205h52l-33 -205h158l33 205h51l-32 -205h114l-8 -46h-113l-25 -154h114z"/>
<glyph unicode="$" glyph-name="dollar" d="M233 38q34 1 62.5 12t49 30t31.5 45t11 57q0 38 -19.5 67t-70.5 65zM332 628q-60 -2 -95.5 -33t-35.5 -81q0 -33 16.5 -57.5t62.5 -56.5zM357 737h37l-14 -62q67 -11 101 -48t34 -99q0 -4 -0.5 -12.5t-1.5 -16.5h-56q1 7 1 13v11q0 87 -89 103l-58 -248q23 -16 37.5 -26 t23.5 -17t14 -11.5t11 -10.5q52 -51 52 -122q0 -44 -16.5 -81t-45.5 -64t-69 -42.5t-87 -15.5h-10l-15 -64h-36l15 68q-74 12 -112 54t-38 111q0 11 1 20t3 23h57q-2 -13 -2.5 -21t-0.5 -16q0 -53 25 -82t79 -40l68 296q-18 13 -30 21.5t-20 14.5t-13.5 11.5l-11.5 11.5 q-48 48 -48 112q0 78 54.5 124t147.5 46z"/>
<glyph unicode="%" glyph-name="percent" horiz-adv-x="590" d="M455 271q-43 0 -74 -54q-14 -23 -21 -50.5t-7 -54.5q0 -74 53 -74q20 0 38.5 13t32.5 35.5t22 51.5t8 62q0 34 -13.5 52.5t-38.5 18.5zM459 315q47 0 73 -31t26 -86q0 -39 -13 -77.5t-36 -69.5q-42 -57 -106 -57q-48 0 -74.5 30.5t-26.5 84.5q0 42 12.5 79.5t34 65.5 t50 44.5t60.5 16.5zM610 667l-527 -667h-51l526 667h52zM239 629q-43 0 -74 -53q-14 -23 -21 -51t-7 -54q0 -74 53 -74q20 0 38.5 13t32.5 35t22 51.5t8 61.5q0 34 -13.5 52.5t-38.5 18.5zM243 673q47 0 73 -31t26 -86q0 -38 -13 -76.5t-36 -69.5q-43 -57 -107 -57 q-47 0 -73.5 30.5t-26.5 84.5q0 42 12.5 79t34 65t50 44.5t60.5 16.5z"/>
<glyph unicode="&amp;" glyph-name="ampersand" horiz-adv-x="558" d="M225 330q-80 -44 -114 -87.5t-34 -101.5q0 -48 28 -74t79 -26q40 0 73.5 15t66.5 47zM258 402q67 44 94.5 78.5t27.5 74.5q0 28 -17.5 44t-48.5 16q-40 0 -65.5 -26.5t-25.5 -68.5q0 -22 9.5 -54.5t25.5 -63.5zM475 298q-11 -60 -32.5 -105.5t-56.5 -86.5l46 -106h-63 l-27 63q-20 -19 -39 -32t-38 -21t-39.5 -11.5t-44.5 -3.5q-75 0 -116.5 37.5t-41.5 104.5q0 96 84 167q18 15 40.5 30t60.5 37q-5 11 -12 28.5t-9 21.5q-11 26 -17 52.5t-6 47.5q0 30 11.5 55.5t32 44.5t48.5 29.5t60 10.5q54 0 85 -26.5t31 -73.5q0 -66 -58 -126 q-7 -7 -14.5 -14t-18.5 -15.5t-26.5 -20t-39.5 -27.5l89 -205q45 60 60 145h51z"/>
<glyph unicode="&apos;" glyph-name="quotesingle" horiz-adv-x="250" d="M146 400l59 267h59l-74 -267h-44z"/>
<glyph unicode="(" glyph-name="parenleft" horiz-adv-x="273" d="M371 672q-60 -51 -103 -106.5t-78 -126.5q-45 -94 -67.5 -188t-22.5 -195q0 -33 1.5 -60t5.5 -55.5t10.5 -62t17.5 -78.5h-31q-30 70 -44 136.5t-14 141.5q0 94 24 189t71 184q39 75 84 128t103 93h43z"/>
<glyph unicode=")" glyph-name="parenright" horiz-adv-x="273" d="M-92 -200q32 28 57.5 55t47.5 55t40.5 58.5t35.5 65.5q46 94 68 188t22 196q0 33 -1.5 60.5t-6 56.5t-11.5 62t-17 75h32q58 -129 58 -278q0 -94 -24 -188.5t-71 -183.5q-38 -73 -82 -125.5t-105 -96.5h-43z"/>
<glyph unicode="*" glyph-name="asterisk" horiz-adv-x="500" d="M332 651l44 -11l-30 -120l124 9l3 -45l-124 -9l46 -115l-41 -17l-47 115l-95 -80l-29 35l95 80l-105 66l24 38l105 -66z"/>
<glyph unicode="+" glyph-name="plus" d="M489 355v-38h-186v-192h-40v192h-185v38h185v192h40v-192h186z"/>
<glyph unicode="," glyph-name="comma" horiz-adv-x="251" d="M-37 -119q42 30 70 59.5t39 55.5h-11q-15 0 -25 10t-10 24q0 11 5 22t13.5 19.5t19.5 13.5t23 5q20 0 32.5 -13t12.5 -34q0 -69 -111 -162h-58z"/>
<glyph unicode="-" glyph-name="hyphen" horiz-adv-x="270" d="M282 274l-11 -44h-270l11 44h270z"/>
<glyph unicode="." glyph-name="period" horiz-adv-x="251" d="M87 90q17 0 29 -12t12 -30q0 -23 -17 -41t-39 -18q-18 0 -30.5 12t-12.5 29q0 24 17.5 42t40.5 18z"/>
<glyph unicode="/" glyph-name="slash" horiz-adv-x="585" d="M561 667h66l-584 -800h-66z"/>
<glyph unicode="0" glyph-name="zero" d="M347 611q-48 0 -86.5 -32t-74.5 -103q-16 -31 -29 -68.5t-22.5 -77t-15 -78.5t-5.5 -73q0 -68 26 -103.5t77 -35.5q49 0 87 32.5t73 104.5q16 32 28.5 69t21.5 75.5t14 77.5t5 74q0 67 -25.5 102.5t-73.5 35.5zM351 659q74 0 113 -49.5t39 -144.5q0 -44 -6.5 -91t-19 -92 t-30 -87t-39.5 -76q-42 -66 -88 -96.5t-106 -30.5q-76 0 -116.5 50t-40.5 144q0 44 7.5 92t21 94.5t32 89.5t41.5 78q41 62 87 90.5t105 28.5z"/>
<glyph unicode="1" glyph-name="one" d="M216 561q60 2 95.5 24t57.5 71h37l-163 -656h-52l131 528l-116 -7z"/>
<glyph unicode="2" glyph-name="two" d="M145 460q19 98 72 149t137 51q68 0 110.5 -35.5t42.5 -92.5q0 -35 -16.5 -68.5t-58.5 -81.5q-14 -17 -26 -30.5t-32 -34.5t-53 -55t-89 -92q-6 -6 -14.5 -15t-22 -23t-32 -34t-45.5 -48h285l-13 -50h-358l10 42q5 5 23.5 24.5t44 46t55 57.5t58 60t52 53.5t36.5 38.5 q44 46 71.5 77t42.5 53.5t20.5 39.5t5.5 36q0 36 -27.5 58.5t-72.5 22.5q-119 0 -151 -149h-55z"/>
<glyph unicode="3" glyph-name="three" d="M143 485q42 174 196 174q36 0 65.5 -10t51 -28t33 -43.5t11.5 -56.5q0 -63 -36.5 -109t-102.5 -66q85 -31 85 -128q0 -47 -18.5 -88t-50 -71.5t-73.5 -48.5t-90 -18q-77 0 -123.5 42.5t-46.5 113.5v11t2 22h55q-1 -6 -1 -11.5v-7.5q0 -120 117 -120q36 0 67 14t54.5 38 t37 56.5t13.5 68.5q0 107 -122 107h-9.5t-12.5 -1l13 50l31 -1q31 0 59 11.5t49 30.5t33.5 44.5t12.5 54.5q0 42 -29 67.5t-78 25.5q-54 0 -87 -29.5t-50 -93.5h-56z"/>
<glyph unicode="4" glyph-name="four" d="M414 602l-309 -386h207zM463 216l-13 -50h-97l-43 -172h-55l43 171h-268l10 42l365 449h68l-109 -440h99z"/>
<glyph unicode="5" glyph-name="five" d="M524 650l-21 -50h-227l-76 -203q27 23 54 32.5t61 9.5q67 0 105.5 -40.5t38.5 -112.5q0 -54 -19 -108t-53 -97q-35 -44 -80 -66.5t-99 -22.5q-67 0 -107 36t-40 98l1 22h54q0 -29 3 -43t11 -26q12 -17 34.5 -27t49.5 -10q42 0 78.5 22.5t63.5 65.5q21 34 33.5 74.5 t12.5 78.5q0 49 -27 77.5t-74 28.5q-38 0 -69.5 -18.5t-61.5 -57.5l-47 5l117 332h284z"/>
<glyph unicode="6" glyph-name="six" d="M306 386q-73 0 -125 -78q-23 -33 -36 -75.5t-13 -80.5q0 -52 25.5 -82t70.5 -30q74 0 125 77q23 34 36.5 75.5t13.5 79.5q0 53 -26 83.5t-71 30.5zM506 667q-76 -58 -143 -125t-114 -131q20 12 38 17.5t38 5.5q30 0 54.5 -11.5t42.5 -32.5t27.5 -50.5t9.5 -65.5 q0 -53 -19 -106t-53 -95q-66 -81 -161 -81q-71 0 -111 42.5t-40 118.5q0 80 41 161t132 179q45 48 96 95t95 79h67z"/>
<glyph unicode="7" glyph-name="seven" d="M567 650l-10 -45l-441 -605h-64l444 601l-321 -3l11 52h381z"/>
<glyph unicode="8" glyph-name="eight" d="M274 316q-32 0 -61 -14t-51 -37.5t-34.5 -55t-12.5 -66.5q0 -48 28.5 -75.5t76.5 -27.5q35 0 65 15t51 42q20 26 31 58t11 62q0 44 -29.5 71.5t-74.5 27.5zM348 611q-27 0 -52 -13t-44 -34.5t-30 -50.5t-11 -60q0 -41 24 -66t63 -25q27 0 51.5 12.5t43 34t29.5 50 t11 60.5q0 42 -23.5 67t-61.5 25zM205 345q-27 24 -39 50.5t-12 61.5q0 41 15.5 78t42.5 64.5t62.5 43.5t75.5 16q65 0 102.5 -37.5t37.5 -102.5q0 -63 -33 -112t-91 -70q69 -35 69 -124q0 -44 -18 -86.5t-50 -74.5q-59 -60 -145 -60q-75 0 -119.5 40.5t-44.5 108.5 q0 71 38 124t109 80z"/>
<glyph unicode="9" glyph-name="nine" d="M335 611q-34 0 -65.5 -19.5t-56 -51.5t-39 -74t-14.5 -87q0 -53 26 -83.5t71 -30.5q72 0 125 78q23 33 36 75.5t13 80.5q0 52 -25.5 82t-70.5 30zM57 -16q76 58 143 125t113 131q-20 -12 -37.5 -17.5t-38.5 -5.5q-60 0 -96.5 44t-36.5 116q0 53 19 106t53 95 q66 81 161 81q71 0 111 -42.5t40 -118.5q0 -80 -41 -161t-132 -179q-23 -24 -47.5 -48.5t-49 -47t-48.5 -42.5t-46 -36h-67z"/>
<glyph unicode=":" glyph-name="colon" horiz-adv-x="251" d="M87 90q17 0 29 -12t12 -30q0 -23 -17 -41t-39 -18q-18 0 -30.5 12t-12.5 29q0 24 17.5 42t40.5 18zM185 482q17 0 29 -12t12 -30q0 -23 -17 -41t-39 -18q-18 0 -30.5 12t-12.5 29q0 24 17.5 42t40.5 18z"/>
<glyph unicode=";" glyph-name="semicolon" horiz-adv-x="251" d="M185 482q17 0 29 -12t12 -30q0 -23 -17 -41t-39 -18q-18 0 -30.5 12t-12.5 29q0 24 17.5 42t40.5 18zM-37 -119q42 30 70 59.5t39 55.5h-11q-15 0 -25 10t-10 24q0 11 5 22t13.5 19.5t19.5 13.5t23 5q20 0 32.5 -13t12.5 -34q0 -69 -111 -162h-58z"/>
<glyph unicode="&lt;" glyph-name="less" horiz-adv-x="500" d="M476 503l-377 -168l377 -167v-52l-433 196v47l433 196v-52z"/>
<glyph unicode="=" glyph-name="equal" d="M489 295v-40h-411v40h411zM489 417v-40h-411v40h411z"/>
<glyph unicode="&gt;" glyph-name="greater" horiz-adv-x="500" d="M44 168l377 167l-377 168v52l433 -197v-46l-433 -196v52z"/>
<glyph unicode="?" glyph-name="question" horiz-adv-x="407" d="M158 90q17 0 29 -12t12 -30q0 -23 -17 -41t-39 -18q-18 0 -30.5 12t-12.5 29q0 24 17.5 42t40.5 18zM142 179q9 48 17 79.5t20.5 55t32.5 44.5t53 49q30 25 49 44t30.5 34t15.5 28.5t4 29.5q0 29 -21 46t-57 17q-48 0 -75 -23.5t-44 -77.5h-55q17 75 63 115t117 40 q62 0 97.5 -30.5t35.5 -84.5q0 -20 -5 -37.5t-17 -35.5t-33 -38.5t-52 -46.5q-35 -28 -55.5 -47.5t-33 -40.5t-20 -48.5t-14.5 -71.5h-53z"/>
<glyph unicode="@" glyph-name="at" horiz-adv-x="733" d="M406 465q-27 0 -50 -12.5t-40.5 -34.5t-27.5 -52t-10 -64q0 -57 26.5 -89.5t71.5 -32.5q27 0 50 13.5t39.5 37t26 55.5t9.5 70q0 51 -25 80t-70 29zM575 494l-42 -217q-3 -14 -4.5 -27t-1.5 -21q0 -23 11.5 -36.5t30.5 -13.5q24 0 45.5 16.5t38 44.5t26 64.5t9.5 76.5 q0 58 -20 106t-56 82t-87 53t-112 19q-65 0 -120.5 -23t-96 -64.5t-63.5 -98t-23 -122.5q0 -62 21.5 -118.5t59.5 -98.5q84 -90 234 -90q60 0 110.5 12t107.5 40l13 -37q-107 -53 -231 -53q-81 0 -147.5 25t-114.5 73q-45 46 -71 112t-26 137q0 74 26.5 137t73 109t110.5 72 t139 26q69 0 127 -22t99.5 -61.5t65 -94t23.5 -119.5q0 -48 -13 -91t-35.5 -76t-52 -52.5t-62.5 -19.5q-32 0 -51 19t-21 51q-47 -73 -125 -73q-31 0 -56.5 12t-44 34t-29 51.5t-10.5 65.5q0 42 13.5 79.5t37.5 65t56 43.5t68 16q86 0 115 -85l14 72h41z"/>
<glyph unicode="A" glyph-name="A" horiz-adv-x="546" d="M378 419q0 5 -0.5 9t-1 12.5t-1.5 24t-2 43.5l-5 90q-12 -24 -26 -50t-27 -50.5t-24.5 -45.5t-18.5 -33l-103 -180h220zM410 672l52 -672h-58l-13 189h-252l-109 -189h-59l392 672h47z"/>
<glyph unicode="B" glyph-name="B" horiz-adv-x="527" d="M164 50q32 0 54.5 1t39.5 3t30.5 6.5t27.5 10.5q45 20 71.5 61t26.5 92q0 57 -38.5 80.5t-129.5 23.5h-80l-70 -278h68zM242 378q53 0 84 5t56 18q36 20 58.5 56t22.5 75q0 59 -54 76q-8 3 -17 4.5t-21.5 2.5t-30 1.5t-41.5 0.5h-61l-60 -239h64zM295 667q56 0 90.5 -3.5 t56.5 -11.5q79 -28 79 -117q0 -66 -39.5 -114.5t-111.5 -68.5q54 -17 79.5 -47t25.5 -80q0 -33 -10 -64t-27.5 -57.5t-42 -47t-54.5 -32.5q-17 -7 -35.5 -11.5t-41.5 -7.5t-52.5 -4t-69.5 -1h-113l166 667h100z"/>
<glyph unicode="C" glyph-name="C" horiz-adv-x="605" d="M528 493q-1 3 -1 5.5v3.5v5q-1 59 -33.5 91t-92.5 32q-117 0 -196 -132q-17 -29 -31 -62.5t-24 -68.5t-15.5 -71t-5.5 -69q0 -91 39.5 -140.5t111.5 -49.5q73 0 128 48t81 135h60q-31 -114 -100 -173.5t-170 -59.5q-103 0 -157 62t-54 179q0 45 8 91t22.5 90t35 84 t46.5 72q47 59 101.5 87t122.5 28q88 0 134 -45t47 -131v-11h-57z"/>
<glyph unicode="D" glyph-name="D" horiz-adv-x="615" d="M177 50q49 0 87 5t68.5 16.5t55.5 29.5t48 45q24 27 43 61.5t32.5 72.5t20.5 78t7 79q0 56 -22.5 97.5t-62.5 61.5q-23 11 -56.5 16t-92.5 5h-67l-142 -567h81zM314 667q36 0 64 -2t50.5 -6t40.5 -10.5t34 -15.5q97 -55 97 -199q0 -100 -37.5 -192.5t-103.5 -155.5 q-26 -25 -54 -41.5t-64.5 -26.5t-84 -14t-112.5 -4h-115l166 667h119z"/>
<glyph unicode="E" glyph-name="E" horiz-adv-x="494" d="M441 370l-13 -50h-264l-68 -270h302l-13 -50h-356l166 667h339l-13 -50h-283l-62 -247h265z"/>
<glyph unicode="F" glyph-name="F" horiz-adv-x="468" d="M441 370l-13 -50h-264l-80 -320h-55l166 667h339l-13 -50h-283l-62 -247h265z"/>
<glyph unicode="G" glyph-name="G" horiz-adv-x="609" d="M566 327l-70 -279q-44 -30 -96.5 -45.5t-109.5 -15.5q-222 0 -222 235q0 96 30 187.5t83 156.5q48 59 102 86.5t122 27.5q86 0 133 -44.5t47 -124.5v-18h-58v9v5q-1 60 -32.5 92t-91.5 32q-115 0 -194 -126q-37 -59 -58.5 -135t-21.5 -147q0 -186 167 -186 q36 0 75.5 10.5t74.5 30.5l50 199h-128l13 50h185z"/>
<glyph unicode="H" glyph-name="H" horiz-adv-x="602" d="M497 373l73 294h55l-166 -667h-55l81 326h-320l-81 -326h-55l166 667h55l-73 -294h320z"/>
<glyph unicode="I" glyph-name="I" horiz-adv-x="230" d="M29 0l166 667h58l-166 -667h-58z"/>
<glyph unicode="J" glyph-name="J" horiz-adv-x="273" d="M298 667l-132 -532q-9 -37 -16 -61t-13.5 -40t-13.5 -27t-17 -22q-25 -27 -64.5 -42t-87.5 -15h-8.5t-12.5 1l12 50h11q34 1 58.5 9t42 26t29.5 47.5t22 74.5l133 531h57z"/>
<glyph unicode="K" glyph-name="K" horiz-adv-x="561" d="M250 667l-166 -667h-55l166 667h55zM593 667l-352 -324l209 -343h-72l-206 348l350 319h71z"/>
<glyph unicode="L" glyph-name="L" horiz-adv-x="454" d="M253 667l-154 -617h275l-12 -50h-333l166 667h58z"/>
<glyph unicode="M" glyph-name="M" horiz-adv-x="740" d="M286 667l41 -608l342 608h95l-167 -667h-55l161 631l-357 -631h-62l-46 631l-154 -631h-55l166 667h91z"/>
<glyph unicode="N" glyph-name="N" horiz-adv-x="610" d="M258 667l174 -601l146 601h55l-166 -667h-64l-173 598l-146 -598h-55l166 667h63z"/>
<glyph unicode="O" glyph-name="O" horiz-adv-x="626" d="M404 630q-108 0 -185 -112q-20 -30 -36.5 -66t-28.5 -75t-18.5 -79.5t-6.5 -77.5q0 -85 39.5 -134t108.5 -49q58 0 108 34.5t90 101.5q17 29 31 62.5t23.5 68.5t15 70t5.5 67q0 88 -39 138.5t-107 50.5zM408 680q97 0 150 -63.5t53 -178.5q0 -91 -30 -180t-83 -155 q-48 -59 -102.5 -87.5t-120.5 -28.5q-100 0 -153.5 62.5t-53.5 177.5q0 46 8 93t23 91t36.5 84.5t47.5 72.5q47 57 102 84.5t123 27.5z"/>
<glyph unicode="P" glyph-name="P" horiz-adv-x="503" d="M234 330q33 0 57 1t42 3.5t31.5 7t25.5 10.5q40 20 63.5 62t23.5 93q0 60 -34 85t-117 25h-88l-72 -287h68zM307 667q36 0 62 -1.5t45.5 -5t34.5 -9t27 -14.5q59 -42 59 -128q0 -68 -33 -123.5t-90 -81.5q-15 -7 -31 -11.5t-37 -7.5t-48.5 -4t-65.5 -1h-73l-70 -280h-58 l166 667h112z"/>
<glyph unicode="Q" glyph-name="Q" horiz-adv-x="626" d="M404 630q-108 0 -185 -112q-20 -29 -36.5 -65.5t-28.5 -75.5t-18.5 -79.5t-6.5 -77.5q0 -85 39.5 -134t108.5 -49q57 0 107 34.5t90 101.5q17 28 31 61.5t23.5 69t15 70.5t5.5 67q0 88 -39 138.5t-106 50.5zM557 0h-75l-29 56q-41 -36 -84 -52.5t-95 -16.5 q-99 0 -152.5 62.5t-53.5 177.5q0 46 8 93t23 91t36.5 84t48.5 73q91 112 221 112q100 0 153 -63t53 -181q0 -92 -30.5 -179.5t-87.5 -158.5z"/>
<glyph unicode="R" glyph-name="R" horiz-adv-x="541" d="M229 346q34 0 56 0.5t38 2t28 4.5t26 8q48 18 75 57.5t27 92.5q0 80 -70 98q-17 5 -39 6.5t-72 1.5h-60l-68 -271h59zM307 667q54 0 88 -4t56 -12q86 -35 86 -136q0 -51 -22.5 -96.5t-62.5 -74.5q-23 -16 -47.5 -25.5t-62.5 -16.5l108 -302h-65l-101 296h-126l-74 -296 h-55l166 667h112z"/>
<glyph unicode="S" glyph-name="S" horiz-adv-x="535" d="M465 503q1 5 1 11v9q0 52 -31 79.5t-88 27.5q-61 0 -99.5 -32t-38.5 -83q0 -23 9.5 -43.5t26.5 -35.5q12 -11 29.5 -24t57.5 -39q21 -14 35 -24t24.5 -18t18 -15t14.5 -15q39 -45 39 -110q0 -44 -16.5 -81.5t-46.5 -64.5t-70.5 -42.5t-88.5 -15.5q-90 0 -141 45.5 t-51 123.5q0 10 0.5 18.5t2.5 22.5h57q-2 -11 -2 -18v-16q0 -61 35.5 -93.5t101.5 -32.5q34 0 63 11t50 30t32.5 45.5t11.5 58.5q0 21 -5 38.5t-18 34t-35 34.5t-56 40q-38 26 -58.5 41.5t-35.5 30.5q-43 45 -43 108q0 38 14.5 69.5t40.5 54t63 35t81 12.5q83 0 128.5 -39.5 t45.5 -110.5q0 -3 -0.5 -11t-1.5 -16h-56z"/>
<glyph unicode="T" glyph-name="T" horiz-adv-x="446" d="M541 667l-12 -50h-181l-154 -617h-55l154 617h-181l12 50h417z"/>
<glyph unicode="U" glyph-name="U" horiz-adv-x="552" d="M221 667l-103 -416q-16 -64 -16 -102q0 -112 134 -112q110 0 161 75q8 12 14 23.5t12 28t12.5 42t16.5 65.5l98 396h55l-98 -397q-11 -46 -18.5 -74t-13.5 -46t-11.5 -30t-14.5 -26q-31 -51 -86 -79t-126 -28q-90 0 -140 40.5t-50 112.5q0 21 5.5 57t15.5 73l98 397h55z "/>
<glyph unicode="V" glyph-name="V" horiz-adv-x="498" d="M186 667l40 -600l303 600h59l-349 -673h-56l-54 673h57z"/>
<glyph unicode="W" glyph-name="W" horiz-adv-x="720" d="M186 667l-23 -604l288 604h47l-9 -604l263 604h54l-304 -673h-59l7 571l-274 -571h-60l17 673h53z"/>
<glyph unicode="X" glyph-name="X" horiz-adv-x="522" d="M213 667l87 -277l229 277h66l-275 -325l122 -342h-63l-96 300l-249 -300h-63l292 348l-114 319h64z"/>
<glyph unicode="Y" glyph-name="Y" horiz-adv-x="490" d="M193 667l76 -336l243 336h67l-294 -381l-69 -286h-55l72 286l-103 381h63z"/>
<glyph unicode="Z" glyph-name="Z" horiz-adv-x="505" d="M550 667l-8 -32l-486 -585h374l-12 -50h-444l11 44l478 573h-317l12 50h392z"/>
<glyph unicode="[" glyph-name="bracketleft" horiz-adv-x="273" d="M335 667l-12 -44h-80l-193 -773h81l-11 -44h-133l215 861h133z"/>
<glyph unicode="\" glyph-name="backslash" horiz-adv-x="575" d="M358 -133l-182 800h60l182 -800h-60z"/>
<glyph unicode="]" glyph-name="bracketright" horiz-adv-x="273" d="M-57 -194l11 44h81l192 773h-80l11 44h133l-215 -861h-133z"/>
<glyph unicode="^" glyph-name="asciicircum" horiz-adv-x="500" d="M43 376l183 292h68l183 -292h-58l-160 251l-158 -251h-58z"/>
<glyph unicode="_" glyph-name="underscore" horiz-adv-x="500" d="M510 -72v-49h-500v49h500z"/>
<glyph unicode="`" glyph-name="grave" horiz-adv-x="500" d="M301 674l61 -121h-46l-86 121h71z"/>
<glyph unicode="a" glyph-name="a" horiz-adv-x="457" d="M344 267q-73 -13 -123.5 -27.5t-82 -33t-45.5 -42.5t-14 -55q0 -35 20.5 -53.5t58.5 -18.5q69 0 120 59q17 20 29.5 47.5t22.5 69.5zM101 355q23 66 66.5 96.5t113.5 30.5q66 0 101 -25.5t35 -73.5q0 -14 -2 -27.5t-9 -38.5l-46 -186q-11 -42 -16 -73.5t-5 -57.5h-53 q0 20 1 33.5t5 33.5q-29 -40 -64 -58.5t-81 -18.5q-57 0 -89.5 30.5t-32.5 84.5q0 102 116 148q17 6 30.5 10.5t33.5 10t51 12t83 17.5l15 3l4 17q3 12 5 27.5t2 26.5q0 28 -22 43t-64 15q-50 0 -79 -19t-45 -61h-54z"/>
<glyph unicode="b" glyph-name="b" horiz-adv-x="483" d="M305 435q-37 0 -71 -21.5t-61 -60.5q-13 -19 -24 -43.5t-19 -51t-12.5 -53t-4.5 -50.5q0 -55 26 -86.5t71 -31.5q77 0 132 95q11 19 21 43t17 49t11 49.5t4 44.5q0 57 -23 87t-67 30zM233 669l-65 -264q33 41 66.5 59t75.5 18q66 0 102.5 -42.5t36.5 -118.5 q0 -64 -22.5 -130.5t-60.5 -115.5q-67 -85 -157 -85q-92 0 -124 85q-9 -43 -26 -75h-51q5 11 9.5 21.5t9 25.5t10.5 36t14 54l132 532h50z"/>
<glyph unicode="c" glyph-name="c" horiz-adv-x="455" d="M365 320q2 10 2 16.5v12.5q0 42 -22 64t-63 22q-77 0 -133 -89q-24 -40 -38 -87.5t-14 -92.5q0 -60 28 -94.5t79 -34.5q98 0 133 123h55q-43 -170 -190 -170q-75 0 -117 46.5t-42 130.5q0 64 19.5 121t53 100t77.5 68.5t93 25.5q65 0 103 -40q16 -17 23 -38t7 -53 q0 -9 -0.5 -15t-2.5 -16h-51z"/>
<glyph unicode="d" glyph-name="d" horiz-adv-x="479" d="M276 435q-66 0 -120 -79q-28 -43 -44.5 -97t-16.5 -104q0 -54 25.5 -86t68.5 -32q78 0 131 101q11 20 20 43.5t16 47t10.5 46t3.5 40.5q0 57 -24.5 88.5t-69.5 31.5zM384 137q-14 -59 -19.5 -85.5t-5.5 -40.5v-4.5t1 -6.5h-52q-1 4 -1 7v5q0 28 10 55q-31 -43 -60.5 -60 t-73.5 -17q-66 0 -104 44.5t-38 122.5q0 65 23 131t62 114q66 80 153 80q89 0 120 -87l68 274h50z"/>
<glyph unicode="e" glyph-name="e" horiz-adv-x="476" d="M378 280q3 14 4 22.5t1 19.5q0 54 -26 83t-74 29q-54 0 -96 -39.5t-69 -114.5h260zM106 237q-10 -39 -10 -70q0 -61 29 -95.5t81 -34.5q48 0 81.5 27t58.5 87h56q-26 -79 -76.5 -120t-122.5 -41q-75 0 -118 46t-43 128q0 66 22.5 129t62.5 110q67 79 160 79 q70 0 109 -42.5t39 -118.5q0 -23 -3 -43.5t-8 -40.5h-318z"/>
<glyph unicode="f" glyph-name="f" horiz-adv-x="272" d="M323 473l-11 -43h-114l-108 -430h-53l107 430h-66l11 43h67l11 44q6 26 11 44t9 30.5t8.5 21.5t9.5 17q30 50 101 50q17 0 34 -3t41 -11l-13 -53q-18 11 -31.5 15.5t-30.5 4.5q-18 0 -31.5 -5.5t-24 -19.5t-19 -37t-17.5 -59l-10 -39h119z"/>
<glyph unicode="g" glyph-name="g" horiz-adv-x="449" d="M159 23q-71 0 -110.5 -24.5t-39.5 -68.5q0 -42 39 -67.5t102 -25.5q64 0 104.5 29t40.5 76q0 81 -136 81zM266 439q-25 0 -47.5 -11t-39 -30t-26.5 -44.5t-10 -53.5q0 -40 23.5 -63t64.5 -23q25 0 47 10.5t38 29t25 44t9 54.5q0 41 -22 64t-62 23zM475 428h-100 q14 -19 19.5 -37t5.5 -43q0 -44 -19.5 -83.5t-51.5 -62.5q-11 -8 -22 -13.5t-24 -9.5t-30 -5.5t-39 -2.5q-51 -17 -78.5 -35t-28.5 -35q-1 -11 12 -17t45 -11q95 -12 130 -31q55 -32 55 -93q0 -34 -15 -62.5t-41.5 -48.5t-63.5 -31.5t-82 -11.5q-86 0 -137.5 36.5 t-51.5 97.5q0 46 29 74.5t94 45.5q-17 11 -24.5 21t-7.5 24q0 13 6 24.5t19.5 21.5t36 20.5t56.5 22.5q-75 34 -75 114q0 39 13.5 73t37.5 58.5t56 39t69 14.5q20 0 36.5 -3.5t37.5 -12.5h142z"/>
<glyph unicode="h" glyph-name="h" horiz-adv-x="471" d="M233 669l-63 -252q56 65 136 65q57 0 90.5 -29t33.5 -78q0 -14 -3.5 -34.5t-12.5 -55.5l-71 -285h-50l72 288q5 23 8.5 44t3.5 34q0 32 -22 50.5t-58 18.5q-67 0 -115 -57q-17 -21 -28.5 -46t-21.5 -66l-66 -266h-50l167 669h50z"/>
<glyph unicode="i" glyph-name="i" horiz-adv-x="201" d="M207 674q15 0 25 -10t10 -25q0 -21 -15 -37t-34 -16q-15 0 -25.5 10t-10.5 24q0 22 15 38t35 16zM189 473l-118 -473h-55l118 473h55z"/>
<glyph unicode="j" glyph-name="j" horiz-adv-x="244" d="M250 674q16 0 26 -10t10 -25q0 -21 -15 -37t-35 -16q-15 0 -25.5 10t-10.5 24q0 22 15 38t35 16zM233 473l-110 -440q-9 -35 -15.5 -59t-13.5 -41.5t-13.5 -30t-15.5 -24.5q-24 -32 -61.5 -49.5t-81.5 -17.5h-8.5t-12.5 1l12 47h9q71 0 106 58q10 17 19.5 44.5t20.5 70.5 l110 441h55z"/>
<glyph unicode="k" glyph-name="k" horiz-adv-x="421" d="M233 669l-167 -669h-50l167 669h50zM456 473l-263 -224l162 -249h-70l-153 253l253 220h71z"/>
<glyph unicode="l" glyph-name="l" horiz-adv-x="201" d="M238 669l-167 -669h-55l167 669h55z"/>
<glyph unicode="m" glyph-name="m" horiz-adv-x="719" d="M171 473q1 -5 1 -10v-7q0 -11 -1.5 -21.5t-4.5 -27.5q56 75 138 75q86 0 113 -80q57 80 146 80q51 0 84 -28t33 -72q0 -8 -0.5 -16t-2.5 -18t-5 -22.5t-7 -30.5l-74 -295h-50l74 295q8 29 10.5 45.5t2.5 30.5q0 29 -20 46.5t-55 17.5q-57 0 -96 -38t-57 -113l-71 -284 h-50l74 297q8 29 10.5 44.5t2.5 28.5q0 29 -20 47t-52 18q-30 0 -59 -13.5t-49 -36.5q-17 -18 -29 -43.5t-21 -61.5l-70 -280h-50l79 315q2 8 3 13.5t3 10.5q7 27 11 44.5t6.5 30t3 22.5t0.5 23v5.5t-1 8.5h50z"/>
<glyph unicode="n" glyph-name="n" horiz-adv-x="477" d="M172 473v-18q0 -15 -1.5 -25.5t-6.5 -27.5q29 40 67 60t83 20q57 0 89.5 -27t32.5 -75q0 -9 -1 -18.5t-3 -21.5t-5.5 -28.5t-9.5 -40.5l-68 -271h-50l68 275q10 37 13.5 57.5t3.5 36.5q0 66 -78 66q-132 0 -180 -196l-60 -239h-50l79 315q9 37 14.5 59t8 37t3 25.5 t0.5 25.5v11h51z"/>
<glyph unicode="o" glyph-name="o" horiz-adv-x="484" d="M286 435q-42 0 -74.5 -20.5t-61.5 -65.5q-25 -39 -40 -88.5t-15 -94.5q0 -60 29 -94.5t79 -34.5q77 0 132 83q26 40 41.5 90.5t15.5 97.5q0 58 -29 92.5t-77 34.5zM290 482q72 0 114 -47.5t42 -128.5q0 -64 -23 -127.5t-64 -110.5q-66 -78 -159 -78q-75 0 -117 47.5 t-42 130.5q0 33 7 67.5t20 67t31 61.5t40 52q64 66 151 66z"/>
<glyph unicode="p" glyph-name="p" horiz-adv-x="479" d="M296 441q-76 0 -131 -101q-11 -20 -20 -43.5t-16 -47t-10.5 -46t-3.5 -40.5q0 -57 24.5 -88.5t69.5 -31.5q68 0 120 79q29 43 45.5 97t16.5 104q0 54 -25.5 86t-69.5 32zM101 341q8 31 13 52.5t8 36.5t4 25t1 18h51q1 -14 -1.5 -31t-7.5 -31q31 43 60.5 60t73.5 17 q66 0 104 -44.5t38 -122.5q0 -32 -6 -65.5t-17 -65.5t-27 -61t-35 -53q-66 -80 -153 -80q-89 0 -120 87l-69 -276h-50z"/>
<glyph unicode="q" glyph-name="q" horiz-adv-x="483" d="M277 435q-76 0 -132 -95q-11 -19 -20.5 -43t-16.5 -49t-11 -49.5t-4 -44.5q0 -57 23 -87t67 -30q36 0 70.5 21.5t60.5 60.5q13 19 24 43.5t19 51t12.5 53t4.5 50.5q0 55 -26 86.5t-71 31.5zM255 -193l65 260q-34 -42 -67 -59.5t-75 -17.5q-66 0 -102.5 42.5t-36.5 118.5 q0 64 22.5 130.5t60.5 115.5q67 85 157 85q92 0 124 -85q4 23 10.5 41t16.5 35h50q-5 -11 -9.5 -21.5t-9 -25.5t-10.5 -36.5t-14 -54.5l-132 -528h-50z"/>
<glyph unicode="r" glyph-name="r" horiz-adv-x="304" d="M172 473q1 -55 -16 -102q37 60 70 85.5t74 25.5q26 0 58 -12l-13 -52q-20 7 -30.5 9.5t-22.5 2.5q-55 0 -101 -59t-72 -162l-53 -209h-50l76 304q10 39 15.5 63t8.5 41t4.5 31t3.5 34h48z"/>
<glyph unicode="s" glyph-name="s" horiz-adv-x="419" d="M343 346q1 4 1 8.5v6.5q0 35 -23 54.5t-66 19.5q-45 0 -74.5 -24t-29.5 -61q0 -28 24 -46q5 -5 9 -7.5t11 -6.5t19 -10.5t35 -17.5q31 -16 51.5 -29.5t32.5 -27t16.5 -29t4.5 -34.5q0 -33 -13.5 -61t-37.5 -48.5t-57 -31.5t-72 -11q-70 0 -110 34.5t-40 94.5v8.5t1 14.5 h53v-15q0 -90 98 -90q54 0 88 27t34 71q0 13 -3 23.5t-11.5 19.5t-22.5 18t-35 20q-47 23 -68.5 36.5t-32.5 24.5q-28 29 -28 69q0 30 12 55t33.5 43t50.5 28t64 10q65 0 101 -29t36 -83v-10.5t-1 -13.5h-50z"/>
<glyph unicode="t" glyph-name="t" horiz-adv-x="292" d="M322 472l-10 -43h-115l-64 -258q-11 -44 -15 -63t-4 -30q0 -41 44 -41q31 0 65 14l-12 -49q-20 -7 -34 -9.5t-30 -2.5q-42 0 -65 21t-23 59q0 9 0.5 16.5t3 18.5t6.5 27t11 42l67 255h-69l11 43h69l34 138h50l-34 -138h114z"/>
<glyph unicode="u" glyph-name="u" horiz-adv-x="464" d="M183 473l-74 -296q-5 -23 -8.5 -42.5t-3.5 -30.5q0 -32 21.5 -49.5t59.5 -17.5q63 0 110 58q16 20 27 45.5t22 65.5l66 267h50l-82 -331q-9 -37 -14 -58.5t-7.5 -35t-3 -24t-0.5 -24.5h-51v14q0 21 7 52q-29 -40 -60.5 -58t-74.5 -18q-54 0 -87 29t-33 76q0 34 14 90 l72 288h50z"/>
<glyph unicode="v" glyph-name="v" horiz-adv-x="385" d="M122 473l26 -429l221 429h56l-262 -480h-55l-39 480h53z"/>
<glyph unicode="w" glyph-name="w" horiz-adv-x="622" d="M134 473l3 -400l207 400h54l9 -400l203 400h53l-250 -480h-50l-9 410l-211 -410h-51l-11 480h53z"/>
<glyph unicode="x" glyph-name="x" horiz-adv-x="414" d="M152 473l71 -184l162 184h61l-206 -228l107 -245h-60l-83 209l-191 -209h-60l233 253l-92 220h58z"/>
<glyph unicode="y" glyph-name="y" horiz-adv-x="414" d="M136 473l28 -432l241 432h56l-252 -433q-40 -69 -68.5 -111t-52.5 -66q-59 -62 -147 -62h-7t-10 1l13 53q32 0 55 5t43 20.5t41 44.5t49 76l-43 472h54z"/>
<glyph unicode="z" glyph-name="z" horiz-adv-x="400" d="M415 473l-7 -35l-361 -395h281l-9 -43h-344l8 37l354 393h-251l9 43h320z"/>
<glyph unicode="{" glyph-name="braceleft" horiz-adv-x="273" d="M185 353q-8 -28 -15 -47t-16.5 -32t-22 -22t-30.5 -16q19 -14 26.5 -27t7.5 -31q0 -11 -2.5 -28t-5.5 -31l-43 -169q-9 -36 -9 -62q0 -25 17 -35.5t58 -11.5l-11 -41h-10q-54 0 -79.5 19t-25.5 61q0 17 2.5 33t10.5 48l40 158q3 12 5 26.5t2 22.5q0 37 -39 50l9 36 q32 8 51 31t30 69l40 158q12 47 26 78t33.5 49.5t47 26t66.5 7.5h3.5t5.5 -1l-10 -40q-28 -1 -47 -6t-32.5 -17t-23 -33t-17.5 -53z"/>
<glyph unicode="|" glyph-name="bar" horiz-adv-x="500" d="M286 667v-834h-52v834h52z"/>
<glyph unicode="}" glyph-name="braceright" horiz-adv-x="273" d="M93 119q7 28 14.5 47t17 32t22 22t30.5 16q-20 15 -27.5 28t-7.5 31q0 21 9 59l43 169q9 37 9 62t-17 35.5t-58 11.5l10 40q4 1 7 1h4q105 0 105 -80q0 -8 -0.5 -15.5t-2 -16.5t-4.5 -20.5t-7 -28.5l-39 -158q-8 -35 -8 -49q0 -38 40 -51l-9 -36q-33 -8 -51.5 -30.5 t-29.5 -68.5l-40 -158q-12 -47 -26 -78t-33.5 -49.5t-47 -26t-66.5 -7.5h-9l10 41q28 1 47 6t32.5 17t23 33t17.5 53z"/>
<glyph unicode="~" glyph-name="asciitilde" horiz-adv-x="667" d="M104 245q29 57 59.5 81.5t72.5 24.5q20 0 46.5 -9t68.5 -30q22 -11 36.5 -18t25.5 -10.5t20 -5t18 -1.5q30 0 51.5 16.5t46.5 59.5l33 -20q-28 -54 -61 -79.5t-75 -25.5q-11 0 -21.5 2t-25.5 7t-37 15t-55 27q-47 23 -75 23t-50 -18t-45 -60z"/>
<glyph unicode=" " glyph-name="uni00A0" horiz-adv-x="232"/>
<glyph unicode="¤" glyph-name="currency" horiz-adv-x="667" d="M367 533q-38 0 -70.5 -14t-56.5 -38t-38 -57t-14 -70q0 -36 14 -68.5t38 -56.5t56.5 -38t68.5 -14q37 0 69 14t56 38t38 56t14 69t-14 69.5t-37.5 57t-55.5 38.5t-68 14zM188 211q-52 67 -52 144q0 39 12 72t40 70l-93 92l32 32l92 -92q37 29 71 41.5t75 12.5t75 -12.5 t69 -40.5l93 91l32 -32l-92 -92q27 -35 39.5 -69.5t12.5 -73.5q0 -40 -12.5 -74t-39.5 -69l93 -92l-32 -32l-92 92q-68 -52 -144 -52q-39 0 -73.5 12t-72.5 40l-92 -92l-31 32z"/>
<glyph unicode="¦" glyph-name="brokenbar" horiz-adv-x="500" d="M286 153v-320h-52v320h52zM286 667v-328h-52v328h52z"/>
<glyph unicode="§" glyph-name="section" horiz-adv-x="500" d="M236 369q-48 -20 -73.5 -46.5t-25.5 -56.5q0 -11 2.5 -19.5t9.5 -17.5t19 -19.5t31 -24.5q23 -17 39 -28.5t30 -21.5q45 19 71 48.5t26 64.5q0 10 -2 17.5t-8 15t-17.5 16.5t-29.5 22q-20 14 -31 22t-18 12.5t-11.5 7.5t-11.5 8zM421 499l1 21q0 93 -96 93 q-26 0 -48 -8.5t-38 -23.5t-25.5 -35.5t-9.5 -44.5q0 -38 35 -69q6 -5 10.5 -8.5t12.5 -9.5t21.5 -15.5t37.5 -26.5q30 -20 49 -35.5t30 -28.5t15 -25t4 -27q0 -46 -32 -84.5t-89 -61.5q25 -24 35 -46t10 -54q0 -38 -14 -70.5t-38.5 -56t-58 -37t-72.5 -13.5 q-71 0 -110.5 38t-39.5 105v9t1 13h55q-1 -7 -1.5 -12.5t-0.5 -8.5q0 -47 26 -72.5t73 -25.5q27 0 49.5 9t39.5 25.5t26.5 39t9.5 48.5q0 44 -42 80q-6 6 -10.5 9.5t-12 9.5t-20.5 15.5t-36 26.5q-25 19 -41.5 33t-26 27t-13.5 25t-4 26q0 92 121 141q-28 22 -40.5 46.5 t-12.5 55.5q0 35 13.5 65t37.5 51.5t56.5 34t70.5 12.5q71 0 108 -35t37 -103v-9t-1 -13h-52z"/>
<glyph unicode="©" glyph-name="copyright" horiz-adv-x="805" d="M433 644q-65 0 -121 -24t-97 -66t-65 -98.5t-24 -121.5q0 -64 24 -120t65 -98t96.5 -66.5t118.5 -24.5t118 24.5t96 66.5t65 98.5t24 120.5q0 63 -24 119.5t-64.5 98.5t-95.5 66.5t-116 24.5zM434 680q70 0 131.5 -27.5t108 -74.5t73.5 -109.5t27 -133.5t-27 -134 t-73.5 -109.5t-109.5 -73.5t-134 -27t-134 27t-110 73.5t-74 109.5t-27 134q0 72 27 135t74.5 109.5t111 73.5t136.5 27zM540 429q-19 79 -99 79q-58 0 -91.5 -45.5t-33.5 -123.5t33.5 -123.5t91.5 -45.5q94 0 106 106h43q-7 -70 -44.5 -107t-102.5 -37q-80 0 -127 56 t-47 151q0 47 12 85t34.5 65t54.5 42t71 15q60 0 97 -30t45 -87h-43z"/>
<glyph unicode="«" glyph-name="guillemotleft" horiz-adv-x="335" d="M296 390l-124 -152l42 -167h33l-27 162l115 157h-39zM172 390l-124 -152l42 -167h33l-27 162l115 157h-39z"/>
<glyph unicode="¬" glyph-name="logicalnot" horiz-adv-x="500" d="M424 219h-381v48h433v-267h-52v219z"/>
<glyph unicode="­" glyph-name="uni00AD" horiz-adv-x="270" d="M282 274l-11 -44h-270l11 44h270z"/>
<glyph unicode="®" glyph-name="registered" horiz-adv-x="805" d="M433 644q-65 0 -121 -24t-97 -66t-65 -98.5t-24 -121.5q0 -64 24 -120t65 -98t96.5 -66.5t118.5 -24.5t118 24.5t96 66.5t65 98.5t24 120.5q0 63 -24 119.5t-64.5 98.5t-95.5 66.5t-116 24.5zM434 680q70 0 131.5 -27.5t108 -74.5t73.5 -109.5t27 -133.5t-27 -134 t-73.5 -109.5t-109.5 -73.5t-134 -27t-134 27t-110 73.5t-74 109.5t-27 134q0 72 27 135t74.5 109.5t111 73.5t136.5 27zM385 344q21 0 34.5 0.5t23 1t17 2t15.5 4.5q48 15 48 70q0 23 -10.5 40t-30.5 24q-8 3 -15.5 5t-18 2.5t-25.5 1t-37 0.5h-26v-151h25zM384 532 q24 0 40.5 -0.5t29 -1.5t22.5 -3t21 -5q34 -11 53.5 -37.5t19.5 -63.5q0 -39 -22.5 -66.5t-65.5 -40.5l117 -182h-54l-113 175h-72v-175h-44v400h68z"/>
<glyph unicode="°" glyph-name="degree" horiz-adv-x="500" d="M329 643q-20 0 -38 -7.5t-31.5 -21t-21.5 -31t-8 -36.5q0 -42 28.5 -70.5t70.5 -28.5q20 0 38 7.5t31.5 21t21.5 31.5t8 38t-7.5 37.5t-21 31t-31.5 21t-39 7.5zM329 680q28 0 53.5 -10.5t44 -28.5t29.5 -42.5t11 -52.5t-11 -52.5t-29.5 -43t-44 -29t-53.5 -10.5 q-29 0 -54 10.5t-44 29t-29.5 43t-10.5 53.5q0 27 11 51.5t30 42.5t44 28.5t53 10.5z"/>
<glyph unicode="±" glyph-name="plusminus" d="M454 78v-40h-411v40h411zM454 355v-38h-186v-185h-40v185h-185v38h185v192h40v-192h186z"/>
<glyph unicode="µ" glyph-name="mu" horiz-adv-x="500" d="M65 480h52v-279q0 -28 2 -48.5t7 -36.5t12.5 -28.5t19.5 -23.5q39 -37 97 -37q67 0 109 53q21 27 30 57t9 75v268h52v-480h-52v96q-25 -57 -60.5 -83.5t-89.5 -26.5q-45 0 -77.5 18.5t-58.5 60.5v-230h-52v645z"/>
<glyph unicode="¶" glyph-name="paragraph" d="M221 313q-35 2 -55 5.5t-40 12.5q-32 14 -50 43t-18 69q0 30 8.5 58.5t23.5 53.5t36 45.5t47 34.5q60 32 169 32h232l-11 -44h-56l-181 -723h-48l180 723h-111l-181 -723h-48z"/>
<glyph unicode="·" glyph-name="periodcentered" horiz-adv-x="251" d="M136 290q18 0 30 -12t12 -31q0 -23 -17 -41t-39 -18q-18 0 -30.5 12t-12.5 29q0 24 17 42.5t40 18.5z"/>
<glyph unicode="»" glyph-name="guillemotright" horiz-adv-x="335" d="M64 392l24 -163l-117 -156h39l126 152l-39 167h-33zM188 392l24 -163l-117 -156h39l126 152l-39 167h-33z"/>
<glyph unicode="ƒ" glyph-name="florin" horiz-adv-x="396" d="M33 423h106l25 173q8 58 37 89q27 29 70.5 38t103.5 1v-76q-61 5 -87.5 -8t-32.5 -56l-23 -161h118v-70h-128l-54 -385q-9 -63 -40 -94q-23 -23 -58.5 -29t-84.5 0v74q37 -3 60 6.5t29 49.5l55 378h-96v70z"/>
<glyph unicode="Ё" glyph-name="uni0401" horiz-adv-x="494" d="M307 844q18 0 29 -11t11 -29q0 -24 -15.5 -41t-38.5 -17q-19 0 -30.5 11t-11.5 31q0 23 16.5 39.5t39.5 16.5zM493 844q18 0 29 -11t11 -29q0 -24 -15.5 -41t-38.5 -17q-19 0 -30.5 11t-11.5 31q0 23 16.5 39.5t39.5 16.5zM441 370l-13 -50h-264l-68 -270h302l-13 -50 h-356l166 667h339l-13 -50h-283l-62 -247h265z"/>
<glyph unicode="Ђ" glyph-name="uni0402" horiz-adv-x="529" d="M263 381q38 26 85 40t98 14q69 0 105.5 -27.5t36.5 -79.5q0 -17 -4 -39.5t-16 -68.5l-46 -188q-9 -36 -16 -60.5t-14 -42t-14.5 -30t-17.5 -24.5q-53 -63 -158 -63h-28l11 47h19q79 0 114 40q7 9 13.5 19t12.5 25t12 36.5t14 52.5l47 191q6 22 8.5 42.5t2.5 41.5 q0 81 -97 81q-55 0 -103.5 -20t-82.5 -56l-77 -312h-57l154 617h-135l13 50h402l-12 -50h-212z"/>
<glyph unicode="Ѓ" glyph-name="uni0403" horiz-adv-x="447" d="M564 847l-166 -108h-59l111 108h114zM87 0h-58l166 667h339l-13 -50h-281z"/>
<glyph unicode="Є" glyph-name="uni0404" horiz-adv-x="605" d="M399 360l-13 -50h-249q-4 -23 -6 -45t-2 -39q0 -91 39.5 -140t111.5 -49q73 0 128 48t81 135h60q-31 -114 -100 -173.5t-170 -59.5q-103 0 -157 62t-54 179q0 45 8 91t22.5 90t35 84t46.5 72q47 59 101.5 87t122.5 28q88 0 134 -45t47 -131v-11h-57q-1 3 -1 5.5v3.5v5 q-1 59 -33.5 91t-92.5 32q-85 0 -151.5 -71t-101.5 -199h251z"/>
<glyph unicode="Ѕ" glyph-name="uni0405" horiz-adv-x="535" d="M465 503q1 5 1 11v9q0 52 -31 79.5t-88 27.5q-61 0 -99.5 -32t-38.5 -83q0 -23 9.5 -43.5t26.5 -35.5q12 -11 29.5 -24t57.5 -39q21 -14 35 -24t24.5 -18t18 -15t14.5 -15q39 -45 39 -110q0 -44 -16.5 -81.5t-46.5 -64.5t-70.5 -42.5t-88.5 -15.5q-90 0 -141 45.5 t-51 123.5q0 10 0.5 18.5t2.5 22.5h57q-2 -11 -2 -18v-16q0 -61 35.5 -93.5t101.5 -32.5q34 0 63 11t50 30t32.5 45.5t11.5 58.5q0 21 -5 38.5t-18 34t-35 34.5t-56 40q-38 26 -58.5 41.5t-35.5 30.5q-43 45 -43 108q0 38 14.5 69.5t40.5 54t63 35t81 12.5q83 0 128.5 -39.5 t45.5 -110.5q0 -3 -0.5 -11t-1.5 -16h-56z"/>
<glyph unicode="І" glyph-name="uni0406" horiz-adv-x="230" d="M29 0l166 667h58l-166 -667h-58z"/>
<glyph unicode="Ї" glyph-name="uni0407" horiz-adv-x="230" d="M188 844q18 0 29 -11t11 -29q0 -24 -15.5 -41t-38.5 -17q-19 0 -30.5 11t-11.5 31q0 23 16.5 39.5t39.5 16.5zM341 844q18 0 29 -11t11 -29q0 -24 -15.5 -41t-38.5 -17q-19 0 -30.5 11t-11.5 31q0 23 16.5 39.5t39.5 16.5zM29 0l166 667h58l-166 -667h-58z"/>
<glyph unicode="Ј" glyph-name="uni0408" horiz-adv-x="273" d="M298 667l-132 -532q-9 -37 -16 -61t-13.5 -40t-13.5 -27t-17 -22q-25 -27 -64.5 -42t-87.5 -15h-8.5t-12.5 1l12 50h11q34 1 58.5 9t42 26t29.5 47.5t22 74.5l133 531h57z"/>
<glyph unicode="Љ" glyph-name="uni0409" horiz-adv-x="833" d="M434 50h66q33 0 56.5 1t41.5 3.5t31.5 7t25.5 10.5q40 20 63.5 62t23.5 93q0 60 -34 85t-116 25h-86zM605 387q100 0 147.5 -38.5t47.5 -119.5q0 -33 -8.5 -64.5t-24.5 -58.5t-38.5 -48t-50.5 -34q-15 -7 -31.5 -11.5t-37 -7.5t-48 -4t-65.5 -1h-132l157 620h-223 l-164 -472q-12 -43 -28 -72.5t-37.5 -47t-50.5 -25t-68 -7.5l13 51q25 1 43.5 7t32 19.5t24.5 37t23 59.5l169 497h333l-70 -280h87z"/>
<glyph unicode="Њ" glyph-name="uni040A" horiz-adv-x="872" d="M474 50h66q33 0 56.5 1t41.5 3.5t31.5 6.5t25.5 10q39 20 62.5 61.5t23.5 90.5q0 60 -34.5 84.5t-116.5 24.5h-86zM498 379l72 288h58l-72 -288h87q100 0 148 -38t48 -117q0 -33 -8.5 -63.5t-24.5 -56.5t-38.5 -46.5t-50.5 -33.5q-15 -7 -31 -11.5t-36.5 -7.5t-48 -4 t-65.5 -1h-132l83 332h-320l-83 -332h-55l166 667h55l-71 -288h319z"/>
<glyph unicode="Ћ" glyph-name="uni040B" horiz-adv-x="529" d="M230 366q37 24 81.5 37.5t89.5 13.5q67 0 105 -31t38 -86q0 -19 -3.5 -38.5t-11.5 -53.5l-52 -208h-56l48 195q8 29 11 48.5t3 33.5q0 41 -27 63t-77 22q-52 0 -93.5 -17t-86.5 -57l-71 -288h-57l154 617h-135l13 50h402l-12 -50h-212l-64 -260z"/>
<glyph unicode="Ќ" glyph-name="uni040C" horiz-adv-x="561" d="M578 847l-166 -108h-59l111 108h114zM250 667l-166 -667h-55l166 667h55zM593 667l-352 -324l209 -343h-72l-206 348l350 319h71z"/>
<glyph unicode="Ў" glyph-name="uni040E" horiz-adv-x="479" d="M299 853q-1 -2 -1 -4.5v-3.5q0 -26 20 -40.5t57 -14.5q39 0 64 14.5t43 48.5h37q-15 -57 -53.5 -88.5t-95.5 -31.5q-51 0 -80.5 26t-29.5 72v9.5t2 12.5h37zM516 667h63l-451 -667h-60l150 214l-88 453h61l64 -399z"/>
<glyph unicode="Џ" glyph-name="uni040F" horiz-adv-x="602" d="M247 -100h-55l24 100h-187l166 667h55l-154 -620h320l154 620h55l-166 -667h-188z"/>
<glyph unicode="А" glyph-name="uni0410" horiz-adv-x="546" d="M378 419q0 5 -0.5 9t-1 12.5t-1.5 24t-2 43.5l-5 90q-12 -24 -26 -50t-27 -50.5t-24.5 -45.5t-18.5 -33l-103 -180h220zM410 672l52 -672h-58l-13 189h-252l-109 -189h-59l392 672h47z"/>
<glyph unicode="Б" glyph-name="uni0411" horiz-adv-x="503" d="M99 50h66q33 0 56.5 1t41.5 3.5t31.5 7t25.5 10.5q40 20 63.5 62t23.5 93q0 60 -34 85t-116 25h-86zM514 617h-274l-57 -230h87q100 0 147.5 -38.5t47.5 -119.5q0 -33 -8.5 -64.5t-24.5 -58.5t-38.5 -48t-50.5 -34q-15 -7 -31.5 -11.5t-37 -7.5t-48 -4t-65.5 -1h-132 l166 667h331z"/>
<glyph unicode="В" glyph-name="uni0412" horiz-adv-x="527" d="M164 50q32 0 54.5 1t39.5 3t30.5 6.5t27.5 10.5q45 20 71.5 61t26.5 92q0 57 -38.5 80.5t-129.5 23.5h-80l-70 -278h68zM242 378q53 0 84 5t56 18q36 20 58.5 56t22.5 75q0 59 -54 76q-8 3 -17 4.5t-21.5 2.5t-30 1.5t-41.5 0.5h-61l-60 -239h64zM295 667q56 0 90.5 -3.5 t56.5 -11.5q79 -28 79 -117q0 -66 -39.5 -114.5t-111.5 -68.5q54 -17 79.5 -47t25.5 -80q0 -33 -10 -64t-27.5 -57.5t-42 -47t-54.5 -32.5q-17 -7 -35.5 -11.5t-41.5 -7.5t-52.5 -4t-69.5 -1h-113l166 667h100z"/>
<glyph unicode="Г" glyph-name="uni0413" horiz-adv-x="447" d="M87 0h-58l166 667h339l-13 -50h-281z"/>
<glyph unicode="Д" glyph-name="uni0414" horiz-adv-x="572" d="M529 620h-224l-164 -472q-14 -41 -26.5 -63.5t-29.5 -37.5h301zM493 47l-37 -147h-55l25 100h-413l-25 -100h-55l37 147h8q41 0 67 27.5t49 95.5l169 497h332l-154 -620h52z"/>
<glyph unicode="Е" glyph-name="uni0415" horiz-adv-x="494" d="M441 370l-13 -50h-264l-68 -270h302l-13 -50h-356l166 667h339l-13 -50h-283l-62 -247h265z"/>
<glyph unicode="Ж" glyph-name="uni0416" horiz-adv-x="709" d="M485 667l-73 -294h61l268 294h68l-295 -319l148 -348h-64l-134 326h-64l-81 -326h-55l81 326h-60l-282 -326h-70l312 355l-140 312h63l126 -294h63l73 294h55z"/>
<glyph unicode="З" glyph-name="uni0417" horiz-adv-x="566" d="M344 360q32 0 59.5 11.5t48 31.5t32 47t11.5 59q0 56 -34 88t-93 32q-61 0 -107.5 -36t-67.5 -100h-61q29 91 92 139t154 48q82 0 130 -45t48 -121q0 -74 -45.5 -123.5t-120.5 -59.5q48 -13 74.5 -49.5t26.5 -90.5q0 -48 -22.5 -91.5t-61.5 -72.5q-29 -21 -63.5 -30.5 t-81.5 -9.5q-60 0 -99.5 17.5t-68.5 56.5q-21 29 -31 63.5t-10 80.5v15h59q0 -41 4 -65t14 -44q38 -74 137 -74q35 0 65 12t51.5 33t34 49.5t12.5 62.5q0 55 -33 85.5t-93 30.5h-49l12 50h77z"/>
<glyph unicode="И" glyph-name="uni0418" horiz-adv-x="610" d="M193 667h54l-137 -549l469 496l13 53h53l-166 -667h-53l132 531l-467 -491l-10 -40h-54z"/>
<glyph unicode="Й" glyph-name="uni0419" horiz-adv-x="610" d="M361 853q-1 -2 -1 -4.5v-3.5q0 -26 20 -40.5t57 -14.5q39 0 64 14.5t43 48.5h37q-15 -57 -53.5 -88.5t-95.5 -31.5q-51 0 -80.5 26t-29.5 72v9.5t2 12.5h37zM193 667h54l-137 -549l469 496l13 53h53l-166 -667h-53l132 531l-467 -491l-10 -40h-54z"/>
<glyph unicode="К" glyph-name="uni041A" horiz-adv-x="561" d="M250 667l-166 -667h-55l166 667h55zM593 667l-352 -324l209 -343h-72l-206 348l350 319h71z"/>
<glyph unicode="Л" glyph-name="uni041B" horiz-adv-x="564" d="M134 148q-12 -43 -28 -72.5t-37.5 -47t-50.5 -25t-68 -7.5l13 51q25 1 43.5 7t32 19.5t24.5 37t23 59.5l169 497h333l-166 -667h-55l154 620h-223z"/>
<glyph unicode="М" glyph-name="uni041C" horiz-adv-x="740" d="M286 667l41 -608l342 608h95l-167 -667h-55l161 631l-357 -631h-62l-46 631l-154 -631h-55l166 667h91z"/>
<glyph unicode="Н" glyph-name="uni041D" horiz-adv-x="602" d="M497 373l73 294h55l-166 -667h-55l81 326h-320l-81 -326h-55l166 667h55l-73 -294h320z"/>
<glyph unicode="О" glyph-name="uni041E" horiz-adv-x="626" d="M404 630q-108 0 -185 -112q-20 -30 -36.5 -66t-28.5 -75t-18.5 -79.5t-6.5 -77.5q0 -85 39.5 -134t108.5 -49q58 0 108 34.5t90 101.5q17 29 31 62.5t23.5 68.5t15 70t5.5 67q0 88 -39 138.5t-107 50.5zM408 680q97 0 150 -63.5t53 -178.5q0 -91 -30 -180t-83 -155 q-48 -59 -102.5 -87.5t-120.5 -28.5q-100 0 -153.5 62.5t-53.5 177.5q0 46 8 93t23 91t36.5 84.5t47.5 72.5q47 57 102 84.5t123 27.5z"/>
<glyph unicode="П" glyph-name="uni041F" horiz-adv-x="602" d="M84 0h-55l166 667h430l-166 -667h-55l154 620h-320z"/>
<glyph unicode="Р" glyph-name="uni0420" horiz-adv-x="503" d="M234 330q33 0 57 1t42 3.5t31.5 7t25.5 10.5q40 20 63.5 62t23.5 93q0 60 -34 85t-117 25h-88l-72 -287h68zM307 667q36 0 62 -1.5t45.5 -5t34.5 -9t27 -14.5q59 -42 59 -128q0 -68 -33 -123.5t-90 -81.5q-15 -7 -31 -11.5t-37 -7.5t-48.5 -4t-65.5 -1h-73l-70 -280h-58 l166 667h112z"/>
<glyph unicode="С" glyph-name="uni0421" horiz-adv-x="605" d="M528 493q-1 3 -1 5.5v3.5v5q-1 59 -33.5 91t-92.5 32q-117 0 -196 -132q-17 -29 -31 -62.5t-24 -68.5t-15.5 -71t-5.5 -69q0 -91 39.5 -140.5t111.5 -49.5q73 0 128 48t81 135h60q-31 -114 -100 -173.5t-170 -59.5q-103 0 -157 62t-54 179q0 45 8 91t22.5 90t35 84 t46.5 72q47 59 101.5 87t122.5 28q88 0 134 -45t47 -131v-11h-57z"/>
<glyph unicode="Т" glyph-name="uni0422" horiz-adv-x="446" d="M541 667l-12 -50h-181l-154 -617h-55l154 617h-181l12 50h417z"/>
<glyph unicode="У" glyph-name="uni0423" horiz-adv-x="479" d="M516 667h63l-451 -667h-60l150 214l-88 453h61l64 -399z"/>
<glyph unicode="Ф" glyph-name="uni0424" horiz-adv-x="707" d="M409 563q-62 0 -113.5 -20t-89 -56t-58.5 -86t-21 -110q0 -81 44.5 -130t123.5 -55zM350 104q38 0 68.5 6t60.5 20q34 15 62.5 40.5t48.5 58t31 70t11 78.5q0 163 -169 184zM490 667l-14 -59q49 -4 89 -22t68 -48t43 -70.5t15 -88.5q0 -52 -14 -98.5t-40 -85t-63.5 -67.5 t-83.5 -47q-35 -14 -69.5 -19.5t-82.5 -5.5l-14 -56h-56l15 59q-25 1 -57 11.5t-56 25.5q-51 30 -76.5 80.5t-25.5 116.5q0 50 14 95.5t40 83.5t63 67t83 47q35 14 70 19.5t83 5.5l14 56h55z"/>
<glyph unicode="Х" glyph-name="uni0425" horiz-adv-x="522" d="M213 667l87 -277l229 277h66l-275 -325l122 -342h-63l-96 300l-249 -300h-63l292 348l-114 319h64z"/>
<glyph unicode="Ц" glyph-name="uni0426" horiz-adv-x="602" d="M570 667h55l-154 -620h51l-36 -147h-55l25 100h-427l166 667h55l-154 -620h320z"/>
<glyph unicode="Ч" glyph-name="uni0427" horiz-adv-x="531" d="M400 279q-38 -31 -80 -44.5t-96 -13.5q-37 0 -69 8t-55 22q-45 29 -45 94q0 34 9 70l62 252h58l-60 -240q-9 -39 -9 -74q0 -76 100 -76q71 0 121 22t87 70l74 298h58l-166 -667h-58z"/>
<glyph unicode="Ш" glyph-name="uni0428" horiz-adv-x="856" d="M824 667h55l-166 -667h-684l166 667h55l-154 -620h259l155 620h55l-155 -620h259z"/>
<glyph unicode="Щ" glyph-name="uni0429" horiz-adv-x="856" d="M824 667h55l-155 -620h52l-37 -147h-55l25 100h-680l166 667h55l-154 -620h259l155 620h55l-155 -620h259z"/>
<glyph unicode="Ъ" glyph-name="uni042A" horiz-adv-x="572" d="M173 50h66q33 0 56.5 1t41.5 3.5t31.5 7t25.5 10.5q40 20 63.5 62t23.5 93q0 60 -34 85t-116 25h-86zM80 617l12 50h235l-70 -280h87q100 0 147.5 -38.5t47.5 -119.5q0 -33 -8.5 -64.5t-24.5 -58.5t-38.5 -48t-50.5 -34q-15 -7 -31 -11.5t-37 -7.5t-48.5 -4t-65.5 -1 h-132l154 617h-177z"/>
<glyph unicode="Ы" glyph-name="uni042B" horiz-adv-x="704" d="M504 0l166 667h58l-167 -667h-57zM99 50h66q33 0 56.5 1t41.5 3.5t31.5 7t25.5 10.5q40 20 63.5 62t23.5 93q0 60 -34 85t-116 25h-86zM270 387q100 0 147.5 -38.5t47.5 -119.5q0 -33 -8.5 -64.5t-24.5 -58.5t-38.5 -48t-50.5 -34q-15 -7 -31.5 -11.5t-37 -7.5t-48 -4 t-65.5 -1h-132l166 667h58l-70 -280h87z"/>
<glyph unicode="Ь" glyph-name="uni042C" horiz-adv-x="498" d="M99 50h66q33 0 56.5 1t41.5 3.5t31.5 7t25.5 10.5q40 20 63.5 62t23.5 93q0 60 -34 85t-116 25h-86zM270 387q100 0 147.5 -38.5t47.5 -119.5q0 -33 -8.5 -64.5t-24.5 -58.5t-38.5 -48t-50.5 -34q-15 -7 -31.5 -11.5t-37 -7.5t-48 -4t-65.5 -1h-132l166 667h58l-70 -280 h87z"/>
<glyph unicode="Э" glyph-name="uni042D" horiz-adv-x="601" d="M519 360q3 18 4 33t1 32q0 99 -40 151.5t-116 52.5q-60 0 -107 -36.5t-68 -99.5h-61q29 89 92 138t150 49q99 0 155.5 -67t56.5 -183q0 -42 -8 -87t-23 -88.5t-35.5 -83t-44.5 -70.5q-47 -58 -101 -86t-121 -28q-94 0 -147 57.5t-53 160.5v15h59q0 -41 4 -65t14 -44 q19 -35 51.5 -54.5t75.5 -19.5q42 0 81 19.5t72 55t59 86t41 112.5h-255l12 50h252z"/>
<glyph unicode="Ю" glyph-name="uni042E" horiz-adv-x="827" d="M605 630q-108 0 -185 -112q-20 -30 -36.5 -66t-28.5 -75t-18.5 -79.5t-6.5 -77.5q0 -85 39.5 -134t108.5 -49q58 0 108 34.5t90 101.5q17 29 31 62.5t23.5 68.5t15 70t5.5 67q0 88 -39 138.5t-107 50.5zM289 373q19 72 50.5 129t72.5 96.5t90 60.5t104 21q99 0 152.5 -63 t53.5 -179q0 -91 -30 -180t-83 -155q-48 -59 -102.5 -87.5t-120.5 -28.5q-97 0 -152 62t-55 171q0 26 2 51.5t7 54.5h-113l-81 -326h-55l166 667h55l-73 -294h112z"/>
<glyph unicode="Я" glyph-name="uni042F" horiz-adv-x="539" d="M492 617h-65q-33 0 -56.5 -1t-41.5 -3.5t-31.5 -6t-25.5 -9.5q-39 -19 -63 -59t-24 -88q0 -29 8 -48.5t26 -32t46.5 -18t69.5 -5.5h90zM41 0h-68l253 307q-48 14 -73.5 50t-25.5 90q0 32 9 62.5t25 56.5t38.5 46t49.5 32q16 7 32 11.5t37 7t48 3.5t65 1h131l-166 -667 h-57l73 296h-90h-18.5t-16.5 1z"/>
<glyph unicode="а" glyph-name="uni0430" horiz-adv-x="457" d="M344 267q-73 -13 -123.5 -27.5t-82 -33t-45.5 -42.5t-14 -55q0 -35 20.5 -53.5t58.5 -18.5q69 0 120 59q17 20 29.5 47.5t22.5 69.5zM101 355q23 66 66.5 96.5t113.5 30.5q66 0 101 -25.5t35 -73.5q0 -14 -2 -27.5t-9 -38.5l-46 -186q-11 -42 -16 -73.5t-5 -57.5h-53 q0 20 1 33.5t5 33.5q-29 -40 -64 -58.5t-81 -18.5q-57 0 -89.5 30.5t-32.5 84.5q0 102 116 148q17 6 30.5 10.5t33.5 10t51 12t83 17.5l15 3l4 17q3 12 5 27.5t2 26.5q0 28 -22 43t-64 15q-50 0 -79 -19t-45 -61h-54z"/>
<glyph unicode="б" glyph-name="uni0431" horiz-adv-x="484" d="M287 435q-92 0 -150 -108q-20 -37 -31 -79t-11 -79q0 -62 28.5 -97t79.5 -35q77 0 133 83q26 40 41.5 90.5t15.5 97.5q0 58 -29 92.5t-77 34.5zM486 635q-22 -14 -48 -14q-10 0 -19 1.5t-26 5.5q-12 3 -19 4t-16 1q-47 0 -89 -39q-15 -13 -30.5 -33t-31 -44.5t-30 -51.5 t-25.5 -54q55 71 140 71q73 0 114 -46.5t41 -129.5q0 -64 -23 -128t-64 -111q-67 -77 -159 -77q-74 0 -117 47t-43 128q0 38 10.5 88.5t28.5 104t41.5 105t49.5 90.5q83 127 188 127h12t11 -1l15 -2.5t25 -4.5q12 -3 28 -3q14 0 24 2.5t24 10.5z"/>
<glyph unicode="в" glyph-name="uni0432" horiz-adv-x="401" d="M165 43q29 0 44.5 2t29.5 8q25 11 39.5 35.5t14.5 54.5q0 50 -39 69q-10 5 -23 6.5t-42 1.5h-68l-44 -177h88zM196 263q31 0 48 3t33 11q23 12 36 35t13 49q0 69 -74 69h-79l-41 -167h64zM251 473q63 0 96 -28.5t33 -82.5q0 -102 -106 -122q73 -22 73 -100q0 -41 -20 -74 t-55 -50q-20 -9 -40.5 -12.5t-60.5 -3.5h-155l118 473h117z"/>
<glyph unicode="г" glyph-name="uni0433" horiz-adv-x="331" d="M66 0h-50l118 473h251l-11 -43h-201z"/>
<glyph unicode="д" glyph-name="uni0434" horiz-adv-x="454" d="M287 43l96 387h-165l-102 -292q-14 -42 -27 -63t-31 -32h229zM444 473l-107 -430h45l-36 -143h-50l25 100h-326l-25 -100h-50l36 143q23 0 40 5.5t30 19t24 35.5t22 56l107 314h265z"/>
<glyph unicode="е" glyph-name="uni0435" horiz-adv-x="476" d="M378 280q3 14 4 22.5t1 19.5q0 54 -26 83t-74 29q-54 0 -96 -39.5t-69 -114.5h260zM106 237q-10 -39 -10 -70q0 -61 29 -95.5t81 -34.5q48 0 81.5 27t58.5 87h56q-26 -79 -76.5 -120t-122.5 -41q-75 0 -118 46t-43 128q0 66 22.5 129t62.5 110q67 79 160 79 q70 0 109 -42.5t39 -118.5q0 -23 -3 -43.5t-8 -40.5h-318z"/>
<glyph unicode="ж" glyph-name="uni0436" horiz-adv-x="551" d="M364 473l-50 -199h51l181 199h65l-208 -223l107 -250h-60l-96 231h-51l-57 -231h-50l57 231h-52l-198 -231h-66l226 258l-97 215h61l85 -199h52l50 199h50z"/>
<glyph unicode="з" glyph-name="uni0437" horiz-adv-x="422" d="M211 260q40 0 61 5t39 19q14 11 22 29t8 41q0 38 -23.5 59.5t-66.5 21.5q-101 0 -133 -113l-50 10q17 72 65.5 111t122.5 39q64 0 101.5 -33t37.5 -90q0 -51 -28 -82.5t-81 -39.5q74 -27 74 -98q0 -68 -45 -108.5t-120 -40.5q-84 0 -128 50q-19 22 -27.5 45.5t-12.5 64.5 l54 9q1 -57 30 -89t81 -32q53 0 83.5 27.5t30.5 75.5q0 76 -95 76h-45l11 43h34z"/>
<glyph unicode="и" glyph-name="uni0438" horiz-adv-x="477" d="M477 473l-118 -473h-52l90 359l-318 -327l-8 -32h-52l118 473h52l-91 -364l319 330l9 34h51z"/>
<glyph unicode="й" glyph-name="uni0439" horiz-adv-x="477" d="M270 677q0 -41 14.5 -58.5t49.5 -17.5q33 0 54.5 17.5t38.5 58.5h37q-14 -60 -49.5 -93.5t-86.5 -33.5q-45 0 -71 27.5t-26 75.5v11t2 13h37zM477 473l-118 -473h-52l90 359l-318 -327l-8 -32h-52l118 473h52l-91 -364l319 330l9 34h51z"/>
<glyph unicode="к" glyph-name="uni043A" horiz-adv-x="421" d="M66 0h-50l118 473h50zM456 473l-264 -228l163 -245h-70l-154 249l254 224h71z"/>
<glyph unicode="л" glyph-name="uni043B" horiz-adv-x="456" d="M118 139q-14 -42 -23 -60.5t-21 -33.5q-21 -25 -49 -36.5t-70 -11.5h-8l12 48q3 -1 7 -1q35 0 61 24q13 11 23 31t24 60l107 314h265l-118 -473h-50l107 430h-166z"/>
<glyph unicode="м" glyph-name="uni043C" horiz-adv-x="592" d="M507 473h75l-118 -473h-50l102 409l-256 -409h-48l-44 409l-102 -409h-50l118 473h74l44 -410z"/>
<glyph unicode="н" glyph-name="uni043D" horiz-adv-x="477" d="M123 231l-57 -231h-50l118 473h50l-50 -199h233l50 199h50l-118 -473h-50l57 231h-233z"/>
<glyph unicode="о" glyph-name="uni043E" horiz-adv-x="484" d="M286 435q-42 0 -74.5 -20.5t-61.5 -65.5q-25 -39 -40 -88.5t-15 -94.5q0 -60 29 -94.5t79 -34.5q77 0 132 83q26 40 41.5 90.5t15.5 97.5q0 58 -29 92.5t-77 34.5zM290 482q72 0 114 -47.5t42 -128.5q0 -64 -23 -127.5t-64 -110.5q-66 -78 -159 -78q-75 0 -117 47.5 t-42 130.5q0 33 7 67.5t20 67t31 61.5t40 52q64 66 151 66z"/>
<glyph unicode="п" glyph-name="uni043F" horiz-adv-x="477" d="M173 430l-107 -430h-50l118 473h333l-118 -473h-50l107 430h-233z"/>
<glyph unicode="р" glyph-name="uni0440" horiz-adv-x="479" d="M296 441q-76 0 -131 -101q-11 -20 -20 -43.5t-16 -47t-10.5 -46t-3.5 -40.5q0 -57 24.5 -88.5t69.5 -31.5q68 0 120 79q29 43 45.5 97t16.5 104q0 54 -25.5 86t-69.5 32zM101 341q8 31 13 52.5t8 36.5t4 25t1 18h51q1 -14 -1.5 -31t-7.5 -31q31 43 60.5 60t73.5 17 q66 0 104 -44.5t38 -122.5q0 -32 -6 -65.5t-17 -65.5t-27 -61t-35 -53q-66 -80 -153 -80q-89 0 -120 87l-69 -276h-50z"/>
<glyph unicode="с" glyph-name="uni0441" horiz-adv-x="455" d="M365 320q2 10 2 16.5v12.5q0 42 -22 64t-63 22q-77 0 -133 -89q-24 -40 -38 -87.5t-14 -92.5q0 -60 28 -94.5t79 -34.5q98 0 133 123h55q-43 -170 -190 -170q-75 0 -117 46.5t-42 130.5q0 64 19.5 121t53 100t77.5 68.5t93 25.5q65 0 103 -40q16 -17 23 -38t7 -53 q0 -9 -0.5 -15t-2.5 -16h-51z"/>
<glyph unicode="т" glyph-name="uni0442" horiz-adv-x="301" d="M120 0h-50l107 430h-140l11 43h330l-11 -43h-140z"/>
<glyph unicode="у" glyph-name="uni0443" horiz-adv-x="414" d="M136 473l28 -432l241 432h56l-252 -433q-40 -69 -68.5 -111t-52.5 -66q-59 -62 -147 -62h-7t-10 1l13 53q32 0 55 5t43 20.5t41 44.5t49 76l-43 472h54z"/>
<glyph unicode="ф" glyph-name="uni0444" horiz-adv-x="644" d="M246 435q-52 0 -98 -82q-25 -45 -39.5 -100.5t-14.5 -105.5q0 -53 17 -81.5t48 -28.5q29 0 56 23t48 66q23 45 37 101.5t14 101.5q0 51 -18 78.5t-50 27.5zM489 435q-26 0 -53 -24.5t-50 -69.5q-12 -24 -22 -52t-17.5 -57t-11.5 -56.5t-4 -48.5q0 -40 20 -64.5t53 -24.5 q56 0 100 84q23 44 38 100.5t15 103.5q0 109 -68 109zM256 54q-49 -64 -107 -64q-50 0 -78.5 42t-28.5 115q0 33 5.5 68t16 68.5t24.5 64.5t32 56q55 78 126 78q72 0 98 -74l65 261h49l-63 -251q27 34 52 49t54 15q51 0 79.5 -42t28.5 -115q0 -54 -13.5 -109.5t-39.5 -105.5 q-30 -59 -68.5 -89.5t-82.5 -30.5q-70 0 -98 73l-64 -256h-49z"/>
<glyph unicode="х" glyph-name="uni0445" horiz-adv-x="414" d="M152 473l71 -184l162 184h61l-206 -228l107 -245h-60l-83 209l-191 -209h-60l233 253l-92 220h58z"/>
<glyph unicode="ц" glyph-name="uni0446" horiz-adv-x="477" d="M310 43l107 430h50l-107 -430h45l-36 -143h-50l25 100h-328l118 473h50l-107 -430h233z"/>
<glyph unicode="ч" glyph-name="uni0447" horiz-adv-x="443" d="M320 221q-56 -65 -136 -65q-57 0 -90.5 29t-33.5 78q0 14 3.5 34.5t12.5 55.5l30 120h50l-31 -123q-5 -23 -8.5 -44t-3.5 -34q0 -32 22 -50.5t58 -18.5q67 0 115 57q17 21 28 46t22 66l25 101h50l-118 -473h-50z"/>
<glyph unicode="ш" glyph-name="uni0448" horiz-adv-x="670" d="M503 43l107 430h50l-118 -473h-526l118 473h50l-107 -430h188l107 430h50l-107 -430h188z"/>
<glyph unicode="щ" glyph-name="uni0449" horiz-adv-x="670" d="M503 43l107 430h50l-107 -430h45l-36 -143h-50l25 100h-521l118 473h50l-107 -430h188l107 430h50l-107 -430h188z"/>
<glyph unicode="ъ" glyph-name="uni044A" horiz-adv-x="436" d="M119 43h88q33 0 49.5 3t32.5 12q23 13 36.5 38t13.5 55q0 42 -21 61t-67 19h-86zM40 430l11 43h175l-50 -199h77q32 0 51 -4t36 -14q53 -31 53 -104q0 -44 -18.5 -77.5t-53.5 -52.5q-23 -12 -49.5 -17t-68.5 -5h-145l107 430h-125z"/>
<glyph unicode="ы" glyph-name="uni044B" horiz-adv-x="557" d="M547 473l-118 -473h-50l118 473h50zM77 43h89q32 0 48.5 3t32.5 12q23 13 36.5 38t13.5 55q0 42 -21 61t-66 19h-87zM184 473l-50 -199h77q32 0 51 -4t36 -14q53 -31 53 -104q0 -44 -18.5 -77.5t-53.5 -52.5q-23 -12 -49 -17t-69 -5h-145l118 473h50z"/>
<glyph unicode="ь" glyph-name="uni044C" horiz-adv-x="395" d="M77 43h89q32 0 48.5 3t32.5 12q23 13 36.5 38t13.5 55q0 42 -21 61t-66 19h-87zM184 473l-50 -199h77q32 0 51 -4t36 -14q53 -31 53 -104q0 -44 -18.5 -77.5t-53.5 -52.5q-23 -12 -49 -17t-69 -5h-145l118 473h50z"/>
<glyph unicode="э" glyph-name="uni044D" horiz-adv-x="450" d="M356 260q1 11 1.5 19.5t0.5 17.5q0 67 -27.5 102t-80.5 35q-100 0 -132 -112l-50 10q16 69 66 109.5t119 40.5q76 0 117.5 -47t41.5 -134q0 -79 -27.5 -149.5t-75.5 -112.5q-28 -26 -58 -37.5t-66 -11.5q-79 0 -120 50q-18 20 -26 43.5t-12 66.5l54 9q1 -57 28.5 -89.5 t75.5 -32.5q57 0 100 47.5t63 132.5h-182l11 43h179z"/>
<glyph unicode="ю" glyph-name="uni044E" horiz-adv-x="660" d="M463 435q-42 0 -75 -20.5t-62 -65.5q-26 -39 -40.5 -88.5t-14.5 -94.5q0 -60 29 -94.5t79 -34.5q77 0 133 84q26 40 41.5 90.5t15.5 96.5q0 58 -29 92.5t-77 34.5zM123 231l-57 -231h-50l118 473h50l-50 -199h100q15 48 38.5 86.5t53.5 65.5t65 41.5t74 14.5 q73 0 115.5 -47.5t42.5 -128.5q0 -63 -23 -127t-64 -111q-66 -78 -159 -78q-75 0 -117.5 47.5t-42.5 129.5q0 12 1.5 29t4.5 35h-100z"/>
<glyph unicode="я" glyph-name="uni044F" horiz-adv-x="423" d="M352 430h-88q-33 0 -49.5 -3t-32.5 -12q-23 -13 -36.5 -38t-13.5 -55q0 -42 21 -61t67 -19h86zM36 0h-57l171 208q-72 28 -72 113q0 44 18.5 77.5t53.5 52.5q23 12 49.5 17t68.5 5h145l-118 -473h-50l50 199h-77h-18z"/>
<glyph unicode="ё" glyph-name="uni0451" horiz-adv-x="476" d="M254 659q17 0 27 -10t10 -27q0 -23 -14.5 -38.5t-35.5 -15.5q-18 0 -28.5 10.5t-10.5 28.5q0 21 15.5 36.5t36.5 15.5zM426 659q17 0 27 -10t10 -27q0 -23 -14.5 -38.5t-35.5 -15.5q-18 0 -28.5 10.5t-10.5 28.5q0 21 15.5 36.5t36.5 15.5zM378 280q3 14 4 22.5t1 19.5 q0 54 -26 83t-74 29q-54 0 -96 -39.5t-69 -114.5h260zM106 237q-10 -39 -10 -70q0 -61 29 -95.5t81 -34.5q48 0 81.5 27t58.5 87h56q-26 -79 -76.5 -120t-122.5 -41q-75 0 -118 46t-43 128q0 66 22.5 129t62.5 110q67 79 160 79q70 0 109 -42.5t39 -118.5q0 -23 -3 -43.5 t-8 -40.5h-318z"/>
<glyph unicode="ђ" glyph-name="uni0452" horiz-adv-x="471" d="M177 421q35 35 72 52t81 17q55 0 87 -27t32 -74q0 -10 -1 -20.5t-3.5 -24t-6.5 -32.5t-11 -46l-67 -266q-9 -35 -16.5 -59t-16.5 -40.5t-20 -28t-27 -21.5q-54 -35 -123 -35h-35l13 51h30q33 0 54.5 6.5t44.5 22.5q8 6 13 11.5t9.5 15.5t9 27t11.5 46l71 284q6 21 9 35.5 t5 24t2.5 17t0.5 15.5q0 32 -21.5 50.5t-59.5 18.5q-35 0 -67 -15t-56 -43q-33 -38 -51 -111l-68 -272h-52l138 556h-63l11 43h63l18 71h52l-18 -71h148l-11 -43h-148z"/>
<glyph unicode="ѓ" glyph-name="uni0453" horiz-adv-x="331" d="M454 671l-156 -115h-49l115 115h90zM66 0h-50l118 473h251l-11 -43h-201z"/>
<glyph unicode="є" glyph-name="uni0454" horiz-adv-x="455" d="M291 260l-11 -43h-179q-2 -14 -3 -25.5t-1 -24.5q0 -61 28 -95.5t79 -34.5q98 0 133 123h9l44 -7q-43 -163 -188 -163q-75 0 -117 46.5t-42 130.5q0 64 19.5 121t53 100t77.5 68.5t93 25.5q65 0 103 -40q16 -17 23 -38t7 -53q0 -8 -0.5 -13.5t-1.5 -13.5l-42 -4h-10 q2 10 2 16.5v12.5q0 42 -22 64t-63 22q-27 0 -53 -12.5t-48 -35.5t-40 -55t-29 -72h179z"/>
<glyph unicode="ѕ" glyph-name="uni0455" horiz-adv-x="419" d="M343 346q1 4 1 8.5v6.5q0 35 -23 54.5t-66 19.5q-45 0 -74.5 -24t-29.5 -61q0 -28 24 -46q5 -5 9 -7.5t11 -6.5t19 -10.5t35 -17.5q31 -16 51.5 -29.5t32.5 -27t16.5 -29t4.5 -34.5q0 -33 -13.5 -61t-37.5 -48.5t-57 -31.5t-72 -11q-70 0 -110 34.5t-40 94.5v8.5t1 14.5 h53v-15q0 -90 98 -90q54 0 88 27t34 71q0 13 -3 23.5t-11.5 19.5t-22.5 18t-35 20q-47 23 -68.5 36.5t-32.5 24.5q-28 29 -28 69q0 30 12 55t33.5 43t50.5 28t64 10q65 0 101 -29t36 -83v-10.5t-1 -13.5h-50z"/>
<glyph unicode="і" glyph-name="uni0456" horiz-adv-x="201" d="M207 674q15 0 25 -10t10 -25q0 -21 -15 -37t-34 -16q-15 0 -25.5 10t-10.5 24q0 22 15 38t35 16zM189 473l-118 -473h-55l118 473h55z"/>
<glyph unicode="ї" glyph-name="uni0457" horiz-adv-x="201" d="M136 659q17 0 27 -10t10 -27q0 -23 -14.5 -38.5t-35.5 -15.5q-18 0 -28.5 10.5t-10.5 28.5q0 21 15.5 36.5t36.5 15.5zM268 659q17 0 27 -10t10 -27q0 -23 -14.5 -38.5t-35.5 -15.5q-18 0 -28.5 10.5t-10.5 28.5q0 21 15.5 36.5t36.5 15.5zM189 473l-118 -473h-55 l118 473h55z"/>
<glyph unicode="ј" glyph-name="uni0458" horiz-adv-x="244" d="M250 674q16 0 26 -10t10 -25q0 -21 -15 -37t-35 -16q-15 0 -25.5 10t-10.5 24q0 22 15 38t35 16zM233 473l-110 -440q-9 -35 -15.5 -59t-13.5 -41.5t-13.5 -30t-15.5 -24.5q-24 -32 -61.5 -49.5t-81.5 -17.5h-8.5t-12.5 1l12 47h9q71 0 106 58q10 17 19.5 44.5t20.5 70.5 l110 441h55z"/>
<glyph unicode="љ" glyph-name="uni0459" horiz-adv-x="656" d="M339 43h89q16 0 28 0.5t21 2.5t17 4.5t16 7.5q23 13 36.5 37.5t13.5 55.5q0 80 -88 80h-86zM396 274h77q32 0 51.5 -4t36.5 -14q53 -31 53 -104q0 -44 -18.5 -77.5t-53.5 -52.5q-23 -12 -49.5 -17t-69.5 -5h-145l107 430h-166l-101 -291q-8 -21 -13 -35.5t-10 -25 t-10 -18.5t-11 -15q-21 -25 -49 -36.5t-70 -11.5h-8l12 47h6q36 0 62 24q13 12 23 31.5t24 59.5l107 314h265z"/>
<glyph unicode="њ" glyph-name="uni045A" horiz-adv-x="677" d="M360 43h88q33 0 49.5 3t32.5 12q23 13 36.5 38t13.5 55q0 42 -21 61t-67 19h-86zM356 231h-233l-57 -231h-50l118 473h50l-50 -199h233l50 199h50l-50 -199h77q32 0 51 -4t36 -14q53 -31 53 -104q0 -44 -18.5 -77.5t-53.5 -52.5q-23 -12 -49.5 -17t-68.5 -5h-145z"/>
<glyph unicode="ћ" glyph-name="uni045B" horiz-adv-x="471" d="M170 417q56 65 136 65q57 0 90.5 -29t33.5 -78q0 -14 -3.5 -34.5t-12.5 -55.5l-71 -285h-50l72 288q5 23 8.5 44t3.5 34q0 32 -22 50.5t-58 18.5q-67 0 -115 -57q-17 -21 -28.5 -46t-21.5 -66l-66 -266h-50l137 551h-60l11 43h60l19 75h50l-19 -75h137l-11 -43h-137z"/>
<glyph unicode="ќ" glyph-name="uni045C" horiz-adv-x="421" d="M466 671l-156 -115h-49l115 115h90zM66 0h-50l118 473h50zM456 473l-264 -228l163 -245h-70l-154 249l254 224h71z"/>
<glyph unicode="ў" glyph-name="uni045E" horiz-adv-x="414" d="M220 677q0 -41 14.5 -58.5t49.5 -17.5q33 0 54.5 17.5t38.5 58.5h37q-14 -60 -49.5 -93.5t-86.5 -33.5q-45 0 -71 27.5t-26 75.5v11t2 13h37zM136 473l28 -432l241 432h56l-252 -433q-40 -69 -68.5 -111t-52.5 -66q-59 -62 -147 -62h-7t-10 1l13 53q32 0 55 5t43 20.5 t41 44.5t49 76l-43 472h54z"/>
<glyph unicode="џ" glyph-name="uni045F" horiz-adv-x="477" d="M310 43l107 430h50l-118 -473h-142l-25 -100h-50l25 100h-141l118 473h50l-107 -430h233z"/>
<glyph unicode="Ґ" glyph-name="uni0490" horiz-adv-x="441" d="M87 0h-58l166 667h281l20 81h58l-33 -131h-281z"/>
<glyph unicode="ґ" glyph-name="uni0491" horiz-adv-x="331" d="M66 0h-50l118 473h199l14 56h50l-25 -99h-199z"/>
<glyph unicode="–" glyph-name="endash" d="M434 273l-11 -43h-332l11 43h332z"/>
<glyph unicode="—" glyph-name="emdash" horiz-adv-x="539" d="M551 273l-11 -43h-539l11 43h539z"/>
<glyph unicode="‘" glyph-name="quoteleft" horiz-adv-x="251" d="M314 679q-37 -25 -67.5 -57t-41.5 -58q3 1 6 1h5q15 0 25 -10t10 -24q0 -23 -19 -42t-42 -19q-20 0 -32.5 13t-12.5 34q0 34 30 77.5t82 84.5h57z"/>
<glyph unicode="’" glyph-name="quoteright" horiz-adv-x="251" d="M110 470q39 27 68.5 58.5t40.5 57.5q-4 -1 -11 -1q-15 0 -25 10t-10 24q0 23 19 42t42 19q20 0 32.5 -13t12.5 -34q0 -35 -29 -77t-82 -86h-58z"/>
<glyph unicode="‚" glyph-name="quotesinglbase" horiz-adv-x="251" d="M-37 -119q42 30 70 59.5t39 55.5h-11q-15 0 -25 10t-10 24q0 11 5 22t13.5 19.5t19.5 13.5t23 5q20 0 32.5 -13t12.5 -34q0 -69 -111 -162h-58z"/>
<glyph unicode="“" glyph-name="quotedblleft" horiz-adv-x="415" d="M314 679q-37 -25 -67.5 -57t-41.5 -58q3 1 6 1h5q15 0 25 -10t10 -24q0 -23 -19 -42t-42 -19q-20 0 -32.5 13t-12.5 34q0 35 29.5 77.5t81.5 84.5h58zM478 679q-37 -25 -67.5 -57t-41.5 -58q4 1 6.5 1h4.5q15 0 25 -10t10 -24q0 -23 -19 -42t-42 -19q-20 0 -32.5 13 t-12.5 34q0 35 29.5 77.5t82.5 84.5h57z"/>
<glyph unicode="”" glyph-name="quotedblright" horiz-adv-x="415" d="M274 470q39 27 68.5 58.5t40.5 57.5q-4 -1 -11 -1q-15 0 -25 10t-10 24q0 23 19 42t42 19q20 0 32.5 -13t12.5 -34q0 -35 -28.5 -77t-82.5 -86h-58zM110 470q39 27 68.5 58.5t40.5 57.5q-4 -1 -11 -1q-15 0 -25 10t-10 24q0 23 19 42t42 19q20 0 32.5 -13t12.5 -34 q0 -35 -29 -77t-82 -86h-58z"/>
<glyph unicode="„" glyph-name="quotedblbase" horiz-adv-x="415" d="M127 -119q42 30 70 59.5t39 55.5h-11q-15 0 -25 10t-10 24q0 11 5 22t13.5 19.5t19.5 13.5t23 5q20 0 32.5 -13t12.5 -34q0 -68 -111 -162h-58zM-37 -119q42 30 70 59.5t39 55.5h-11q-15 0 -25 10t-10 24q0 11 5 22t13.5 19.5t19.5 13.5t23 5q20 0 32.5 -13t12.5 -34 q0 -69 -111 -162h-58z"/>
<glyph unicode="†" glyph-name="dagger" horiz-adv-x="500" d="M383 650l-45 -178h190l-11 -46h-190l-140 -559h-51l139 559h-193l12 46h193l44 178h52z"/>
<glyph unicode="‡" glyph-name="daggerdbl" horiz-adv-x="500" d="M380 650l-29 -119h192l-12 -47h-192l-108 -435h191l-11 -47h-192l-34 -135h-49l33 135h-193l12 47h193l108 435h-193l12 47h193l30 119h49z"/>
<glyph unicode="•" glyph-name="bullet" horiz-adv-x="667" d="M347 477q28 0 52.5 -11t43 -30t29.5 -44t11 -53q0 -29 -11 -54.5t-29.5 -44t-44 -29.5t-53.5 -11q-29 0 -54 11t-44 29.5t-30 43.5t-11 54t11 54.5t30 44t44.5 29.5t55.5 11z"/>
<glyph unicode="…" glyph-name="ellipsis" horiz-adv-x="753" d="M589 90q17 0 29 -12t12 -30q0 -23 -17 -41t-39 -18q-18 0 -30.5 12t-12.5 29q0 24 17.5 42t40.5 18zM338 90q17 0 29 -12t12 -30q0 -23 -17 -41t-39 -18q-18 0 -30.5 12t-12.5 29q0 24 17.5 42t40.5 18zM87 90q17 0 29 -12t12 -30q0 -23 -17 -41t-39 -18q-18 0 -30.5 12 t-12.5 29q0 24 17.5 42t40.5 18z"/>
<glyph unicode="‰" glyph-name="perthousand" horiz-adv-x="884" d="M748 271q-43 0 -74 -54q-14 -23 -21 -50.5t-7 -54.5q0 -74 53 -74q20 0 38.5 13t32.5 35.5t22 51.5t8 62q0 34 -13.5 52.5t-38.5 18.5zM752 315q47 0 73 -31t26 -86q0 -39 -13 -77.5t-36 -69.5q-42 -57 -106 -57q-48 0 -74.5 30.5t-26.5 84.5q0 42 12.5 79.5t34 65.5 t50 44.5t60.5 16.5zM455 271q-43 0 -74 -54q-14 -23 -21 -50.5t-7 -54.5q0 -74 53 -74q20 0 38.5 13t32.5 35.5t22 51.5t8 62q0 34 -13.5 52.5t-38.5 18.5zM459 315q47 0 73 -31t26 -86q0 -39 -13 -77.5t-36 -69.5q-42 -57 -106 -57q-48 0 -74.5 30.5t-26.5 84.5 q0 42 12.5 79.5t34 65.5t50 44.5t60.5 16.5zM610 667l-527 -667h-51l526 667h52zM239 629q-43 0 -74 -53q-14 -23 -21 -51t-7 -54q0 -74 53 -74q20 0 38.5 13t32.5 35t22 51.5t8 61.5q0 34 -13.5 52.5t-38.5 18.5zM243 673q47 0 73 -31t26 -86q0 -38 -13 -76.5t-36 -69.5 q-43 -57 -107 -57q-47 0 -73.5 30.5t-26.5 84.5q0 42 12.5 79t34 65t50 44.5t60.5 16.5z"/>
<glyph unicode="‹" glyph-name="guilsinglleft" horiz-adv-x="211" d="M172 390l-124 -152l42 -167h33l-27 162l115 157h-39z"/>
<glyph unicode="›" glyph-name="guilsinglright" horiz-adv-x="211" d="M98 392l24 -163l-117 -156h39l126 152l-39 167h-33z"/>
<glyph unicode="€" glyph-name="Euro" d="M12 258l31 46h60q4 26 14 63h-80l31 46h64q45 125 119.5 190t173.5 65q108 0 176 -77l-42 -60q-27 48 -59 68.5t-80 20.5q-73 0 -128 -50.5t-97 -156.5h293l-33 -46h-276q-11 -35 -15 -63h247l-32 -46h-221q-2 -11 -2 -19v-19q0 -182 147 -182q60 0 106.5 25t91.5 81 l-20 -93q-42 -33 -87 -48t-100 -15q-198 0 -198 233v18.5t2 18.5h-86z"/>
<glyph unicode="₽" glyph-name="uni20BD" horiz-adv-x="575" d="M370 335q-13 -2 -27 -3t-33 -2h-43h-50l73 287h36q40 0 64 -1q24 0 42 -1q17 -2 28 -5q12 -4 24 -9q32 -14 44 -47q11 -34 -1 -82q-29 -113 -132 -133q-13 -3 -25 -4zM518 650q-13 5 -29 8t-36 5q-21 2 -48 3t-64 1h-95l-86 -337h-67l-13 -50h67l-17 -67h-67l-13 -50h67 l-42 -163h57l42 163h224l13 50h-224l17 67h52q40 0 69 1t52 4q22 3 39 8q17 4 35 11q52 22 87 65q36 43 51 102q16 65 -3 113q-18 48 -68 66z"/>
<glyph unicode="№" glyph-name="uni2116" horiz-adv-x="829" d="M796 105l-11 -42h-235l11 42h235zM749 414q-19 0 -36.5 -11.5t-31 -30t-21.5 -43.5t-8 -52q0 -31 14.5 -48.5t40.5 -17.5q38 0 67 42q14 20 21.5 46.5t7.5 49.5q0 29 -14.5 47t-39.5 18zM755 460q43 0 68.5 -29t25.5 -77q0 -38 -12 -72.5t-32 -60.5t-47 -41t-57 -15 q-45 0 -70 28t-25 78q0 41 16.5 81.5t42.5 68.5q37 39 90 39zM258 667l174 -601l146 601h55l-166 -667h-64l-173 598l-146 -598h-55l166 667h63z"/>
<glyph unicode="™" glyph-name="trademark" horiz-adv-x="688" d="M474 667l27 -329l189 329h62l-94 -380h-41l84 328l-190 -328h-43l-28 328l-80 -328h-41l95 380h60zM365 667l-10 -37h-105l-85 -343h-41l86 343h-105l9 37h251z"/>
</font>
</defs>
</svg>
